<svg xmlns="http://www.w3.org/2000/svg" viewBox="0 0 16 16"><title>iModel New</title><path d="M13,5.75873v5.27759a1.0038,1.0038,0,0,1-.48627.85076l-5,2.97443a1.02362,1.02362,0,0,1-1.02746,0l-4.98456-2.965A1.03182,1.03182,0,0,1,1,11.03632V4.96362a1.00393,1.00393,0,0,1,.48627-.85083l5-2.9743a1.02324,1.02324,0,0,1,1.02746,0l2.28418,1.3587.05969-.00836V1.3692L8.025.27905a2.02323,2.02323,0,0,0-2.05,0l-5,2.97431A1.99389,1.99389,0,0,0,0,4.96362v6.0727a2.02494,2.02494,0,0,0,.975,1.7102l5,2.97443a2.0236,2.0236,0,0,0,2.05,0l5-2.97443A1.99371,1.99371,0,0,0,14,11.03632V5.96814A3.25867,3.25867,0,0,1,13,5.75873Z" fill="#002a44"/><path d="M10.8576,1.0663h1.1632V3.1621a3.39556,3.39556,0,0,1-.1137,1.0054,1.14481,1.14481,0,0,1-.4592.5831,1.50892,1.50892,0,0,1-.8824.239,1.99309,1.99309,0,0,1-.8814-.1579,1.11941,1.11941,0,0,1-.4827-.461A1.77492,1.77492,0,0,1,9,3.619l1.1095-.1557a1.33051,1.33051,0,0,0,.0435.3789.40539.40539,0,0,0,.1384.2.3597.3597,0,0,0,.475-.0979,1.00975,1.00975,0,0,0,.0912-.501Zm1.7347,2.5822,1.1042-.0715a.88551.88551,0,0,0,.1461.421.60743.60743,0,0,0,.5124.2336.5549.5549,0,0,0,.3829-.1189.36143.36143,0,0,0,.1347-.2779.35734.35734,0,0,0-.1281-.2684,1.45242,1.45242,0,0,0-.5945-.2232,2.485,2.485,0,0,1-1.0888-.4694.9495.9495,0,0,1-.328-.7443,1.03149,1.03149,0,0,1,.168-.5621,1.1219,1.1219,0,0,1,.5043-.4158A2.2994,2.2994,0,0,1,14.3294,1a1.85236,1.85236,0,0,1,1.0982.2758,1.19584,1.19584,0,0,1,.4494.8748l-1.0941.0663a.604.604,0,0,0-.1834-.379.57146.57146,0,0,0-.3853-.1189.45539.45539,0,0,0-.305.0884.272.272,0,0,0-.1024.2137.21723.21723,0,0,0,.0844.1663.94725.94725,0,0,0,.3896.1421,4.81919,4.81919,0,0,1,1.0905.3411,1.14748,1.14748,0,0,1,.4785.4274A1.104,1.104,0,0,1,16,3.6696a1.25992,1.25992,0,0,1-.7584,1.159,2.21578,2.21578,0,0,1-.9045.161,1.82861,1.82861,0,0,1-1.3273-.379A1.50928,1.50928,0,0,1,12.5923,3.6485ZM7,3.25005a1.0625,1.0625,0,1,1-1.0625,1.0625A1.0625,1.0625,0,0,1,7,3.25005Zm3,9.1894a.25006.25006,0,0,1-.1221.2148l-2.725,1.6229a.24973.24973,0,0,1-.255.0004L4.1229,12.639A.24993.24993,0,0,1,4,12.42365v-1.4408a.24991.24991,0,0,1,.3778-.2148L6,11.66667V8.23635l-.8778-.5593A.25.25,0,0,1,5,7.46215V6.01635a.25.25,0,0,1,.3783-.2146l2.5,1.3831A.24987.24987,0,0,1,8,7.39935v4.26732l1.6222-.89862a.25.25,0,0,1,.3778.2148Z" fill="#56aa1c"/></svg>