<svg xmlns="http://www.w3.org/2000/svg" xmlns:xlink="http://www.w3.org/1999/xlink" viewBox="0 0 340 352"><defs><linearGradient id="a" x1="170" y1="116.36353" x2="170" y2="350.49999" gradientUnits="userSpaceOnUse"><stop offset="0" stop-color="#cdecff"/><stop offset="0.5" stop-color="#cdecff" stop-opacity="0.25"/></linearGradient><linearGradient id="b" x1="23.59902" y1="254.1376" x2="316.40098" y2="254.1376" gradientUnits="userSpaceOnUse"><stop offset="0.47175" stop-color="#dce0e3"/><stop offset="0.61611" stop-color="#c7ccd1"/></linearGradient><linearGradient id="c" x1="59.5" y1="209.94123" x2="70.57166" y2="209.94123" gradientUnits="userSpaceOnUse"><stop offset="0" stop-color="#dce0e3"/><stop offset="1" stop-color="#c7ccd1"/></linearGradient><linearGradient id="d" x1="46.5" y1="215.94123" x2="57.57166" y2="215.94123" xlink:href="#c"/><linearGradient id="e" x1="119.7201" y1="254.65766" x2="127.64104" y2="268.37714" gradientUnits="userSpaceOnUse"><stop offset="0.77702" stop-color="#a47854"/><stop offset="0.80281" stop-color="#9e7452"/><stop offset="0.83775" stop-color="#8d6a4e"/><stop offset="0.87793" stop-color="#705946"/><stop offset="0.92168" stop-color="#49413c"/><stop offset="0.95133" stop-color="#2a2f34"/></linearGradient><linearGradient id="f" x1="82.03265" y1="208.5427" x2="84.4151" y2="208.5427" xlink:href="#c"/><linearGradient id="g" x1="82.658" y1="201.84932" x2="82.658" y2="176.62197" gradientUnits="userSpaceOnUse"><stop offset="0" stop-color="#2a2f34" stop-opacity="0.25"/><stop offset="1" stop-color="#2a2f34" stop-opacity="0.5"/></linearGradient><linearGradient id="h" x1="123.66275" y1="261.4172" x2="122.25103" y2="263.86237" gradientUnits="userSpaceOnUse"><stop offset="0.41749" stop-color="#b9c0c6"/><stop offset="0.63493" stop-color="#9ba5ae"/></linearGradient><linearGradient id="i" x1="127.89686" y1="260.50262" x2="133.53549" y2="260.50262" gradientUnits="userSpaceOnUse"><stop offset="0" stop-color="#cdecff"/><stop offset="1" stop-color="#fff"/></linearGradient><linearGradient id="j" x1="169.98691" y1="37.59573" x2="169.98691" y2="207.43132" gradientUnits="userSpaceOnUse"><stop offset="0" stop-color="#cdecff"/><stop offset="1" stop-color="#cdecff" stop-opacity="0.25"/></linearGradient></defs><title>Illustrations</title><path d="M316.328,131.49768a3.95883,3.95883,0,0,1-1.879,2.69867L189.84546,203.58179c-5.83215,3.262-11.06323,3.63-14.64008,1.58081l-150.305-87.233a1.64953,1.64953,0,0,1-1.25354-1.566c-.03687.3316-.04779.53564-.04779.53564V253.88983c0,4.937,1.843,8.41095,4.87463,10.14789l146.56348,85.195c3.57288,2.047,8.79816,1.67932,14.62384-1.579l107.24158-59.98212c10.76873-6.023,19.49847-19.62482,19.49847-30.38049v-124.241C316.401,132.50757,316.372,131.99493,316.328,131.49768Z" fill-rule="evenodd" opacity="0.5" fill="url(#a)"/><path d="M28.79861,228.29919,150.339,160.4355c6.489-3.62938,11.23189-3.19723,15.77835-.78683l144.22365,83.837c3.70646,2.04565,6.05993,5.16268,6.05993,10.71363V257.291c0,10.75567-8.72973,24.35748-19.49847,30.38049L189.661,347.65365c-5.82568,3.25833-11.05095,3.626-14.62385,1.579h0l-146.56346-85.195h0c-3.03162-1.73693-4.87462-5.2109-4.87462-10.14792V238.04843S23.89858,231.22461,28.79861,228.29919Z" fill-rule="evenodd" fill="url(#b)"/><path d="M150.339,160.43549,28.79858,228.29919c-4.33227,2.58643-5.06726,8.2118-5.17974,9.48261a1.66989,1.66989,0,0,0,1.28149,1.73913l150.30505,87.233c3.57685,2.04919,8.80793,1.68115,14.64008-1.58081L314.449,255.78772a3.91725,3.91725,0,0,0,1.906-2.82178,10.84712,10.84712,0,0,0-6.01392-9.48022l-144.22369-83.837a16.63788,16.63788,0,0,0-3.71258-1.46161h-6.55036A21.76133,21.76133,0,0,0,150.339,160.43549Z" fill="#b1c854" fill-rule="evenodd"/><polygon points="205.104 282.075 173.628 299.578 137.52 278.622 169.002 261.1 205.104 282.075" fill="#eef0f3"/><path d="M241.291,283.21753l-50.5346-29.32886,70.26526-39.07233L242.723,204.17944,172.44293,243.26,88.91345,194.78186l-18.27655,10.205,83.49256,48.45672-41.80164,23.24463c-5.7077,3.17383-5.28558,10.36432-5.27643,10.51105l18.40308,10.64313c.11456-4.97083,2.26147-8.76081,5.65-10.75348l.02466-.04334,41.31384-22.97333L223.277,293.57489l.02362.04333c3.24658,1.99268,5.30359,4.957,5.41333,9.92786l17.63184-9.804S246.8161,286.42413,241.291,283.21753Z" fill="#2a2f34" fill-rule="evenodd"/><path d="M116.70605,289.4566a15.07337,15.07337,0,0,0-.29394,2.86035.48983.48983,0,0,1-.06842.25629l-.92853-.537a16.596,16.596,0,0,1,.30847-2.7691.50026.50026,0,0,1,.98242.18945Zm6.48554-64.7702-5.08887-2.95312a.50014.50014,0,0,0-.502.86523l5.08887,2.95312a.50014.50014,0,0,0,.502-.86523ZM142.833,268.77789l-5.05664,2.8125a.49968.49968,0,1,0,.48633.873l5.05664-2.8125a.49968.49968,0,0,0-.48633-.873Zm-10.11328,5.624-5.05762,2.8125a.49968.49968,0,1,0,.48633.873l5.05761-2.8125a.49968.49968,0,1,0-.48632-.873Zm-19.7049-55.62177L107.926,215.827a.50014.50014,0,0,0-.502.86523l5.08887,2.95312a.50014.50014,0,1,0,.502-.86523Zm20.35352,11.8125-5.08789-2.95312a.50015.50015,0,1,0-.502.86523l5.08789,2.95312a.50015.50015,0,1,0,.502-.86523Zm24.9414,15.63184,3.80933,2.21057,1.0177-.56592-4.32507-2.50989a.50015.50015,0,0,0-.502.86524Zm23.60346,1.96612,1.86218-1.03576a.49968.49968,0,0,0-.48633-.87305l-2.382,1.32483ZM102.8371,212.87292l-5.08887-2.95312a.50014.50014,0,0,0-.502.86523l5.08886,2.95313a.50015.50015,0,0,0,.502-.86524Zm85.75274,31.53388a.49694.49694,0,0,0,.24317-.06348l5.05664-2.8125a.49968.49968,0,1,0-.48633-.873l-5.05664,2.8125a.49991.49991,0,0,0,.24316.93652Zm-45.04376-7.90692-5.08887-2.9541a.50014.50014,0,0,0-.50195.86523l5.08887,2.9541a.50014.50014,0,1,0,.50195-.86523ZM92.66034,206.96667l-5.08887-2.95312a.50014.50014,0,0,0-.502.86523l5.08887,2.95313a.50015.50015,0,0,0,.502-.86524ZM82.4826,201.06042l-2.36041-1.36987-.92456.5163a.48627.48627,0,0,0,.1883.213l2.59472,1.50586a.50015.50015,0,1,0,.502-.86524Zm65.6504,39.25782,5.08789,2.95312a.50014.50014,0,1,0,.50195-.86523L148.635,239.453a.50015.50015,0,1,0-.50195.86524Zm-25.52753,39.7077-1.34863.75a9.929,9.929,0,0,0-3.28321,2.96973.49939.49939,0,1,0,.81446.57812,8.9802,8.9802,0,0,1,2.95507-2.6748l1.34864-.75a.49968.49968,0,1,0-.48633-.87305ZM234.53906,218.355a.49924.49924,0,0,0-.67968-.19336l-5.05665,2.8125a.49968.49968,0,1,0,.48633.87305l5.05664-2.8125A.499.499,0,0,0,234.53906,218.355Zm-10.30761,6.30371a.49968.49968,0,0,0-.48633-.87305l-5.05664,2.8125a.49968.49968,0,1,0,.48632.87305Zm.73162,59.09308-5.08789-2.95312a.50014.50014,0,1,0-.50195.86523l5.08789,2.95312a.50014.50014,0,0,0,.50195-.86523Zm7.71387,4.51074-2.625-1.55761a.50014.50014,0,1,0-.50195.86523l2.35547,1.36719.13379.10644a11.91243,11.91243,0,0,1,2.24023,1.752.5.5,0,0,0,.71094-.70313A12.812,12.812,0,0,0,232.67694,288.26257Zm18.00574-79.45624-1.65241.91883a.49968.49968,0,1,0,.48633.873l2.17145-1.20745ZM237.2619,295.079a.50126.50126,0,0,0-.3789.59765,14.8052,14.8052,0,0,1,.331,2.88086.48543.48543,0,0,0,.06641.22529l.916-.50934a15.7048,15.7048,0,0,0-.33691-2.81556A.50038.50038,0,0,0,237.2619,295.079Zm6.71173-82.54132-5.05664,2.8125a.49968.49968,0,1,0,.48633.873l5.05664-2.8125a.49968.49968,0,1,0-.48633-.873ZM204.00391,235.9068a.49968.49968,0,0,0-.48633-.87305l-5.05664,2.8125a.49968.49968,0,1,0,.48633.87305Zm-19.74884,24.21905-1.80951-1.05011-1.0177.566,2.32525,1.34937a.50015.50015,0,1,0,.502-.86524Zm-22.657-1.782-3.59314,1.99848a.49968.49968,0,1,0,.48633.873l4.113-2.2876Zm32.8338,7.68823L189.343,263.079a.50015.50015,0,1,0-.502.86523l5.08887,2.95313a.50015.50015,0,0,0,.50195-.86524Zm-41.48455-2.87823-5.05665,2.8125a.49968.49968,0,1,0,.48633.87305l5.05664-2.8125a.49968.49968,0,0,0-.48632-.87305Zm61.839,14.69171-5.08887-2.95312a.50014.50014,0,1,0-.50195.86523l5.08886,2.95312a.50015.50015,0,1,0,.502-.86523Zm-.66816-47.5628a.49968.49968,0,0,0-.48632-.87305l-5.05762,2.8125a.49968.49968,0,1,0,.48633.87305Zm-9.50958,41.65557-5.08789-2.95312a.50014.50014,0,0,0-.50195.86523l5.08789,2.95313a.50015.50015,0,0,0,.50195-.86524Z" fill="#fff"/><path d="M163.63446,248.15814l-9.505,5.2854-1.00684-.58435.52081-.28961,8.98419-4.99579Zm18.79822-.25659-8.97229-5.20728-1.01746.56574,8.97235,5.20734Zm8.32367,5.98712-9.82617,5.464,1.00683.58435,9.30536-5.17444.52081-.28961Zm-29.67774,4.7442,10.34693,6.00507,1.01739-.56574L162.096,258.06714Z" fill="#fff"/><polygon points="143.885 200.126 127.145 209.492 124.912 208.181 128.615 151.042 138.859 145.445 141.012 146.604 143.885 200.126" fill="#dce0e3"/><polygon points="141.012 146.604 143.885 200.126 127.145 209.492 130.848 152.034 141.012 146.604" fill="#c7ccd1"/><polygon points="128.615 151.042 130.848 152.034 141.012 146.611 141.012 146.604 138.859 145.445 128.615 151.042" fill="#eef0f3"/><polygon points="153.223 205.565 136.483 214.931 127.149 209.485 127.149 147.244 143.968 138.016 153.223 143.6 153.223 205.565" fill="#dce0e3"/><polygon points="153.223 143.6 153.223 205.565 136.483 214.931 136.483 143.6 153.223 143.6" fill="#c7ccd1"/><polygon points="127.149 147.244 136.483 152.372 153.223 143.607 153.223 143.6 143.968 138.016 127.149 147.244" fill="#eef0f3"/><polygon points="155.456 206.859 138.716 216.225 136.483 214.915 140.186 157.775 150.43 152.178 152.583 153.338 155.456 206.859" fill="#dce0e3"/><polygon points="152.583 153.338 155.456 206.859 138.716 216.225 142.419 158.767 152.583 153.338" fill="#c7ccd1"/><polygon points="140.186 157.775 142.419 158.767 152.583 153.344 152.583 153.338 150.43 152.178 140.186 157.775" fill="#eef0f3"/><polygon points="144.646 162.72 144.646 164.879 150.852 161.662 150.852 161.661 148.646 160.595 144.646 162.72" fill="#eef0f3"/><polygon points="148.646 158.036 148.646 160.594 150.852 161.661 150.829 156.893 148.646 158.036" fill="#dce0e3"/><polygon points="197.636 217.201 170.614 232.32 155.546 223.528 155.546 215.8 182.697 200.904 197.636 209.919 197.636 217.201" fill="#dce0e3"/><polygon points="197.636 209.919 197.636 217.201 170.614 232.32 170.614 209.919 197.636 209.919" fill="#c7ccd1"/><polygon points="155.546 215.8 170.614 224.078 197.636 209.929 197.636 209.919 182.697 200.904 155.546 215.8" fill="#eef0f3"/><polygon points="194.024 208.315 172.05 220.61 159.797 213.461 159.797 169.331 181.876 157.217 194.024 164.548 194.024 208.315" fill="#dce0e3"/><polygon points="194.024 164.548 194.024 208.315 172.05 220.61 172.05 164.548 194.024 164.548" fill="#c7ccd1"/><polygon points="159.797 169.331 172.05 176.062 194.024 164.556 194.024 164.548 181.876 157.217 159.797 169.331" fill="#eef0f3"/><polygon points="191.627 162.949 169.276 174.575 162.778 171 162.778 151.14 183.71 145.85 191.627 143.452 191.627 162.949" fill="#dce0e3"/><polygon points="191.627 143.452 191.627 162.949 169.276 174.575 169.276 152.033 191.627 143.452" fill="#c7ccd1"/><polygon points="162.778 151.14 169.276 154.297 191.627 143.46 191.627 143.452 185.234 139.696 162.778 151.14" fill="#eef0f3"/><polygon points="191.627 143.471 186.696 145.993 180.075 142.293 180.075 132.47 185.058 130.039 191.627 133.829 191.627 143.471" fill="#dce0e3"/><polygon points="191.627 133.829 191.627 143.471 186.696 145.993 186.696 133.489 191.627 133.829" fill="#c7ccd1"/><polygon points="180.075 132.47 186.696 135.961 191.627 133.833 191.627 133.829 185.058 130.039 180.075 132.47" fill="#eef0f3"/><polygon points="189.515 132.562 184.584 135.085 183.037 134.346 183.037 124.523 188.021 122.091 189.515 122.921 189.515 132.562" fill="#dce0e3"/><polygon points="189.515 122.921 189.515 132.562 184.584 135.085 184.584 124.378 189.515 122.921" fill="#c7ccd1"/><polygon points="183.037 124.523 184.584 125.292 189.515 122.925 189.515 122.921 188.021 122.091 183.037 124.523" fill="#eef0f3"/><polygon points="269.114 237.392 251.424 247.659 233.546 237.717 233.546 194.479 251.424 184.538 269.114 194.805 269.114 237.392" fill="#dce0e3"/><polygon points="269.114 194.805 269.114 237.392 251.424 247.659 251.424 194.805 269.114 194.805" fill="#c7ccd1"/><polygon points="233.546 194.479 251.424 203.671 269.114 194.82 269.114 194.805 251.424 184.538 233.546 194.479" fill="#eef0f3"/><polygon points="239.244 253.726 221.554 263.992 203.676 254.051 203.676 218.813 221.554 208.872 239.244 219.139 239.244 253.726" fill="#dce0e3"/><polygon points="239.244 219.139 239.244 253.726 221.554 263.992 221.554 219.139 239.244 219.139" fill="#c7ccd1"/><polygon points="203.676 218.813 221.554 228.005 239.244 219.153 239.244 219.139 221.554 208.872 203.676 218.813" fill="#eef0f3"/><polygon points="269.244 268.726 251.554 278.992 233.676 269.051 233.676 247.813 251.554 237.872 269.244 248.139 269.244 268.726" fill="#dce0e3"/><polygon points="269.244 248.139 269.244 268.726 251.554 278.992 251.554 248.139 269.244 248.139" fill="#c7ccd1"/><polygon points="233.676 247.813 251.554 257.005 269.244 248.153 269.244 248.139 251.554 237.872 233.676 247.813" fill="#eef0f3"/><polygon points="165.973 229.17 167.267 229.889 167.267 234.509 165.224 235.694 163.91 234.99 163.91 230.371 165.973 229.17" fill="#ffc335"/><polygon points="167.267 229.889 165.224 231.068 165.224 235.694 167.267 234.509 167.267 229.889" fill="#e5af30"/><ellipse cx="166.21043" cy="233.71539" rx="0.62223" ry="0.80469" fill="#b1c854"/><ellipse cx="166.21043" cy="231.71539" rx="0.62223" ry="0.80469" fill="#f7706c"/><polyline points="168.721 227.567 150.25 237.811 150.25 253.622" fill="none" stroke="#7d858c" stroke-linecap="round" stroke-linejoin="round" stroke-width="2"/><polygon points="187.203 234.17 185.91 234.889 185.91 239.509 187.952 240.694 189.267 239.99 189.267 235.371 187.203 234.17" fill="#ffc335"/><polygon points="189.267 235.364 187.952 236.068 187.952 240.694 189.267 239.99 189.267 235.364" fill="#e5af30"/><ellipse cx="186.96598" cy="238.71539" rx="0.62223" ry="0.80469" fill="#b1c854"/><ellipse cx="186.96598" cy="236.71539" rx="0.62223" ry="0.80469" fill="#f7706c"/><polyline points="190.756 236.239 172.443 225.55 172.443 241.361" fill="none" stroke="#7d858c" stroke-linecap="round" stroke-linejoin="round" stroke-width="2"/><ellipse cx="64.91667" cy="225.57229" rx="6.54167" ry="3.1405" opacity="0.1"/><path d="M69.58063,217.58777l.91667,7.20833,1.20067-.98876" fill="none" stroke="#9ba5ae" stroke-linecap="round" stroke-linejoin="round" fill-rule="evenodd"/><path d="M67.97186,224.87317l2.06977-4.16608H60.03033l2.40717,4.17236h.00507a4.87625,4.87625,0,0,0,5.52264,0h.00354l.00189-.00384.00122-.00085Z" fill="#7d858c"/><rect x="59.5" y="195.99304" width="11.07166" height="27.89638" rx="5.53583" ry="5.53583" fill="url(#c)"/><path d="M65.03583,218.58777c-3.05731,0-5.53583-1.23059-5.53583-2.74866v2.04273a8.3552,8.3552,0,0,0,5.53583,1.70593,8.3552,8.3552,0,0,0,5.53583-1.70593v-2.04273C70.57166,217.35718,68.0932,218.58777,65.03583,218.58777Z" fill="#7d858c"/><path d="M64.20563,221.58777,63.289,228.7961l-.70833.75m-4-2,.70833-.75.91667-7.20833" fill="none" stroke="#9ba5ae" stroke-linecap="round" stroke-miterlimit="10" fill-rule="evenodd"/><ellipse cx="51.91667" cy="231.57229" rx="6.54167" ry="3.1405" opacity="0.1"/><path d="M56.58063,223.58777l.91667,7.20833,1.20067-.98876" fill="none" stroke="#9ba5ae" stroke-linecap="round" stroke-linejoin="round" fill-rule="evenodd"/><path d="M54.97186,230.87317l2.06977-4.16608H47.03033l2.40717,4.17236h.00507a4.87625,4.87625,0,0,0,5.52264,0h.00354l.00189-.00384.00122-.00085Z" fill="#7d858c"/><rect x="46.5" y="201.99304" width="11.07166" height="27.89638" rx="5.53583" ry="5.53583" fill="url(#d)"/><path d="M52.03583,224.58777c-3.05731,0-5.53583-1.23059-5.53583-2.74866v2.04273a8.3552,8.3552,0,0,0,5.53583,1.70593,8.3552,8.3552,0,0,0,5.53583-1.70593v-2.04273C57.57166,223.35718,55.0932,224.58777,52.03583,224.58777Z" fill="#7d858c"/><path d="M51.20563,227.58777,50.289,234.7961l-.70833.75m-4-2,.70833-.75.91667-7.20833" fill="none" stroke="#9ba5ae" stroke-linecap="round" stroke-miterlimit="10" fill-rule="evenodd"/><polygon points="125.592 269.312 110.125 260.197 121.752 253.739 137.236 262.837 125.592 269.312" fill-rule="evenodd" fill="url(#e)"/><polygon points="111.985 259.703 126.955 268.387 133.535 264.86 118.695 255.959 111.985 259.703" fill-rule="evenodd" opacity="0.1"/><polygon points="57.082 228.432 57.082 240.783 100.491 266.286 131.271 249.109 131.271 236.896 57.082 228.432" fill="#dce0e3"/><polygon points="131.271 236.896 131.271 249.109 100.491 266.286 100.491 236.896 131.271 236.896" fill="#c7ccd1"/><path d="M119.205,243.80183l-6.94965,3.87887v12.07516h0l6.94965-3.91807v-12.036Z" fill="#2a2f34" fill-rule="evenodd"/><path d="M63.4592,235.18157V240.475l-2.9184-1.71458V233.4612Zm3.40609,2.06779v5.29924l2.9184,1.71458v-5.29345Zm6.54289,3.79545v5.29924l2.91839,1.71458v-5.29345Zm6.22988,3.66316v5.29924l2.9184,1.71458v-5.29345Zm6.04244,3.633v5.29924l2.9184,1.71458v-5.29345Zm7.52343,4.35092v5.29925l2.9184,1.71458v-5.29346Z" fill="#fff"/><polygon points="115.351 239.158 131.271 236.896 87.865 211.393 72.267 213.934 115.351 239.158" fill="#3e7794"/><polygon points="115.351 239.158 100.491 253.843 57.082 228.432 72.267 213.934 115.351 239.158" fill="#4585a5"/><path d="M82.03265,214.9339V201.84932H82.383c0,.26538.37648.48051.84088.48051s.84086-.21513.84086-.48051h.35037v12.6343A1.71126,1.71126,0,0,1,82.03265,214.9339Z" fill="url(#f)"/><ellipse cx="83.22387" cy="201.84933" rx="0.84087" ry="0.4805" fill="#2a2f34"/><path d="M83.22387,201.423c.412,0,.746.19086.746.42629s-.334.42628-.746.42628-.746-.19085-.746-.42628.334-.42629.746-.42629m0-.25441c-.65683,0-1.19122.30536-1.19122.6807s.53439.6807,1.19122.6807,1.19123-.30536,1.19123-.6807-.53439-.6807-1.19123-.6807Z" fill="#eef0f3"/><path d="M76.16271,184.78017A4.22608,4.22608,0,0,0,78.438,190.1153a4.0951,4.0951,0,0,0,1.4907,4.78594c2.51065,9.80724,4.39364,8.63037,6.04126.23537a4.19072,4.19072,0,0,0,2.03991-4.15827c4.629-1.09841,4.94285-6.82584.5492-8.395a4.92307,4.92307,0,0,0-4.94285-2.43219C81.57631,171.83461,68.16,180.22961,76.16271,184.78017Z" fill="url(#g)"/><path d="M116.28047,259.32775a3.14706,3.14706,0,0,0-1.47834-2.54352,1.02554,1.02554,0,0,0-.99182-.06927l.00269-.00946-.66913.35882.00775.00348a1.10035,1.10035,0,0,0-.48669,1.0318,3.147,3.147,0,0,0,1.47839,2.54352,1.02821,1.02821,0,0,0,.98566.072l-.00263.00922.66913-.35883-.00757-.00336A1.09637,1.09637,0,0,0,116.28047,259.32775Z" fill="#262a2f" fill-rule="evenodd"/><path d="M114.1433,257.1372c-.81648-.4366-1.47837-.0057-1.47837.96243a3.147,3.147,0,0,0,1.47837,2.54349c.81647.4366,1.47836.0057,1.47836-.96243A3.14705,3.14705,0,0,0,114.1433,257.1372Z" fill="#2a2f34" fill-rule="evenodd"/><path d="M114.1433,257.84523c-.4867-.26026-.88125-.00341-.88125.5737a1.87592,1.87592,0,0,0,.88125,1.51616c.4867.26026.88125.0034.88125-.5737A1.87592,1.87592,0,0,0,114.1433,257.84523Z" fill="#9ba5ae" fill-rule="evenodd"/><path d="M119.50063,261.1531a3.147,3.147,0,0,0-1.47833-2.54352,1.02554,1.02554,0,0,0-.99182-.06927l.00269-.00946-.66913.35882.00775.00348a1.10037,1.10037,0,0,0-.4867,1.0318,3.147,3.147,0,0,0,1.4784,2.54352,1.0282,1.0282,0,0,0,.98565.072l-.00262.00922.66913-.35883-.00757-.00336A1.09638,1.09638,0,0,0,119.50063,261.1531Z" fill="#262a2f" fill-rule="evenodd"/><path d="M117.36346,258.96255c-.81647-.4366-1.47836-.0057-1.47836.96243a3.14705,3.14705,0,0,0,1.47836,2.54349c.81648.4366,1.47837.0057,1.47837-.96243A3.147,3.147,0,0,0,117.36346,258.96255Z" fill="#2a2f34" fill-rule="evenodd"/><path d="M117.36346,259.67058c-.4867-.26026-.88125-.0034-.88125.5737a1.87592,1.87592,0,0,0,.88125,1.51616c.4867.26026.88125.0034.88125-.5737A1.87592,1.87592,0,0,0,117.36346,259.67058Z" fill="#9ba5ae" fill-rule="evenodd"/><path d="M124.92967,262.154l.00128-.002-2.36621-1.36878-.00135.002a.18577.18577,0,0,0-.17712.00641l-1.232.59454a.45341.45341,0,0,0-.24634.3653v1.23193a.14339.14339,0,0,0,.06524.126l-.00408.00592.01019.00592.00244.0014,2.39453,1.38928.0116-.01764a.18906.18906,0,0,0,.14142-.00964l1.232-.59454a.45336.45336,0,0,0,.2464-.3653v-1.232A.14186.14186,0,0,0,124.92967,262.154Z" fill-rule="evenodd" fill="url(#h)"/><path d="M124.76128,262.16546l-1.232.59455a.45343.45343,0,0,0-.2464.3653v1.232c0,.13608.11031.19316.2464.12749l1.232-.59455a.45344.45344,0,0,0,.24639-.3653v-1.232C125.00767,262.15687,124.89736,262.09979,124.76128,262.16546Z" fill="#7d858c" fill-rule="evenodd"/><path d="M118.37888,245.51059l-5.29747,2.95673v8.03334l10.27963,5.89817,5.29747-2.98661v-8.00781Z" fill="#9ba5ae" fill-rule="evenodd"/><path d="M128.65851,251.40876l-5.29747,2.95673v8.03334h0l5.29747-2.98661v-8.00346Z" fill="#7d858c" fill-rule="evenodd"/><path d="M118.37888,245.51059l-5.29747,2.95673v-.012L123.361,254.3535l5.29747-2.98661v.03752Z" fill="#bfc4c7" fill-rule="evenodd"/><path d="M127.50063,265.84858a3.147,3.147,0,0,0-1.47833-2.54352,1.02554,1.02554,0,0,0-.99182-.06927l.00269-.00946-.66913.35882.00775.00348a1.10037,1.10037,0,0,0-.4867,1.0318,3.147,3.147,0,0,0,1.4784,2.54352,1.0282,1.0282,0,0,0,.98565.072l-.00262.00922.66913-.35883-.00757-.00336A1.09638,1.09638,0,0,0,127.50063,265.84858Z" fill="#262a2f" fill-rule="evenodd"/><path d="M125.36346,263.658c-.81647-.4366-1.47836-.0057-1.47836.96243a3.14705,3.14705,0,0,0,1.47836,2.54349c.81648.4366,1.47837.0057,1.47837-.96243A3.147,3.147,0,0,0,125.36346,263.658Z" fill="#2a2f34" fill-rule="evenodd"/><path d="M125.36346,264.36606c-.4867-.26026-.88125-.0034-.88125.5737a1.87592,1.87592,0,0,0,.88125,1.51616c.4867.26026.88125.0034.88125-.5737A1.87592,1.87592,0,0,0,125.36346,264.36606Z" fill="#9ba5ae" fill-rule="evenodd"/><path d="M129.67443,255.40072l3.20312,1.97116,1.232,3.44951v3.97472l-5.29748,2.92432-1.47836-.85214s.16694-2.35342-1.64083-3.31175l-1.3159-.764v-4.53414Z" fill="#f7706c" fill-rule="evenodd"/><path d="M128.81205,263.56144l5.29748-2.74v3.97472l-5.29748,2.92432Z" fill="#de6561" fill-rule="evenodd"/><path d="M128.81205,267.56144l5.29748-2.74" fill="none" stroke="#9ba5ae" stroke-linecap="round" stroke-miterlimit="10" fill-rule="evenodd"/><path d="M124.377,258.25841l5.29747-2.85769,3.20312,1.97116-5.46618,2.72632Z" fill="#f99b98" fill-rule="evenodd"/><path d="M132.61039,258.05556l.9251,2.54377-4.5251,2.35035-1.11353-2.444Z" fill-rule="evenodd" fill="url(#i)"/><ellipse cx="172.27677" cy="289.67383" rx="27.15415" ry="13.87225" fill="#eef0f3"/><ellipse cx="172.27677" cy="288.67383" rx="16.31488" ry="8.33479" fill="#6ab9ec"/><polygon points="184.805 278.697 190.375 281.817 192.738 280.509 187.487 277.584 184.805 278.697" fill-rule="evenodd" opacity="0.1"/><path d="M190,281.16676v-1.35292l1.8701-1.03564V280.206m-4.46875-2.38856v-1.42781l-1.8701,1.03564v1.35292" fill="none" stroke="#7d858c" stroke-linecap="round" stroke-miterlimit="10" stroke-width="0.5"/><polygon points="192.738 279.03 190.375 280.339 184.805 277.219 184.805 276.392 187.355 275.409 192.738 278.268 192.738 279.03" fill="#a47854"/><polygon points="192.738 278.268 192.738 279.03 190.375 280.339 190.375 278.762 192.738 278.268" fill="#936c4b"/><polygon points="184.805 276.392 190.375 279.595 192.738 278.282 192.738 278.268 187.355 275.409 184.805 276.392" fill="#bfa188"/><polygon points="192.955 278.026 192.381 278.364 187.045 275.502 187.045 272.919 187.551 272.771 192.955 275.525 192.955 278.026" fill="#a47854"/><polygon points="192.955 275.525 192.955 278.026 192.381 278.364 192.381 275.663 192.955 275.525" fill="#936c4b"/><polygon points="187.045 272.919 192.381 275.882 192.955 275.54 192.955 275.525 187.69 272.659 187.045 272.919" fill="#bfa188"/><polygon points="157.766 278.961 152.195 282.081 149.832 280.773 155.084 277.848 157.766 278.961" fill-rule="evenodd" opacity="0.1"/><path d="M152.57041,281.43058v-1.35291l-1.8701-1.03565v1.42782m4.46875-2.38856v-1.42781l1.8701,1.03564V279.042" fill="none" stroke="#7d858c" stroke-linecap="round" stroke-miterlimit="10" stroke-width="0.5"/><polygon points="149.832 279.294 152.195 280.603 157.766 277.483 157.766 276.655 155.215 275.672 149.833 278.532 149.832 279.294" fill="#936c4b"/><polygon points="149.833 278.532 149.832 279.294 152.195 280.603 152.195 279.026 149.833 278.532" fill="#a47854"/><polygon points="157.766 276.655 152.195 279.859 149.832 278.546 149.832 278.532 155.215 275.672 157.766 276.655" fill="#bfa188"/><polygon points="149.615 278.29 150.189 278.628 155.526 275.766 155.526 273.183 155.02 273.035 149.615 275.789 149.615 278.29" fill="#936c4b"/><polygon points="149.615 275.789 149.615 278.29 150.189 278.628 150.189 275.927 149.615 275.789" fill="#a47854"/><polygon points="155.526 273.183 150.189 276.146 149.615 275.804 149.615 275.789 154.88 272.922 155.526 273.183" fill="#bfa188"/><path d="M173.04547,282.80931c5.79346.21632,10.36322,2.70629,10.36322,5.74787,0,3.18309-5.00432,5.76131-11.17756,5.76131-6.174,0-11.17756-2.57822-11.17756-5.76131,0-3.04782,4.59214-5.54449,10.40591-5.74787m1.4222,2.72883c2.1.15973,3.71145,1.096,3.71145,2.22423,0,1.24042-1.95318,2.24869-4.362,2.24869-2.40984,0-4.36277-1.00874-4.36277-2.24869,0-1.13394,1.62894-2.07361,3.74643-2.22711m-.15531,2.22327V277.60637s-.08228-6.52254-2.765-6.52254c-2.68189,0-3.415,4.247-3.49546,7.43152m7.84717,9.24318V277.60637s.08074-6.52254,2.76341-6.52254c2.68292,0,3.415,4.247,3.49572,7.43152m-13.382-10.57959s2.26637-3.20179,4.3134-1.228c1.8565,1.78581,2.017,5.86444,2.017,5.86444m.97839-3.5745s1.8583-5.5325,5.06294-1.51m-6.04133-1.06055v-5.14253" fill="none" stroke="#97cef2" stroke-linecap="round" stroke-miterlimit="10" stroke-width="1.054"/><path d="M150.339,39.84414,28.79858,107.70785c-4.33227,2.58643-5.06726,8.21179-5.17974,9.48261a1.66989,1.66989,0,0,0,1.28149,1.73913l150.30505,87.233c3.57685,2.04919,8.80793,1.68115,14.64008-1.58081L314.449,135.19638a3.91725,3.91725,0,0,0,1.906-2.82178,10.84712,10.84712,0,0,0-6.01392-9.48022l-144.22369-83.837a16.63788,16.63788,0,0,0-3.71258-1.46161h-6.55036A21.76164,21.76164,0,0,0,150.339,39.84414Z" fill-rule="evenodd" fill="url(#j)"/><g opacity="0.3"><path d="M241.291,162.62619l-50.5346-29.32886L261.02161,94.225,242.723,83.5881l-70.28009,39.08057L88.91345,74.19052,70.6369,84.39547l83.49256,48.45673-41.80164,23.24463c-5.7077,3.17383-5.28558,10.36432-5.27643,10.511L125.45447,177.251c.11456-4.97082,2.26147-8.7608,5.65-10.75347l.02466-.04334,41.31384-22.97333L223.277,172.98355l.02362.04333c3.24658,1.99268,5.30359,4.957,5.41333,9.92786l17.63184-9.80395S246.8161,165.83279,241.291,162.62619Z" fill="#97cff2" fill-rule="evenodd"/><path d="M116.70605,168.86526a15.07337,15.07337,0,0,0-.29394,2.86035.48983.48983,0,0,1-.06842.25629l-.92853-.537a16.596,16.596,0,0,1,.30847-2.7691.50026.50026,0,0,1,.98242.18945Zm6.48554-64.7702-5.08887-2.95313a.50015.50015,0,0,0-.502.86524l5.08887,2.95312a.50014.50014,0,0,0,.502-.86523ZM142.833,148.18655l-5.05664,2.8125a.49968.49968,0,1,0,.48633.873l5.05664-2.8125a.49968.49968,0,0,0-.48633-.873Zm-10.11328,5.624-5.05762,2.8125a.49968.49968,0,1,0,.48633.873l5.05761-2.8125a.49968.49968,0,1,0-.48632-.873Zm-19.7049-55.62177L107.926,95.23568a.50015.50015,0,0,0-.502.86524l5.08887,2.95312a.50014.50014,0,0,0,.502-.86523Zm20.35352,11.8125-5.08789-2.95313a.50015.50015,0,0,0-.502.86524l5.08789,2.95312a.50015.50015,0,1,0,.502-.86523Zm24.9414,15.63184,3.80933,2.21057,1.0177-.56592-4.32507-2.50989a.50015.50015,0,1,0-.502.86524Zm23.60346,1.96612,1.86218-1.03577a.49968.49968,0,1,0-.48633-.873l-2.382,1.32483ZM102.8371,92.28158l-5.08887-2.95312a.50014.50014,0,1,0-.502.86523l5.08886,2.95313a.50015.50015,0,1,0,.502-.86524Zm85.75274,31.53388a.49694.49694,0,0,0,.24317-.06348l5.05664-2.8125a.49968.49968,0,1,0-.48633-.87305l-5.05664,2.8125a.49992.49992,0,0,0,.24316.93653Zm-45.04376-7.90692-5.08887-2.95411a.50015.50015,0,0,0-.50195.86524l5.08887,2.9541a.50014.50014,0,1,0,.50195-.86523ZM92.66034,86.37533l-5.08887-2.95312a.50014.50014,0,1,0-.502.86523l5.08887,2.95313a.50015.50015,0,0,0,.502-.86524ZM82.4826,80.46908l-2.36041-1.36987-.92456.5163a.48627.48627,0,0,0,.1883.213l2.59472,1.50586a.50015.50015,0,1,0,.502-.86524ZM148.133,119.7269l5.08789,2.95312a.50014.50014,0,1,0,.50195-.86523l-5.08789-2.95313a.50015.50015,0,1,0-.50195.86524Zm-25.52753,39.7077-1.34863.75a9.929,9.929,0,0,0-3.28321,2.96973.49939.49939,0,1,0,.81446.57812,8.9802,8.9802,0,0,1,2.95507-2.6748l1.34864-.75a.49968.49968,0,0,0-.48633-.87305ZM234.53906,97.7637a.49924.49924,0,0,0-.67968-.19336l-5.05665,2.8125a.49968.49968,0,1,0,.48633.873l5.05664-2.8125A.499.499,0,0,0,234.53906,97.7637Zm-10.30761,6.30371a.49968.49968,0,0,0-.48633-.873l-5.05664,2.8125a.49968.49968,0,1,0,.48632.873Zm.73162,59.09308-5.08789-2.95313a.50015.50015,0,0,0-.50195.86524l5.08789,2.95312a.50014.50014,0,1,0,.50195-.86523Zm7.71387,4.51074-2.625-1.55762a.50015.50015,0,0,0-.50195.86524l2.35547,1.36719.13379.10644a11.9128,11.9128,0,0,1,2.24023,1.75195.5.5,0,0,0,.71094-.70312A12.812,12.812,0,0,0,232.67694,167.67123ZM250.68268,88.215l-1.65241.91883a.49968.49968,0,1,0,.48633.873l2.17145-1.20745ZM237.2619,174.48764a.50125.50125,0,0,0-.3789.59765,14.8052,14.8052,0,0,1,.331,2.88086.48535.48535,0,0,0,.06641.22528l.916-.50933a15.7048,15.7048,0,0,0-.33691-2.81556A.50038.50038,0,0,0,237.2619,174.48764Zm6.71173-82.54132-5.05664,2.8125a.49968.49968,0,1,0,.48633.873l5.05664-2.8125a.49968.49968,0,1,0-.48633-.873Zm-39.96972,23.36914a.49968.49968,0,1,0-.48633-.87305l-5.05664,2.8125a.49968.49968,0,1,0,.48633.87305Zm-19.74884,24.21905-1.80951-1.05011-1.0177.566,2.32525,1.34937a.50015.50015,0,0,0,.502-.86524Zm-22.657-1.782-3.59314,1.99847a.49968.49968,0,1,0,.48633.87305l4.113-2.2876Zm32.8338,7.68823-5.08886-2.95312a.50015.50015,0,1,0-.502.86523l5.08887,2.95313a.50015.50015,0,0,0,.50195-.86524Zm-41.48455-2.87823-5.05665,2.8125a.49968.49968,0,1,0,.48633.873l5.05664-2.8125a.49968.49968,0,0,0-.48632-.873Zm61.839,14.69171-5.08887-2.95313a.50015.50015,0,1,0-.50195.86524l5.08886,2.95312a.50015.50015,0,1,0,.502-.86523Zm-.66816-47.56281a.49968.49968,0,1,0-.48632-.873l-5.05762,2.8125a.49968.49968,0,1,0,.48633.873ZM204.60858,151.347l-5.08789-2.95312a.50014.50014,0,0,0-.50195.86523l5.08789,2.95313a.50015.50015,0,0,0,.50195-.86524Z" fill="#fff"/><path d="M163.63446,127.5668l-9.505,5.2854-1.00684-.58435.52081-.28961,8.98419-4.99579Zm18.79822-.25659-8.97229-5.20728-1.01746.56574,8.97235,5.20733Zm8.32367,5.98712-9.82617,5.46405,1.00683.58435,9.30536-5.17444.52081-.28961Zm-29.67774,4.7442,10.34693,6.00507,1.01739-.56574L162.096,137.4758Z" fill="#fff"/></g><g opacity="0.75"><polygon points="125.431 87.314 129.097 30.757 138.86 25.422 140.528 26.32 143.369 79.25 127.151 88.324 125.431 87.314" fill="#fff"/><path d="M138.86224,25.99112l1.18161.63623L142.85306,78.966,127.15729,87.7479,125.95,87.03947l3.62735-55.97525,9.28488-5.0731m-.00351-1.13762-10.24371,5.597L124.91223,87.59l2.23322,1.31046L143.885,79.53453l-2.87268-53.52146-2.1536-1.15957Z" fill="#97cff2"/><polygon points="127.649 88.606 127.649 26.948 143.957 18.001 152.723 23.292 152.723 84.681 136.488 93.764 127.649 88.606" fill="#fff"/><path d="M143.94467,18.57834l8.27811,4.9953V84.38757L136.49362,93.1881l-8.34439-4.86879v-61.075l15.79544-8.666m.02374-1.15363-16.81918,9.22765V88.89362l9.334,5.44619,16.73956-9.36587V23.00912l-9.25437-5.58441Z" fill="#97cff2"/><polygon points="137.002 94.048 140.667 37.491 150.432 32.156 152.099 33.054 154.94 85.984 138.723 95.058 137.002 94.048" fill="#fff"/><path d="M150.43323,32.7245l1.18161.63623L154.424,85.69941l-15.69574,8.78187-1.20727-.70844,3.62735-55.97523,9.28488-5.07311m-.00348-1.13763-10.24375,5.597-3.70278,57.13946,2.23321,1.31045L155.456,86.26791l-2.87268-53.52146-2.15356-1.15958Z" fill="#97cff2"/><polygon points="145.146 39.835 150.353 37.125 150.353 40.766 145.146 43.465 145.146 39.835" fill="#fff"/><path d="M149.85226,37.94931v2.513l-4.20642,2.18091V40.13818l4.20642-2.18887m1-1.64766-6.20642,3.22959v4.75687l6.20642-3.21785V36.30165Z" fill="#97cff2"/></g><g opacity="0.75"><polygon points="156.047 102.65 156.047 95.504 182.686 80.889 197.137 89.609 197.137 96.316 170.619 111.153 156.047 102.65" fill="#fff"/><path d="M182.67352,81.46623l13.96289,8.42568V96.023l-26.012,14.55378-14.07794-8.21425v-6.562l26.127-14.33434m.02375-1.15363-27.15076,14.896v7.72823l15.06756,8.79167,27.02234-15.11911v-7.282L182.69727,80.3126Z" fill="#97cff2"/><polygon points="160.297 92.582 160.297 49.035 181.864 37.203 193.524 44.239 193.524 87.431 172.055 99.443 160.297 92.582" fill="#fff"/><path d="M181.85205,37.77959l11.17206,6.74159V87.13757L172.0603,98.86691l-11.26318-6.57186V49.33115l21.05493-11.55156m.02374-1.15364L159.79712,48.73917V92.86935l12.25281,7.14927,21.97418-12.29468V43.95666L181.87579,36.626Z" fill="#97cff2"/><polygon points="163.278 50.113 163.278 30.855 185.218 19.674 191.128 23.147 191.128 42.054 169.282 53.417 163.278 50.113" fill="#fff"/><path d="M185.20007,20.24435,190.6275,23.433V41.75082L169.28888,52.84949l-5.51105-3.03178V31.16159l21.42224-10.91724m.03412-1.13976L162.77783,30.54884V50.40892l6.4978,3.57463L191.6275,42.35787V22.86067l-6.39331-3.75608Z" fill="#97cff2"/><polygon points="180.574 21.409 180.574 12.191 185.039 10.014 191.128 13.527 191.128 22.574 186.707 24.835 180.574 21.409" fill="#fff"/><path d="M185.019,10.57942l5.60846,3.23622V22.268l-3.91058,2-5.64227-3.15267v-8.6116l3.94439-1.92427m.03931-1.13184-4.9837,2.43131v9.82317l6.62139,3.69976,4.93146-2.52208V13.23812l-6.56915-3.79054Z" fill="#97cff2"/><polygon points="183.537 13.439 183.537 4.244 188.006 2.063 189.015 2.624 189.015 11.666 184.576 13.936 183.537 13.439" fill="#fff"/><path d="M187.991,2.62719l.52417.291v8.44122l-3.9466,2.0184-.53155-.25387V4.55611l3.954-1.92892M188.02075,1.5,183.037,3.93131v9.82317l1.54669.73874,4.93146-2.52209V2.32951L188.02075,1.5Z" fill="#97cff2"/></g><g opacity="0.75"><polygon points="234.046 116.832 234.046 74.182 251.419 64.522 268.614 74.502 268.614 116.512 251.419 126.492 234.046 116.832" fill="#fff"/><path d="M251.41309,65.0969l16.7008,9.69264v41.43512l-16.7008,9.69264L234.5459,116.538V74.47621l16.86719-9.37931m.01056-1.15008L233.5459,73.88808v43.238l17.87775,9.94127,17.69024-10.26688V74.21371L251.42365,63.94682Z" fill="#97cff2"/></g><g opacity="0.75"><polygon points="204.176 133.166 204.176 98.516 221.549 88.855 238.744 98.835 238.744 132.846 221.549 142.826 204.176 133.166" fill="#fff"/><path d="M221.54321,89.43058,238.244,99.12323v33.43511L221.54321,142.251,204.676,132.87167V98.8099l16.86725-9.37932m.01056-1.15008L203.676,98.22176v35.23805l17.87781,9.94127,17.69019-10.2669V98.54739L221.55377,88.2805Z" fill="#97cff2"/></g><g opacity="0.75"><polygon points="234.176 148.166 234.176 127.516 251.549 117.855 268.744 127.835 268.744 147.846 251.549 157.826 234.176 148.166" fill="#fff"/><path d="M251.54321,118.43058l16.70075,9.69265v19.4351L251.54321,157.251,234.676,147.87167V127.8099l16.86725-9.37932m.01056-1.15008L233.676,127.22176v21.23805l17.87781,9.94127L269.244,148.13417V127.54739L251.55377,117.2805Z" fill="#97cff2"/></g><g opacity="0.75"><polygon points="165.973 108.579 167.267 109.298 167.267 113.918 165.224 115.103 163.91 114.399 163.91 109.779 165.973 108.579" fill="#fff" stroke="#97cff2" stroke-miterlimit="10"/><polyline points="168.721 106.976 150.25 117.22 150.25 133.031" fill="none" stroke="#97cff2" stroke-linecap="round" stroke-linejoin="round" stroke-width="2"/><polygon points="187.203 113.579 185.91 114.298 185.91 118.918 187.952 120.103 189.267 119.399 189.267 114.779 187.203 113.579" fill="#fff" stroke="#97cff2" stroke-miterlimit="10"/><polyline points="190.756 115.648 172.443 104.959 172.443 120.77" fill="none" stroke="#97cff2" stroke-linecap="round" stroke-linejoin="round" stroke-width="2"/></g><g opacity="0.75"><path d="M69.56191,96.99643l.91667,7.20833,1.20067-.98876" fill="none" stroke="#97cff2" stroke-linecap="round" stroke-linejoin="round" fill-rule="evenodd"/><path d="M65.18555,104.64551a3.78457,3.78457,0,0,1-2.37891-.68653l-1.92871-3.34326h8.33789l-1.667,3.356A3.80136,3.80136,0,0,1,65.18555,104.64551Z" fill="#fff"/><path d="M68.40948,101.11575l-1.25759,2.53132a3.4552,3.4552,0,0,1-1.96668.49822,3.404,3.404,0,0,1-1.99286-.51742L61.743,101.11575h6.66644m1.61344-1H60.01163l2.40716,4.17237h.00507a4.8763,4.8763,0,0,0,5.52264,0H67.95l.00189-.00385.00123-.00085v-.00158l2.06976-4.16609Z" fill="#97cff2"/><path d="M65.01758,102.79785a5.0412,5.0412,0,0,1-5.03613-5.03564V80.9375a5.03564,5.03564,0,1,1,10.07128,0V97.76221A5.041,5.041,0,0,1,65.01758,102.79785Z" fill="#fff"/><path d="M65.01712,76.4017A4.541,4.541,0,0,1,69.553,80.93752V97.76225a4.53583,4.53583,0,1,1-9.07166,0V80.93752a4.541,4.541,0,0,1,4.53583-4.53582m0-1h0a5.55209,5.55209,0,0,0-5.5358,5.53582V97.76225a5.55209,5.55209,0,0,0,5.5358,5.53583h0A5.5521,5.5521,0,0,0,70.553,97.76225V80.93752a5.5521,5.5521,0,0,0-5.53583-5.53582Z" fill="#97cff2"/><path d="M65.01711,97.99643c-3.05731,0-5.53583-1.23059-5.53583-2.74866v2.04272a8.35515,8.35515,0,0,0,5.53583,1.70594,8.3551,8.3551,0,0,0,5.53582-1.70594V95.24777C70.55293,96.76584,68.07448,97.99643,65.01711,97.99643Z" fill="#97cff2"/><path d="M64.18691,100.99643l-.91667,7.20833-.70833.75m-4-2,.70833-.75.91667-7.20833" fill="none" stroke="#97cff2" stroke-linecap="round" stroke-miterlimit="10" fill-rule="evenodd"/><path d="M56.58063,102.99643l.91667,7.20833L58.698,109.216" fill="none" stroke="#97cff2" stroke-linecap="round" stroke-linejoin="round" fill-rule="evenodd"/><path d="M52.2041,110.64551a3.78452,3.78452,0,0,1-2.3789-.68653l-1.92872-3.34326h8.33887l-1.668,3.356A3.80136,3.80136,0,0,1,52.2041,110.64551Z" fill="#fff"/><path d="M55.42819,107.11575l-1.2576,2.53132a3.45514,3.45514,0,0,1-1.96667.49822,3.404,3.404,0,0,1-1.99286-.51742l-1.44931-2.51212h6.66644m1.61344-1H47.03033l2.40717,4.17237h.00507a4.8763,4.8763,0,0,0,5.52264,0h.00354l.00189-.00385.00122-.00085v-.00158l2.06977-4.16609Z" fill="#97cff2"/><path d="M52.03613,108.79785A5.0412,5.0412,0,0,1,47,103.76221V86.9375a5.03565,5.03565,0,0,1,10.07129,0v16.82471A5.041,5.041,0,0,1,52.03613,108.79785Z" fill="#fff"/><path d="M52.03583,82.4017a4.541,4.541,0,0,1,4.53583,4.53582v16.82473a4.53583,4.53583,0,0,1-9.07166,0V86.93752a4.541,4.541,0,0,1,4.53583-4.53582m0-1A5.5521,5.5521,0,0,0,46.5,86.93752v16.82473a5.53583,5.53583,0,0,0,11.07166,0V86.93752a5.5521,5.5521,0,0,0-5.53583-5.53582Z" fill="#97cff2"/><path d="M52.03583,103.99643c-3.05731,0-5.53583-1.23059-5.53583-2.74866v2.04272a8.35515,8.35515,0,0,0,5.53583,1.70594,8.35515,8.35515,0,0,0,5.53583-1.70594v-2.04272C57.57166,102.76584,55.0932,103.99643,52.03583,103.99643Z" fill="#97cff2"/><path d="M51.20563,106.99643l-.91667,7.20833-.70833.75m-4-2,.70833-.75.91667-7.20833" fill="none" stroke="#97cff2" stroke-linecap="round" stroke-miterlimit="10" fill-rule="evenodd"/><polygon points="57.582 119.905 57.582 108.4 130.771 116.751 130.771 128.224 119.705 134.399 119.705 122.359 111.755 126.796 111.755 138.835 100.497 145.118 57.582 119.905" fill="#fff"/><path d="M58.0816,108.961l72.18982,8.236v10.73306L120.205,133.54769V121.50708l-1.48737.83016-6.94965,3.87891-.51263.28613V138.542l-10.75192,6.00012L58.0816,119.6191V108.961m-1-1.12058v12.351l43.409,25.503,11.76471-6.56531v-12.0398l6.94965-3.87891v12.036l-.777.438,12.84344-7.1673V116.30462L57.0816,107.84045Z" fill="#97cff2"/><path d="M93.7041,137.11377v-4.13818l1.918,1.13086v4.13427Zm-7.52344-4.35107v-4.13819l1.918,1.13086v4.13428Zm-6.043-3.63282V124.9917l1.91894,1.13086v4.13428Zm-6.2295-3.66308v-4.13819l1.918,1.13086v4.13428Zm-6.543-3.7959v-4.1377l1.918,1.13086v4.13379ZM61.041,117.88281v-4.13769l1.918,1.13086v4.13379Z" fill="#fff"/><path d="M61.5408,114.62016l.9184.54139v2.97482l-.9184-.53957v-2.97664m6.3245,3.78817.91839.54138v2.97481l-.91839-.53956v-2.97663m6.54287,3.79544.9184.54139V125.72l-.9184-.53957v-2.97664m6.22989,3.66317.9184.54139v2.9748l-.9184-.53956v-2.97663m6.04245,3.63295.9184.54139v2.9748l-.9184-.53956v-2.97663m7.52341,4.35092.91839.5414V137.367l-.91839-.53956v-2.97663M60.5408,112.86986v5.29925l2.9184,1.71456v-5.29344l-2.9184-1.72037Zm6.3245,3.78816v5.29924l2.91839,1.71458v-5.29345L66.8653,116.658Zm6.54287,3.79545v5.29925l2.9184,1.71457v-5.29345l-2.9184-1.72037Zm6.22989,3.66316v5.29924l2.9184,1.71458V125.837l-2.9184-1.72037Zm6.04245,3.63294v5.29925l2.9184,1.71458V129.47l-2.9184-1.72038Zm7.52341,4.35093v5.29925l2.91839,1.71457v-5.29344l-2.91839-1.72038Z" fill="#97cff2"/><polygon points="57.907 107.744 72.5 93.811 87.768 91.324 129.784 116.011 115.117 118.095 100.412 132.626 57.907 107.744" fill="#fff"/><path d="M87.66949,91.84665l40.62793,23.87047-13.08664,1.85929-.32717.04648-.23505.23227-14.315,14.14545-41.60187-24.353,14.0018-13.36793,14.936-2.43307m.19544-1.045L72.267,93.34253,57.0816,107.84046l43.409,25.41082,14.86084-14.68481,15.92-2.26184-43.40649-25.503Z" fill="#97cff2"/><path d="M82.03265,94.34256V81.258H82.383c0,.26538.37648.48051.84088.48051s.84086-.21513.84086-.48051h.35037v12.6343A1.71126,1.71126,0,0,1,82.03265,94.34256Z" fill="#fff" stroke="#97cff2" stroke-miterlimit="10"/><path d="M83.22387,80.8317c.412,0,.746.19086.746.42629s-.334.42628-.746.42628-.746-.19085-.746-.42628.334-.42629.746-.42629m0-.25441c-.65683,0-1.19122.30536-1.19122.6807s.53439.6807,1.19122.6807,1.19123-.30536,1.19123-.6807-.53439-.6807-1.19123-.6807Z" fill="#fff" stroke="#97cff2" stroke-miterlimit="10"/></g></svg>