<svg xmlns="http://www.w3.org/2000/svg" xmlns:xlink="http://www.w3.org/1999/xlink" viewBox="0 0 340 340"><defs><linearGradient id="a" x1="100.9234" y1="178.44416" x2="327.72866" y2="178.44416" gradientUnits="userSpaceOnUse"><stop offset="0.48" stop-color="#dce0e3"/><stop offset="0.52" stop-color="#c7ccd1"/></linearGradient><linearGradient id="b" x1="208.04492" y1="207.70514" x2="262.0791" y2="207.70514" gradientUnits="userSpaceOnUse"><stop offset="0" stop-opacity="0"/><stop offset="0.28" stop-color="#231f20"/></linearGradient><linearGradient id="c" x1="136.92456" y1="134.86248" x2="125.85677" y2="190.78394" gradientUnits="userSpaceOnUse"><stop offset="0" stop-color="#f7706c"/><stop offset="1" stop-color="#a85353"/></linearGradient><linearGradient id="d" x1="120.35866" y1="171.01037" x2="113.36848" y2="228.09686" gradientUnits="userSpaceOnUse"><stop offset="0" stop-color="#0073ba"/><stop offset="0.60714" stop-color="#00609a"/><stop offset="1" stop-color="#00568b"/></linearGradient><linearGradient id="e" x1="103.26284" y1="143.37891" x2="101.32113" y2="196.97031" gradientUnits="userSpaceOnUse"><stop offset="0" stop-color="#ffc335"/><stop offset="1" stop-color="#dfac32"/></linearGradient><linearGradient id="f" x1="89.69731" y1="160.5818" x2="76.29946" y2="259.02688" gradientUnits="userSpaceOnUse"><stop offset="0" stop-color="#a3779f"/><stop offset="1" stop-color="#4f3b4c"/></linearGradient></defs><title>Illustrations</title><path d="M327.7251,87.94116a7.94967,7.94967,0,0,0-.38391-2.20355l-226.3866,2.41272c-.03955.63092-.03821,1.28-.01428,1.94617V203.79175c.24475,4.39221,2.0271,8.05041,7.54944,11.19592l91.26843,51.98377c9.16882,5.21929,22.986,5.60376,30.85.85046l92.6316-55.92151A8.472,8.472,0,0,0,327.7251,203.85Z" fill-rule="evenodd" fill="url(#a)"/><path d="M326.40212,83.32867a17.07714,17.07714,0,0,0-6.2641-5.7038l-90.95715-51.9917c-9.1323-5.22563-22.88612-5.60988-30.73324-.85386L106.17128,80.66462c-4.247,2.57868-5.88114,6.13073-5.03,9.67428a9.18407,9.18407,0,0,0,1.10642,2.67259,17.00556,17.00556,0,0,0,6.26414,5.7038l90.94864,52.00019c9.1323,5.21714,22.89458,5.60134,30.73324.85386L322.47,95.68409a10.93071,10.93071,0,0,0,4.71514-5.10614A7.96613,7.96613,0,0,0,326.40212,83.32867Z" fill="#eef0f3"/><path d="M260.11008,207.95493a3.93779,3.93779,0,0,0-1.93385-.51261,3.874,3.874,0,0,0-1.98049.54753l-25.28125,14.00369v-66.4883a3.88681,3.88681,0,0,0-1.899-3.34363l-38.95855-21.55307a3.84817,3.84817,0,0,0-1.9923-.55919,3.91817,3.91817,0,0,0-3.90282,3.90283V155.6567l23.88312,13.86389V259.3095l5.697,3.36688a3.87459,3.87459,0,0,0,1.98063.5476,3.94837,3.94837,0,0,0,1.99216-.5476l42.4653-25.29277a3.8868,3.8868,0,0,0,1.899-3.34363V211.34514A3.89671,3.89671,0,0,0,260.11008,207.95493ZM215.32638,90.84605a16.55511,16.55511,0,1,0,16.555,16.55511A16.552,16.552,0,0,0,215.32638,90.84605Z" fill="#848688"/><path d="M260.11011,207.9549a3.93812,3.93812,0,0,0-1.93384-.51258,3.874,3.874,0,0,0-1.98047.54749l-25.28125,14.00372V155.50525a3.88536,3.88536,0,0,0-1.863-3.31891c-5.62085,2.86975-13.68469,3.42456-21.00659,1.76794V259.30951l5.697,3.36688a3.875,3.875,0,0,0,1.98072.54755,3.94835,3.94835,0,0,0,1.99206-.54755l42.46533-25.29278a3.88706,3.88706,0,0,0,1.899-3.34363V211.34515A3.89682,3.89682,0,0,0,260.11011,207.9549Z" opacity="0.1" fill="url(#b)"/><path d="M199.46045,150.71545l-15.29858-8.74707v-8.01623a3.88651,3.88651,0,0,1,5.895-3.34363l38.95862,21.5531c.01258.00751.02356.01709.036.02472C221.074,156.25922,208.16846,155.69025,199.46045,150.71545Zm15.866-26.75921a16.55512,16.55512,0,1,0-16.55506-16.55512A16.55193,16.55193,0,0,0,215.32642,123.95624Z" fill="#fff" opacity="0.3"/><polygon points="208.045 167.482 208.045 259.135 109.017 203.598 109.017 110.011 184.162 153.618 208.045 167.482" fill="#2a2f34" fill-rule="evenodd"/><polygon points="14.75 249.102 103.483 197.19 103.483 119.133 14.75 166.676 14.75 249.102" fill="#b0b3b6" fill-rule="evenodd"/><polygon points="185.036 119.809 185.036 221.562 86.008 166.025 86.008 62.338 119.211 81.607 185.036 119.809" fill-rule="evenodd" fill="url(#c)"/><polygon points="173.385 135.658 173.385 219.455 91.833 173.718 91.833 88.329 119.177 104.198 173.385 135.658" fill="#fcc6c4" fill-rule="evenodd" opacity="0.46"/><path d="M91.61954,81.38605q.01-.55333.32994-.64009a1.29693,1.29693,0,0,1,.92145.28881,2.78953,2.78953,0,0,1,.89357.851,1.81358,1.81358,0,0,1,.30321,1.0287q-.00944.52041-.33663.61925a1.18955,1.18955,0,0,1-.90077-.25924,2.82149,2.82149,0,0,1-.904-.86084A1.81516,1.81516,0,0,1,91.61954,81.38605Zm13.1102,4.17433q-.04313,2.378-1.5035,2.74542t-4.17435-1.327L96.156,85.17091l.17469-9.63075,3.21061,2.00442a12.15309,12.15309,0,0,1,3.86652,3.673A7.64187,7.64187,0,0,1,104.72974,85.56038Zm-2.25327-1.35345a5.43289,5.43289,0,0,0-2.85355-4.91929l-1.15414-.72054L98.355,84.83828l.9303.5808Q102.419,87.37547,102.47647,84.20693Zm8.26388,4.59963,4.057,2.53281-.09057,4.99323a13.86547,13.86547,0,0,1-1.86482-.73453,18.90072,18.90072,0,0,1-1.78238-.98952,10.24933,10.24933,0,0,1-3.51263-3.48872,8.321,8.321,0,0,1-1.15385-4.44107q.0423-2.33193,1.4824-2.75194t3.95123,1.14773a15.96545,15.96545,0,0,1,3.025,2.4881l-.7501,1.18388a11.042,11.042,0,0,0-2.3197-1.98117,2.5592,2.5592,0,0,0-2.26845-.51685q-.8625.3609-.88974,1.86282a5.67988,5.67988,0,0,0,.63855,2.82028,5.42705,5.42705,0,0,0,1.968,2.06474,10.52831,10.52831,0,0,0,1.38036.72853l.03644-2.00915-1.93755-1.20963Zm15.46529,15.12462-2.75594-1.72056-4.31653-10.063-.063-.0393q.09789,2.01306.083,2.83649l-.08221,4.53212-1.93755-1.20964.17469-9.63074,2.735,1.70746,4.31085,9.98617.049.03057q-.07087-1.9429-.05677-2.72022l.08269-4.55846,1.95154,1.21837Z" fill="#fff"/><polygon points="167.463 168.546 167.463 270.3 68.435 214.763 68.435 111.075 101.639 130.344 167.463 168.546" fill-rule="evenodd" fill="url(#d)"/><path d="M72.78763,129.5988q0-.57341.30719-.68229a1.15454,1.15454,0,0,1,.89425.244,2.609,2.609,0,0,1,.87719.82765,1.91183,1.91183,0,0,1,.3106,1.04683q0,.53928-.314.66112a1.0601,1.0601,0,0,1-.87378-.21464,2.63879,2.63879,0,0,1-.88742-.83721A1.91233,1.91233,0,0,1,72.78763,129.5988Zm6.56013,1.09v3.82958l-2.11617-1.27206v-9.98013l2.908,1.74806A10.19833,10.19833,0,0,1,83.15,127.5645a4.7008,4.7008,0,0,1,.97617,2.83607,1.55136,1.55136,0,0,1-.48467,1.27531,1.67251,1.67251,0,0,1-1.37209.25036q2.25268,4.71952,2.93533,6.11286l-2.34827-1.41158-2.38239-5.26168Zm0-1.72024.68263.41034a2.85581,2.85581,0,0,0,1.48132.55595q.47784-.04725.47785-.764a2.00757,2.00757,0,0,0-.48809-1.30369,5.86663,5.86663,0,0,0-1.512-1.20927l-.64167-.38572ZM92.154,132.23626l2.13665,1.28437-3.3927,7.94072-2.3073-1.387L85.20477,128.059l2.13664,1.28438,1.87725,7.06736q.157.62.32425,1.42024t.20821,1.09791a11.52872,11.52872,0,0,1,.512-1.89032Zm7.24276,14.33386-2.11617-1.27207v-8.21892l-2.71006-1.62906v-1.7612l7.53629,4.53018v1.7612l-2.71006-1.62906Z" fill="#fff"/><polygon points="150.57 182.138 150.57 283.892 51.543 228.355 51.543 124.667 84.746 143.936 150.57 182.138" fill-rule="evenodd" fill="url(#e)"/><path d="M56.15625,142.85205q.00587-.61156.29492-.75146.28857-.13844.83692.19238a2.28853,2.28853,0,0,1,.81543.81543,2.09756,2.09756,0,0,1,.28125,1.09228c-.00293.3833-.10352.626-.29981.729q-.29589.15381-.81836-.16211a2.31,2.31,0,0,1-.82519-.82471A2.10684,2.10684,0,0,1,56.15625,142.85205Zm11.9082,2.79932q-.022,2.62793-1.34375,3.23437-1.31982.60571-3.791-.88916L60.293,146.40137l.09277-10.64258,2.92383,1.76855a9.96982,9.96982,0,0,1,3.52734,3.51856A8.82219,8.82219,0,0,1,68.06445,145.65137Zm-2.05078-1.18164a5.39543,5.39543,0,0,0-2.61914-5.03125l-1.05078-.63575-.06055,6.92969.84668.5127Q65.98341,147.97071,66.01367,144.46973Zm13.00195,13.25976-2.249-1.36084-1.21191-6.353q-.06885-.3413-.22754-1.3789-.16113-1.03711-.1836-1.37256c-.02832.24658-.09472.62891-.20214,1.147q-.16115.77784-.24707,1.09864l-1.30176,4.81738-2.24219-1.35645-2.28223-12.08008,1.94239,1.17579,1.13965,6.52929q.29736,1.7981.42773,3.06153c.02832-.26172.08984-.6543.1875-1.17823a11.31375,11.31375,0,0,1,.26855-1.19482l1.40918-5.14063,1.86524,1.12891,1.30469,6.78223q.085.45409.21191,1.35791.12744.90308.19141,1.53467.06883-.52809.21679-1.292.14649-.76318.2666-1.21777l1.23438-5.09277,1.94238,1.17578Zm7.126-1.69629,3.69336,2.23535-.04785,5.51758a9.72587,9.72587,0,0,1-1.69434-.55371,13.69834,13.69834,0,0,1-1.62109-.8457,8.53417,8.53417,0,0,1-3.208-3.36328,9.84283,9.84283,0,0,1-1.07617-4.73828q.02343-2.57667,1.3252-3.23828,1.30224-.66064,3.58789.72265a12.50426,12.50426,0,0,1,2.75879,2.32813l-.67188,1.40771a8.74515,8.74515,0,0,0-2.11523-1.86523q-1.28175-.7749-2.05957-.2583a2.493,2.493,0,0,0-.79395,2.17627,6.83528,6.83528,0,0,0,.59766,3.02148,4.58964,4.58964,0,0,0,1.79785,2.00586,7.53522,7.53522,0,0,0,1.25683.61377l.01856-2.22022L86.125,157.91162Z" fill="#fff"/><polygon points="131.93 191.943 131.93 293.697 32.902 238.16 32.902 134.473 66.105 153.742 131.93 191.943" fill-rule="evenodd" fill="url(#f)"/><path d="M37.51562,153.72607q.00587-.61156.29493-.75146.28857-.13915.83691.19141a2.29093,2.29093,0,0,1,.81543.8164,2.08533,2.08533,0,0,1,.28125,1.0918c-.00293.38379-.10352.62646-.2998.72949q-.29737.15381-.81836-.16211a2.30736,2.30736,0,0,1-.8252-.82519A2.104,2.104,0,0,1,37.51562,153.72607Zm4.13672,3.54883.09278-10.64258,1.97461,1.19483L43.627,158.46973Zm6.26075,3.78809-1.94336-1.17529.09277-10.64258,5.33691,3.229-.0166,1.84912-3.39355-2.05371-.02344,2.74414,3.1582,1.91113-.0166,1.8418-3.1582-1.91113Zm9.24609-3.36963q-1.11474-.67383-1.7334-.08643a3.21959,3.21959,0,0,0-.63476,2.29786q-.03077,3.55883,2.30566,4.97363a7.41026,7.41026,0,0,0,2.37988.87646l-.01562,1.89258a6.72864,6.72864,0,0,1-2.56446-1.00293,8.1678,8.1678,0,0,1-3.0957-3.28808,9.90473,9.90473,0,0,1-1.041-4.69532,5.27666,5.27666,0,0,1,.55371-2.58789,1.84243,1.84243,0,0,1,1.53515-.99609,4.11791,4.11791,0,0,1,2.32715.73828,11.695,11.695,0,0,1,2.71973,2.39941l-.65332,1.44825q-.51857-.5984-1.04688-1.12989A5.465,5.465,0,0,0,57.15918,157.69336Z" fill="#fff"/><polygon points="116.881 303.611 208.045 250.31 208.045 176.802 116.881 225.733 116.881 303.611" fill="#b0b3b6" fill-rule="evenodd"/><polygon points="201.88 253.915 208.045 250.31 208.045 176.802 201.88 180.111 201.88 253.915" fill-rule="evenodd" opacity="0.1"/><polygon points="12.271 159.322 17.322 156.667 117.512 214.855 117.512 315.638 111.59 318.348 12.271 263.009 12.271 159.322" fill="#c7ccd1" fill-rule="evenodd"/><polygon points="12.271 159.327 12.271 263.014 111.299 318.551 111.299 216.797 71.001 193.41 71.001 206.704 48.783 194.244 48.783 180.516 12.271 159.327" fill="#dce0e3" fill-rule="evenodd"/><polygon points="67.659 191.521 67.659 200.422 52.125 191.71 52.125 182.506 57.333 185.529 67.659 191.521" fill="#2a2f34" fill-rule="evenodd"/><polygon points="111.347 216.704 117.512 214.855 17.322 156.667 12.271 159.327 111.347 216.704" fill="#eef0f3" fill-rule="evenodd"/><path d="M87.46429,202.84043v.8272a3.87252,3.87252,0,0,0,1.91067,3.34363l13.67744,8.71441v53.4516L77.77116,255.17365a3.94732,3.94732,0,0,0-1.99216-.5476,3.90243,3.90243,0,0,0-3.89116,3.9029V280.979a3.89158,3.89158,0,0,0,1.91066,3.3553l37.54891,22.1589V216.70432Z" fill="#848688"/></svg>