<svg xmlns="http://www.w3.org/2000/svg" xmlns:xlink="http://www.w3.org/1999/xlink" viewBox="0 0 340 340"><defs><linearGradient id="a" x1="118.75966" y1="11.87946" x2="118.75966" y2="268.58414" gradientUnits="userSpaceOnUse"><stop offset="0" stop-color="#eef0f3"/><stop offset="0.68801" stop-color="#dce0e3"/></linearGradient><linearGradient id="b" x1="140.71981" y1="38.91694" x2="140.71981" y2="266.91694" gradientUnits="userSpaceOnUse"><stop offset="0" stop-color="#2a2f34"/><stop offset="1" stop-color="#070809"/></linearGradient><linearGradient id="c" x1="140.29739" y1="40.31592" x2="140.29739" y2="264.98963" gradientUnits="userSpaceOnUse"><stop offset="0.357" stop-color="#dce0e3"/><stop offset="1" stop-color="#eef0f3"/></linearGradient><linearGradient id="d" x1="110.75547" y1="229.71372" x2="223.38858" y2="294.74247" gradientUnits="userSpaceOnUse"><stop offset="0.13141" stop-color="#56aa1c"/><stop offset="0.60066" stop-color="#008be1"/></linearGradient><linearGradient id="e" x1="238.32046" y1="90.93599" x2="238.32046" y2="328.12054" xlink:href="#a"/><linearGradient id="f" x1="243.1765" y1="98.07184" x2="243.1765" y2="326.07184" gradientUnits="userSpaceOnUse"><stop offset="0" stop-color="#7fccc5"/><stop offset="1" stop-color="#388ecc"/></linearGradient><linearGradient id="g" x1="239.68555" y1="102.36432" x2="239.68555" y2="319.54608" gradientUnits="userSpaceOnUse"><stop offset="0" stop-color="#fff"/><stop offset="1" stop-color="#fff" stop-opacity="0"/></linearGradient><linearGradient id="h" x1="242.46638" y1="99.73499" x2="242.46638" y2="324.40869" xlink:href="#c"/></defs><title>Illustrations</title><path d="M207.85363,37.82345,166.27575,13.755c-4.5515-2.41308-9.29971-2.84571-15.79588.7877L43.11915,74.59151C32.33845,80.62121,23.599,94.23819,23.599,105.00576v126.7226c0,4.9425,1.84505,8.42033,4.88,10.15919h0l43.92029,25.42789h0c3.57687,2.04923,8.80794,1.68114,14.6401-1.5808l107.36071-60.0488c10.78071-6.02971,19.52013-19.64662,19.52013-30.41425V48.549C213.92029,42.99186,211.56421,39.87137,207.85363,37.82345Z" fill-rule="evenodd" fill="url(#a)"/><path d="M87.9198,100.87564l105.6-59.14859c10.60384-5.93941,19.2-2.15633,19.2,8.44981v124.823c0,10.60614-8.59617,24.019-19.2,29.95838l-105.6,59.14859c-10.60383,5.93941-19.2,2.15633-19.2-8.44981V130.834C68.71981,120.22787,77.316,106.81505,87.9198,100.87564Z" fill-rule="evenodd" fill="url(#b)"/><path d="M189,203.47243c10.78064-6.02613,19.875-14.89929,19.875-28.31061V45.37946c0-1.74292-1.11-3.446-1.53992-4.8133a4.72239,4.72239,0,0,0-1.71728-.25024h-.0008a11.879,11.879,0,0,0-4.44525,1.01532,7.44,7.44,0,0,1,.82874,3.89832l-.04633,129.6444c0,9.10773-4.90509,15.73548-16.4013,22.16156L78.19208,257.04773a13.97746,13.97746,0,0,1-6.47229,2.084v.81659c0,3.039.85718,4.41388,1.83465,5.04126,2.32746-.32294,6.13739-.36029,8.82056-1.86017Z" fill="url(#c)"/><path d="M120.71167,198.72405l14.6401-8.21108c.80859-.45345,1.464-.16566,1.464.64293a2.97407,2.97407,0,0,1-1.464,2.28509l-14.6401,8.21108c-.80859.45345-1.464.16559-1.464-.64293A2.974,2.974,0,0,1,120.71167,198.72405Zm3.904-11.94971,3.904-2.18963c.80853-.45346,1.464-.16566,1.464.64292a2.97424,2.97424,0,0,1-1.464,2.2851l-3.904,2.18963c-.80859.45346-1.464.16567-1.464-.64292A2.97409,2.97409,0,0,1,124.6157,186.77434Zm15.6161-18.51848,4.88-2.73705c.80859-.45345,1.464-.16566,1.464.64293a2.97407,2.97407,0,0,1-1.464,2.28509l-4.88,2.737c-.80852.45345-1.464.16559-1.464-.64293A2.97414,2.97414,0,0,1,140.2318,168.25586Zm-9.76006-4.2861,4.88-2.737c.80859-.45345,1.464-.16566,1.464.64293a2.97405,2.97405,0,0,1-1.464,2.28509l-4.88,2.737c-.80853.45351-1.464.16566-1.464-.64287A2.97434,2.97434,0,0,1,130.47174,163.96976Zm2.928-11.40223,9.76006-5.474c.80859-.45345,1.464-.16566,1.464.64293a2.97407,2.97407,0,0,1-1.464,2.28509l-9.76006,5.474c-.80853.45345-1.464.16566-1.464-.64293A2.97423,2.97423,0,0,1,133.39976,152.56753Z" fill="#ffc335" fill-rule="evenodd"/><path d="M114.85563,202.00844c.80853-.45352,1.464-.16566,1.464.64286a2.97434,2.97434,0,0,1-1.464,2.28516c-.80852.45345-1.464.1656-1.464-.64293A2.97425,2.97425,0,0,1,114.85563,202.00844Zm0-19.52013,19.52013-10.94806c.80853-.45345,1.464-.16566,1.464.64293a2.97423,2.97423,0,0,1-1.464,2.28509l-19.52013,10.94806c-.80852.45345-1.464.16566-1.464-.64293A2.97425,2.97425,0,0,1,114.85563,182.48831Zm0-9.76007,9.76007-5.474c.80852-.45351,1.464-.16566,1.464.64287a2.97434,2.97434,0,0,1-1.464,2.28515l-9.76007,5.474c-.80852.45346-1.464.1656-1.464-.64292A2.97427,2.97427,0,0,1,114.85563,172.72824Zm0-9.76006,12.68809-7.11626c.80859-.45345,1.464-.16566,1.464.64293a2.97407,2.97407,0,0,1-1.464,2.28509l-12.68809,7.11626c-.80852.45345-1.464.16559-1.464-.64293A2.97425,2.97425,0,0,1,114.85563,162.96818Z" fill="#6ab9ec" fill-rule="evenodd"/><path d="M143.15982,117.8133l9.76007-5.474c.80858-.45345,1.464-.16566,1.464.64293a2.9741,2.9741,0,0,1-1.464,2.28509l-9.76007,5.474c-.80852.45352-1.464.16566-1.464-.64293A2.97436,2.97436,0,0,1,143.15982,117.8133ZM114.85563,133.688l22.44815-12.59028c.80859-.45346,1.464-.1656,1.464.64292a2.97405,2.97405,0,0,1-1.464,2.28509L114.85563,136.616c-.80852.45346-1.464.1656-1.464-.64292A2.97427,2.97427,0,0,1,114.85563,133.688Zm28.30419-25.63474,9.76007-5.474c.80858-.45352,1.464-.16566,1.464.64293a2.97411,2.97411,0,0,1-1.464,2.28509l-9.76007,5.474c-.80852.45345-1.464.16566-1.464-.64293A2.97425,2.97425,0,0,1,143.15982,108.05324Zm-28.30419,15.87468,22.44815-12.59029c.80859-.45345,1.464-.1656,1.464.64293a2.97407,2.97407,0,0,1-1.464,2.28509l-22.44815,12.59029c-.80852.45345-1.464.16566-1.464-.64293A2.97425,2.97425,0,0,1,114.85563,123.92792Z" fill="#f7963e" fill-rule="evenodd"/><path d="M109.9756,214.50549l18.54412-10.40065c.80853-.45346,1.464-.1656,1.464.64293a2.97424,2.97424,0,0,1-1.464,2.28509L109.9756,217.43351c-.80852.45352-1.464.16566-1.464-.64287A2.97437,2.97437,0,0,1,109.9756,214.50549Zm-4.88-46.06328,3.904-2.18964c.80853-.45345,1.464-.16566,1.464.64293a2.97423,2.97423,0,0,1-1.464,2.28509l-3.904,2.18964c-.80853.45345-1.464.1656-1.464-.64293A2.97423,2.97423,0,0,1,105.09557,168.44221Zm14.64009-17.97114,8.78406-4.92662c.80853-.45346,1.464-.1656,1.464.64292a2.97424,2.97424,0,0,1-1.464,2.2851l-8.78406,4.92662c-.80852.45351-1.464.16566-1.464-.64287A2.97434,2.97434,0,0,1,119.73566,150.47107Zm-9.76006-33.56623,18.54412-10.40065c.80853-.45346,1.464-.1656,1.464.64292a2.97421,2.97421,0,0,1-1.464,2.28509L109.9756,119.83286c-.80852.45351-1.464.16566-1.464-.64287A2.97434,2.97434,0,0,1,109.9756,116.90484Z" fill="#73c7c1" fill-rule="evenodd"/><path d="M134.37576,181.30031,166.584,163.23606c.80859-.45352,1.464-.16566,1.464.64286a2.97419,2.97419,0,0,1-1.464,2.28516l-32.20822,18.06425c-.80852.45346-1.464.16567-1.464-.64292A2.97427,2.97427,0,0,1,134.37576,181.30031ZM105.09557,139.162l3.904-2.18963c.80853-.45346,1.464-.16566,1.464.64292a2.97424,2.97424,0,0,1-1.464,2.2851l-3.904,2.18963c-.80853.45346-1.464.16566-1.464-.64292A2.97424,2.97424,0,0,1,105.09557,139.162Zm0-9.76006,3.904-2.18964c.80853-.45345,1.464-.16566,1.464.64293a2.97423,2.97423,0,0,1-1.464,2.28509l-3.904,2.18964c-.80853.45345-1.464.16559-1.464-.64293A2.97423,2.97423,0,0,1,105.09557,129.402ZM95.3355,154.39611l1.952-1.09482c.80853-.45352,1.464-.16566,1.464.64293a2.97434,2.97434,0,0,1-1.464,2.28509l-1.952,1.09482c-.80859.45345-1.464.16559-1.464-.64293A2.97407,2.97407,0,0,1,95.3355,154.39611Z" fill="#b1c854" fill-rule="evenodd"/><path d="M95.3355,222.71657l8.78406-4.92662c.80859-.45352,1.464-.16567,1.464.64286a2.974,2.974,0,0,1-1.464,2.28509l-8.78406,4.92669c-.80859.45345-1.464.16559-1.464-.64293A2.97405,2.97405,0,0,1,95.3355,222.71657Zm0-58.56046,18.54413-10.40059c.80852-.45351,1.464-.16566,1.464.64287a2.97432,2.97432,0,0,1-1.464,2.28515L95.3355,167.08413c-.80859.45352-1.464.16566-1.464-.64286A2.97419,2.97419,0,0,1,95.3355,164.15611Zm0-39.0402,8.78406-4.92662c.80859-.45351,1.464-.16566,1.464.64287a2.97416,2.97416,0,0,1-1.464,2.28515l-8.78406,4.92662c-.80859.45346-1.464.1656-1.464-.64292A2.974,2.974,0,0,1,95.3355,125.11591Z" fill="#f7706c" fill-rule="evenodd"/><path d="M102.16755,111.52405l3.904-2.18964c.80859-.45352,1.464-.16566,1.464.64286a2.97419,2.97419,0,0,1-1.464,2.28516l-3.904,2.18964c-.80853.45345-1.464.16559-1.464-.64293A2.97411,2.97411,0,0,1,102.16755,111.52405Z" fill="#c8c2b4" fill-rule="evenodd"/><path d="M85.57544,237.95066l7.808-4.37921c.80852-.45352,1.464-.16566,1.464.64286a2.97437,2.97437,0,0,1-1.464,2.28516l-7.808,4.37921c-.80859.45345-1.464.1656-1.464-.64293A2.97407,2.97407,0,0,1,85.57544,237.95066Zm0-117.12085,10.73607-6.02137c.80859-.45352,1.464-.16566,1.464.64286a2.97419,2.97419,0,0,1-1.464,2.28516l-10.73607,6.02137c-.80859.45352-1.464.16566-1.464-.64286A2.97419,2.97419,0,0,1,85.57544,120.82981Z" fill="#a3779f" fill-rule="evenodd"/><path d="M203.92526,37.25254v6c1.1955,0,3.995,0,3.995,5.42432V175.32227c0,8.65373-7.53209,20.17486-16.44767,25.15844L84.11189,260.49291a13.80764,13.80764,0,0,1-6.59618,2.08845c-1.19586,0-3.99641,0-3.99641-5.42431V130.51158c0-8.65368,7.53214-20.17486,16.44769-25.15845L197.32771,45.341a13.811,13.811,0,0,1,6.59677-2.08845l.00078-6m-.00136,0a19.92007,19.92007,0,0,0-9.52374,2.85115L87.03944,100.11581C76.2588,106.142,67.5193,119.75063,67.5193,130.51158V257.15705c0,7.3095,4.031,11.42431,9.9964,11.42431a19.9169,19.9169,0,0,0,9.52374-2.85113L194.40016,205.718c10.78064-6.02609,19.52014-19.63476,19.52014-30.39576V48.67686c0-7.30952-4.031-11.42495-9.9964-11.42433Z" fill="#c7ccd1"/><path d="M178.7832,303.73a.99066.99066,0,0,1-.49511-.13183L96.30322,256.75446a.99991.99991,0,0,1,.99219-1.73633l81.98486,46.84375a1,1,0,0,1-.49707,1.86816Zm12.58106-7.33593a.99939.99939,0,0,0-.37207-1.36426L109.00781,248.1861a.99991.99991,0,0,0-.99219,1.73633L190,296.76618a.99968.99968,0,0,0,1.36426-.37207Zm11.71191-6.832a.99937.99937,0,0,0-.37207-1.36425l-81.98437-46.84375a.99991.99991,0,1,0-.99219,1.73633l81.98437,46.84375a.99967.99967,0,0,0,1.36426-.37208Zm11.71192-6.832a.99938.99938,0,0,0-.37207-1.36425L132.43164,234.522a.99991.99991,0,1,0-.99219,1.73632l81.98438,46.84375a.99965.99965,0,0,0,1.36426-.37207Zm11.71289-6.832a.99939.99939,0,0,0-.37207-1.36426L144.144,227.69a.99991.99991,0,0,0-.99218,1.73633l81.98486,46.84375a.99965.99965,0,0,0,1.36426-.37207Zm11.71191-6.832a.99939.99939,0,0,0-.37207-1.36426L155.856,220.858a.99991.99991,0,0,0-.99219,1.73633L236.84863,269.438a.99965.99965,0,0,0,1.36426-.37207Z" fill="url(#d)"/><path d="M310.33432,97.35985l-7.41765-4.54832c-4.55151-2.41308-9.29965-2.84571-15.79589.7877L179.76007,153.648c-10.78071,6.02971-19.52014,19.64662-19.52014,30.41425V310.78489c0,4.94249,1.84505,8.4204,4.88,10.15918h0l9.76006,5.90777h0c3.57687,2.04922,8.808,1.68114,14.6401-1.5808l107.36072-60.0488c10.78064-6.02971,19.52013-19.64663,19.52013-30.41425V108.08538C316.401,102.52826,314.0449,99.40777,310.33432,97.35985Z" fill-rule="evenodd" fill="url(#e)"/><path d="M190.37649,160.03054l105.6-59.14859c10.60384-5.93941,19.2-2.15633,19.2,8.44981v124.823c0,10.60614-8.59616,24.019-19.2,29.95838l-105.6,59.14859c-10.60383,5.93941-19.2,2.15633-19.2-8.44981v-124.823C171.1765,179.38278,179.77266,165.97,190.37649,160.03054Z" fill-rule="evenodd" fill="url(#f)"/><path d="M185.6161,263.93578l107.36072-59.774v.976l-107.36072,59.774Zm0,9.76006L292.97682,213.922v.97594l-107.36072,59.774Zm0,9.76007,107.36072-59.774v.976l-107.36072,59.774Zm0,9.76006,107.36072-59.774v.976L185.6161,294.192Zm0,9.76007,107.36072-59.774v.976L185.6161,303.952Z" fill="#fff" fill-rule="evenodd" opacity="0.3"/><path d="M186.5918,291.21149a1,1,0,0,1-.65528-1.75488l3.09961-2.69141,3.9668-7.61035a1.001,1.001,0,0,1,.76953-.53125l3.53516-.417,2.998-5.60059a1.00046,1.00046,0,0,1,1.544-.27832l1.21094,1.06934,3.83691-1.0918,3.88477-11.34082a1.00069,1.00069,0,0,1,1.42773-.55274l2.43164,1.335,7.46582,5.09082,5.78418-6.46875,3.98828-10.04786a.99926.99926,0,0,1,.4043-.48144l6.4873-4.00977a1.00276,1.00276,0,0,1,1.1875.10059l2.458,2.16992,5.83008-7.251a.99847.99847,0,0,1,.47656-.32617l4.05469-1.28906a1.00389,1.00389,0,0,1,1.18555.48437l2.09668,3.94825,2.54785-8.585a1.00022,1.00022,0,0,1,.65625-.669l3.61426-1.14941,3.06543-7.25879a.999.999,0,0,1,.749-.59668,1.01109,1.01109,0,0,1,.90625.30664l3.97656,4.30566,3.96094,2.70215a.99256.99256,0,0,1,.2959.31543l4.05371,6.82324a.91186.91186,0,0,1,.085.18262l.8623,2.48535,2.9336-5.62793,3.21484-11.63867a1.00372,1.00372,0,0,1,.09961-.23633l4.05469-6.96777a.99994.99994,0,1,1,1.72851,1.00586L288.876,225.9195l-3.209,11.61621a1.01534,1.01534,0,0,1-.07715.19531l-4.05371,7.77832a.99977.99977,0,0,1-1.83105-.13379l-1.58887-4.58008-3.88965-6.5459-3.87109-2.6416a.98656.98656,0,0,1-.1709-.14746l-3.001-3.249-2.6416,6.25391a.998.998,0,0,1-.61816.56445l-3.54883,1.12793-3.0918,10.4209a.99974.99974,0,0,1-1.84179.18457l-2.85254-5.37012-2.97168.94434-6.29785,7.832a.99923.99923,0,0,1-.69434.36914.988.988,0,0,1-.74707-.2461l-2.68652-2.37109-5.57422,3.44531-3.93164,9.90528a1.00127,1.00127,0,0,1-.18457.29785l-6.48731,7.25488a1.00066,1.00066,0,0,1-1.30859.15918l-8.1084-5.53418-1.30664-.71484-3.66992,10.71289a1.00152,1.00152,0,0,1-.67285.63769l-4.86524,1.38477a1.00365,1.00365,0,0,1-.93555-.21192l-.67382-.59472-2.64746,4.94629a.99974.99974,0,0,1-.76465.52148l-3.52832.416-3.81055,7.31054a.99161.99161,0,0,1-.23145.293l-3.24316,2.81543A.99329.99329,0,0,1,186.5918,291.21149Z" fill="#fff"/><path d="M274.06506,163.31609l9.38262-5.22382c.86362-.48091,1.56377-.17056,1.56377.69306V168.168a3.16071,3.16071,0,0,1-1.56377,2.43448l-9.38262,5.22383c-.86372.48081-1.56377.17045-1.56377-.69317v-9.38262A3.16031,3.16031,0,0,1,274.06506,163.31609Z" fill="#dce0e3" fill-rule="evenodd"/><path d="M274.06506,141.42331l9.38262-5.22383c.86362-.48091,1.56377-.17056,1.56377.69306v9.38263a3.16071,3.16071,0,0,1-1.56377,2.43447l-9.38262,5.22383c-.86372.48081-1.56377.17045-1.56377-.69317v-9.38262A3.16027,3.16027,0,0,1,274.06506,141.42331Zm0,43.78557,9.38262-5.22383c.86362-.48091,1.56377-.17055,1.56377.69307v9.38262a3.16056,3.16056,0,0,1-1.56377,2.43438l-9.38262,5.22393c-.86372.4808-1.56377.17055-1.56377-.69317v-9.38262A3.16031,3.16031,0,0,1,274.06506,185.20888Z" fill="#fff" fill-rule="evenodd"/><path d="M221.36,162.99026l-29.83061,31.133-.32781.33981v33.77457L221.36,231.58428l29.83061-31.133.32781-.33981V166.33689Zm-.65562,2.19831v9.74207L197.10213,199.5611l5.90056.65467v14.9486L192.5128,226.11266V194.60971Zm1.31124-.61144,28.19157,3.12925v31.50039l-10.48989-1.16526v-14.946l5.90056-6.15762-23.60224-2.62121Zm-1.31124,11.8645v2.38942l-9.16328,9.564-8.19266,6.16106Zm1.31124-.61144,17.35594,1.93057-8.19266,1.477-9.16328-1.01813Zm-.65562,3.83223,8.25157.9157L221.36,189.18937l-8.25157-.91827ZM211.71011,189.63l8.99426.99963v10.03915l-20.62379-2.29165Zm19.29976-8.99962,11.62953-2.09875-20.62379,21.52571V190.01817Zm-26.69594,19.72946,16.39044,1.81994v14.25456l-5.06311-.56114v-9.63707l1.31124.14406v-1.511l-9.03268-1.00476V205.378l1.31124.14662v9.63707l-4.91713-.54726ZM238.40605,184.465v14.252l-16.39044,17.10591V201.56832Zm-1.091,4.18635-5.13738,5.36124v5.8391l5.13738-5.36125Zm-30.36331,15.10621-.00768.01383.02817-.01314Zm29.05207-12.22316v2.812l-2.51491,2.62225v-2.80943Zm-6.33849,5.03779-5.13482,5.36005v5.8391l5.13482-5.36006Zm-19.123,9.09905,3.78773.42085v9.63451l-3.78773-.42085Zm17.8118-6.216v2.80942l-2.51235,2.62362v-2.812Zm-24.75213,16.595,17.1024,1.8977v12.04954l-27.536-3.05851ZM239.118,199.48877l10.43354,1.15825-27.53595,28.739V217.33644Z" fill="#fff"/><path d="M175.36774,319.54608,304.66663,102.36432H293.33l-102.95356,57.6662c-6.47814,3.62854-12.19476,10.049-15.672,16.91217Z" fill-rule="evenodd" opacity="0.2" fill="url(#g)"/><path d="M292.00081,261.442c10.78064-6.02613,18.81169-13.65119,18.81169-27.0625v-129.25a18.5614,18.5614,0,0,0-1.07693-5.14423,4.72222,4.72222,0,0,0-1.71729-.25024h-.00079a11.87888,11.87888,0,0,0-4.44525,1.01532,7.44013,7.44013,0,0,1,.82873,3.89831L304.35464,234.293c0,9.10773-4.90509,15.73548-16.4013,22.16156L180.59256,316.4668a13.97722,13.97722,0,0,1-6.47229,2.084v.81659c0,3.039.85718,4.41388,1.83466,5.04126A22.66079,22.66079,0,0,0,184,322.11774Z" fill="url(#h)"/><path d="M306.40594,96.78893v6c1.1955,0,3.995,0,3.995,5.42432V234.85866c0,8.65373-7.53207,20.17487-16.44766,25.15845L186.59258,320.0293a13.8078,13.8078,0,0,1-6.59623,2.08844c-1.19586,0-3.99637,0-3.99637-5.42432V190.048c0-8.65373,7.53209-20.17491,16.44768-25.15849l107.36072-60.01215a13.81106,13.81106,0,0,1,6.5968-2.08845l.00076-6m-.00134,0a19.92,19.92,0,0,0-9.52374,2.85114L189.52013,159.65221C178.73944,165.67835,170,179.287,170,190.048v126.6454c0,7.30954,4.031,11.42432,9.99639,11.42432a19.91686,19.91686,0,0,0,9.52376-2.85114l107.36073-60.01217c10.78064-6.0261,19.52011-19.63477,19.52011-30.39577V108.21325c0-7.30952-4.031-11.42495-9.99637-11.42432Z" fill="#c7ccd1"/></svg>