<svg xmlns="http://www.w3.org/2000/svg" xmlns:xlink="http://www.w3.org/1999/xlink" viewBox="0 0 340 340"><defs><linearGradient id="a" x1="82.25544" y1="216.61167" x2="276.93314" y2="216.61167" gradientUnits="userSpaceOnUse"><stop offset="0.46206" stop-color="#fff"/><stop offset="0.6053" stop-color="#fff" stop-opacity="0.5"/></linearGradient><linearGradient id="b" x1="135.46362" y1="80.04019" x2="135.46362" y2="117.8022" gradientUnits="userSpaceOnUse"><stop offset="0" stop-color="#a6afb7"/><stop offset="0.18057" stop-color="#acb5bc"/><stop offset="0.42713" stop-color="#bec4ca"/><stop offset="0.71172" stop-color="#dadee1"/><stop offset="1" stop-color="#fff"/></linearGradient><linearGradient id="c" x1="145.6877" y1="75.88297" x2="163.85437" y2="63.7163" gradientUnits="userSpaceOnUse"><stop offset="0" stop-color="#cdecff"/><stop offset="1" stop-color="#fff"/></linearGradient><linearGradient id="d" x1="128.35366" y1="73.50154" x2="116.687" y2="70.00154" gradientUnits="userSpaceOnUse"><stop offset="0" stop-color="#fff"/><stop offset="1" stop-color="#cdecff"/></linearGradient></defs><title>Illustrations</title><g style="isolation:isolate"><path d="M276.92493,166.37881c-.06909-3.02044-2.2815-6.16321-6.53736-8.587l-78.343-44.61737c-7.86683-4.48041-19.72095-4.806-26.477-.72754L86.0564,160.44674c-3.4867,2.10492-3.905,4.76526-3.78443,7.86908v97.50171c.21,3.76984,1.73706,6.91291,6.47742,9.61261l78.34314,44.61743c7.8667,4.48035,19.72095,4.806,26.47693.72748l79.51111-47.99988a7.26661,7.26661,0,0,0,3.84436-6.91Z" fill="#97cef2" fill-rule="evenodd"/><path d="M82.727,270.19012a14.59964,14.59964,0,0,0,5.39632,4.89564l78.32012,44.63131c7.86453,4.48165,19.71353,4.8105,26.4654.73447l79.4627-47.97063c4.58629-2.76869,5.64124-6.85651,3.38167-10.59945a14.59726,14.59726,0,0,0-5.39631-4.89565l-78.32016-44.63128c-7.8645-4.48167-19.7135-4.81052-26.4654-.73448L86.10868,259.59066c-4.5863,2.76869-5.64165,6.85674-3.38168,10.59946Z" fill="#5fa6d4" opacity="0.8"/><polygon points="207.531 225.519 207.855 238.755 220.886 246.687 230.308 236.269 230.014 224.255 216.996 216.831 207.531 225.519" fill="#a6ddff"/><polygon points="230.013 224.255 230.35 238.003 220.879 246.708 220.544 233.069 230.013 224.255" fill="#7fceff"/><polygon points="207.533 225.52 220.556 233.11 230.009 224.258 216.996 216.834 207.533 225.52" fill="#cdecff"/><polygon points="189.407 213.848 189.691 225.461 201.124 232.42 209.391 223.279 209.133 212.739 197.711 206.226 189.407 213.848" fill="#a6ddff"/><polygon points="209.132 212.739 209.428 224.801 201.118 232.439 200.824 220.472 209.132 212.739" fill="#7fceff"/><polygon points="189.409 213.849 200.835 220.508 209.128 212.741 197.711 206.228 189.409 213.849" fill="#cdecff"/><polygon points="186.312 226.829 186.761 245.154 204.803 256.137 217.849 241.712 217.441 225.078 199.417 214.8 186.312 226.829" fill="#a6ddff"/><polygon points="217.44 225.078 217.906 244.113 204.793 256.166 204.33 237.282 217.44 225.078" fill="#7fceff"/><polygon points="186.315 226.831 204.346 237.34 217.434 225.083 199.416 214.804 186.315 226.831" fill="#cdecff"/><polygon points="161.991 215.224 162.281 227.052 173.925 234.141 182.346 224.83 182.083 214.094 170.449 207.461 161.991 215.224" fill="#a6ddff"/><polygon points="182.082 214.094 182.383 226.38 173.919 234.159 173.62 221.971 182.082 214.094" fill="#7fceff"/><polygon points="161.993 215.226 173.631 222.008 182.078 214.097 170.449 207.463 161.993 215.226" fill="#cdecff"/><polygon points="194.152 254.33 194.521 269.382 209.341 278.404 220.057 266.555 219.722 252.892 204.917 244.45 194.152 254.33" fill="#a6ddff"/><polygon points="219.721 252.892 220.104 268.527 209.333 278.428 208.952 262.916 219.721 252.892" fill="#7fceff"/><polygon points="194.155 254.332 208.966 262.963 219.716 252.896 204.916 244.453 194.155 254.332" fill="#cdecff"/><polygon points="143.183 224.151 143.514 237.661 156.815 245.757 166.432 235.123 166.132 222.86 152.844 215.283 143.183 224.151" fill="#a6ddff"/><polygon points="166.131 222.86 166.475 236.893 156.807 245.779 156.466 231.857 166.131 222.86" fill="#7fceff"/><polygon points="143.186 224.152 156.478 231.899 166.126 222.863 152.844 215.286 143.186 224.152" fill="#cdecff"/><polygon points="166.069 242.482 166.411 256.415 180.129 264.766 190.048 253.798 189.738 241.151 176.034 233.336 166.069 242.482" fill="#a6ddff"/><polygon points="189.737 241.151 190.092 255.624 180.121 264.788 179.769 250.43 189.737 241.151" fill="#7fceff"/><polygon points="166.072 242.483 179.782 250.473 189.732 241.154 176.033 233.339 166.072 242.483" fill="#cdecff"/><polygon points="170.04 233.655 170.245 242.003 178.464 247.007 184.408 240.435 184.222 232.857 176.011 228.175 170.04 233.655" fill="#a6ddff"/><polygon points="184.221 232.857 184.434 241.529 178.46 247.02 178.249 238.417 184.221 232.857" fill="#7fceff"/><polygon points="170.042 233.656 178.256 238.443 184.219 232.859 176.01 228.176 170.042 233.656" fill="#cdecff"/><polygon points="150.434 206.124 150.706 217.193 161.603 223.827 169.483 215.114 169.237 205.067 158.35 198.859 150.434 206.124" fill="#a6ddff"/><polygon points="169.236 205.067 169.518 216.564 161.597 223.844 161.318 212.438 169.236 205.067" fill="#7fceff"/><polygon points="150.437 206.125 161.328 212.473 169.232 205.069 158.35 198.861 150.437 206.125" fill="#cdecff"/><polygon points="226.915 247.926 220.155 262.1 229.681 277.484 245.239 271.521 251.375 258.655 241.589 243.816 226.915 247.926" fill="#a6ddff"/><polygon points="251.374 258.654 244.353 273.377 229.662 277.502 236.629 262.896 251.374 258.654" fill="#7fceff"/><polygon points="226.917 247.929 236.619 262.946 251.368 258.655 241.588 243.819 226.917 247.929" fill="#cdecff"/><polygon points="157.765 236.904 158.103 250.678 171.663 258.933 181.469 248.091 181.163 235.588 167.615 227.863 157.765 236.904" fill="#a6ddff"/><polygon points="181.162 235.588 181.512 249.896 171.656 258.955 171.308 244.761 181.162 235.588" fill="#7fceff"/><polygon points="157.768 236.906 171.32 244.804 181.157 235.592 167.615 227.866 157.768 236.906" fill="#cdecff"/><polygon points="157.928 250.301 158.46 272.037 179.86 285.064 195.334 267.955 194.851 248.225 173.472 236.034 157.928 250.301" fill="#a6ddff"/><polygon points="194.849 248.225 195.403 270.803 179.848 285.099 179.299 262.7 194.849 248.225" fill="#7fceff"/><polygon points="157.932 250.304 179.319 262.768 194.842 248.23 173.471 236.038 157.932 250.304" fill="#cdecff"/><polygon points="132.58 237.536 132.924 251.566 146.736 259.974 156.723 248.931 156.411 236.196 142.613 228.328 132.58 237.536" fill="#a6ddff"/><polygon points="156.41 236.196 156.768 250.769 146.728 259.996 146.374 245.539 156.41 236.196" fill="#7fceff"/><polygon points="132.583 237.538 146.387 245.583 156.406 236.2 142.613 228.331 132.583 237.538" fill="#cdecff"/><polygon points="181.046 268.459 171.436 283.512 180.039 302.206 198.432 297.648 207.154 283.984 198.182 265.87 181.046 268.459" fill="#a6ddff"/><polygon points="207.153 283.983 197.172 299.62 180.016 302.224 189.918 286.711 207.153 283.983" fill="#7fceff"/><polygon points="181.047 268.462 189.9 286.767 207.146 283.983 198.179 265.872 181.047 268.462" fill="#cdecff"/><polygon points="107.272 253.624 107.665 269.649 123.441 279.252 134.849 266.639 134.492 252.094 118.731 243.107 107.272 253.624" fill="#a6ddff"/><polygon points="134.491 252.094 134.899 268.738 123.432 279.278 123.027 262.765 134.491 252.094" fill="#7fceff"/><polygon points="107.275 253.626 123.042 262.815 134.485 252.098 118.731 243.11 107.275 253.626" fill="#cdecff"/><polygon points="137.418 269.867 137.823 286.394 154.094 296.299 165.86 283.29 165.492 268.288 149.237 259.019 137.418 269.867" fill="#a6ddff"/><polygon points="165.491 268.288 165.911 285.455 154.085 296.325 153.667 279.294 165.491 268.288" fill="#7fceff"/><polygon points="137.421 269.869 153.682 279.346 165.485 268.292 149.236 259.022 137.421 269.869" fill="#cdecff"/><polygon points="142.128 259.397 142.371 269.3 152.12 275.234 159.169 267.44 158.949 258.451 149.209 252.897 142.128 259.397" fill="#a6ddff"/><polygon points="158.948 258.451 159.2 268.737 152.114 275.25 151.864 265.046 158.948 258.451" fill="#7fceff"/><polygon points="142.13 259.398 151.873 265.077 158.945 258.454 149.209 252.899 142.13 259.398" fill="#cdecff"/><polygon points="113.123 272.152 116.303 281.533 127.377 284.295 131.786 274.754 128.899 266.239 117.947 263.838 113.123 272.152" fill="#a6ddff"/><polygon points="128.898 266.239 132.202 275.983 127.377 284.311 124.099 274.644 128.898 266.239" fill="#7fceff"/><polygon points="113.125 272.152 124.117 274.671 128.896 266.243 117.947 263.84 113.125 272.152" fill="#cdecff"/><polygon points="117.873 233.243 118.195 246.372 131.12 254.24 140.467 243.906 140.175 231.989 127.262 224.625 117.873 233.243" fill="#a6ddff"/><polygon points="140.174 231.989 140.508 245.626 131.113 254.261 130.782 240.732 140.174 231.989" fill="#7fceff"/><polygon points="117.876 233.244 130.794 240.773 140.17 231.992 127.262 224.628 117.876 233.244" fill="#cdecff"/><path d="M275.13,161.75666a15.33924,15.33924,0,0,0-4.74-3.96l-78.35-44.62c-7.86-4.48-19.72-4.81-26.47-.73l-79.51,48c-3.46,2.08-3.9,4.72-3.79,7.78v97.59c.21,3.77,1.74,6.91,6.48,9.61l78.34,44.62c7.87,4.48,19.73,4.81,26.48.73l79.51-48a7.272,7.272,0,0,0,3.8501-6.91v-99.49A7.87131,7.87131,0,0,0,275.13,161.75666Zm-4.53,7.3-79.47,47.96a18.62828,18.62828,0,0,1-9.2,2.23,25.83761,25.83761,0,0,1-12.81006-3.02l-78.32-44.62a10.242,10.242,0,0,1-3.81-3.35c-.45-.76-1.51-2.51,1.88995-4.57l79.46-47.97c5.43-3.27,15.52-2.92,22.02.79l78.32,44.64a11.779,11.779,0,0,1,3.13989,2.45,5.90172,5.90172,0,0,1,.67017.88995C272.9401,165.23664,274,166.99665,270.6,169.05665Z" fill-rule="evenodd" opacity="0.5" fill="url(#a)"/><path d="M276.254,162.21444a14.68744,14.68744,0,0,0-5.39421-4.89583l-78.32609-44.6269c-7.86411-4.48541-19.708-4.81523-26.46536-.73291l-79.4621,47.969c-3.65725,2.2134-5.06443,5.26228-4.33152,8.30388a7.86862,7.86862,0,0,0,.95278,2.294,14.62579,14.62579,0,0,0,5.39425,4.89583l78.31875,44.6342c7.86411,4.47811,19.71525,4.80788,26.46537.73291L272.868,172.81967a9.39327,9.39327,0,0,0,4.06035-4.38283A6.81868,6.81868,0,0,0,276.254,162.21444Zm-5.658,6.83806-79.46209,47.969c-5.43089,3.27609-15.5084,2.917-22.01665-.79155L90.79848,171.603a10.0589,10.0589,0,0,1-3.80381-3.34941c-.4544-.75487-1.51713-2.50654,1.88359-4.566l79.46209-47.969c5.43089-3.27609,15.51574-2.917,22.01664.79155l78.32609,44.6342a10.12089,10.12089,0,0,1,3.80376,3.34206C272.94133,165.24136,274.004,167.00037,270.596,169.0525Z" fill="#cce7f9"/><path d="M197.255,279.75505V262.72214l3.86021-2.31474v17.03292Zm13.97118-25.41059c5.53473-3.31884,8.7948-2.22848,8.7948,3.17767s-3.26007,10.5364-8.7948,13.85524l-7.04385,4.22378V258.56824Zm-3.18364,15.991,2.7232-1.63294a10.01663,10.01663,0,0,0,5.318-8.8076c0-3.56467-1.91757-4.3743-5.318-2.33529l-2.7232,1.63294Zm26.67569-13.04486-12.22088,7.32812V247.58582l12.22088-7.32812v2.93908l-8.36066,5.01338V252.318l7.88769-4.72978v2.73837l-7.88769,4.72977v4.29669l8.36066-5.01338Zm13.45812-12.20129-6.4813,3.88645-1.40639,4.97458-3.963,2.37635,6.40487-20.87353,4.538-2.72119,6.4174,13.18479-4.10328,2.46049Zm-5.65062.72055,4.81994-2.89023-2.36549-5.55761-.089.05334Zm15.682-7.456c.17916,1.29732,1.76409,1.26753,3.80947.041,2.05853-1.23437,3.46429-2.98606,3.46429-4.23753,0-1.10946-.882-1.19428-3.10659-.3208l-2.40308.95711c-3.40039,1.36628-5.0749.77677-5.0749-1.714,0-3.1398,2.94-6.9802,7.05638-9.44858,4.2956-2.57581,6.99249-2.15077,7.05638.89172l-3.61777,2.16936c-.1278-1.36341-1.49535-1.41682-3.42608-.25908-1.90442,1.142-3.183,2.74654-3.183,4.00958,0,1.05075.89521,1.104,3.017.28023l2.23707-.90471c3.69483-1.48354,5.30544-.98586,5.30544,1.61107,0,3.305-2.90174,7.13429-7.47861,9.87877-4.43593,2.66-7.26124,2.4065-7.37588-.72357Z" fill="#008be1" opacity="0.9"/><polygon points="164.968 188.155 156.298 197.079 142.775 188.95 141.182 177.783 141.192 177.775 151.647 167.77 165.728 175.329 164.968 188.155" fill="#ffd572"/><polygon points="165.801 187.414 156.292 197.082 155.661 186.219 155.834 186.031 165.728 175.329 165.801 187.414" fill="#e5af30"/><polygon points="156.29 197.071 142.775 188.95 141.182 177.783 155.834 186.031 156.29 197.071" fill="#ffc335"/><polygon points="8 310.5 37.088 328.121 105.792 285.154 82.255 271.69 8 310.5" fill-rule="evenodd" opacity="0.1"/><path d="M162.94,195.38667l-7.64,7.68-1.65,1.66-8.67,8.72-1.65,1.65-8.05,8.09-1.65,1.66-7.97,8.01-1.53,1.54-7.71,7.75-1.37,1.38-8.34,8.38-1.57,1.57-8.66,8.72-1.66,1.66-8.05,8.09-1.65,1.65-8.11,8.17-1.38,1.38-8.33,8.37-1.58,1.59-8.67,8.71-1.65,1.66-8.05,8.09-1.65,1.67-6.54,6.57-.03-.02a8.62853,8.62853,0,0,0-1.54,7.78l-.46.46a1.52463,1.52463,0,0,1-.98.54c-.18-.07-29.12-16.91-29.12-16.91a8.64038,8.64038,0,0,1-1.69-2.18,6.70311,6.70311,0,0,1,.07-6.53,9.35877,9.35877,0,0,1,.93-1.43,6.30924,6.30924,0,0,1,.52-.62l7.11-7.14,1.24-1.25,8.51-8.56,1.25-1.25,8.89-8.95,1.25-1.25,8.46-8.5,1.25-1.25,8.56-8.61,1.25-1.25,8.5-8.56,1.25-1.25,8.9-8.94,1.25-1.25,8.46-8.51,1.25-1.25,7.99-8.04,1.25-1.25,8.55-8.6,1.25-1.25,8.51-8.55,1.25-1.26,8.9-8.94,1.24005-1.25,4.4-4.42a5.224,5.224,0,0,1,6.29-.85Z" fill="#2a2f34" fill-rule="evenodd"/><path d="M47.45164,311.45669l-1.224,1.271L14.01815,293.71638l1.24675-1.2531Zm-41.11158-9.94a9.35877,9.35877,0,0,0-.93,1.43l31.82,18.78,1.22-1.27Zm18.68412-18.86309-1.24675,1.253,32.20274,19.004,1.22509-1.24415Zm42.3246,8.82576L35.16316,272.45909l-1.24675,1.253,32.20485,19.03028Zm9.7099-9.75617L44.873,262.70288,43.6263,263.956l32.20945,19.02469ZM54.682,252.84817l-1.24675,1.25309,32.19161,19.02059,1.2315-1.25838Zm9.7507-9.80936-1.24671,1.253,32.19368,19.02424,1.243-1.25591Zm42.33324,8.82546L74.58027,232.844l-1.24675,1.25309,32.1996,19.02752Zm9.70984-9.75621-32.18563-19.0203-1.24675,1.25309,32.1978,19.03343Zm9.239-9.29046L93.52913,213.7973l-1.24675,1.2531,32.182,19.02433ZM103.32956,203.943,102.0828,205.196l32.20541,19.02789,1.2184-1.27089Zm9.75957-9.80116-1.24671,1.253,32.20744,19.02069,1.243-1.25591ZM123.23669,183.947l-1.24675,1.25309L154.17938,204.225l1.23466-1.26356Z" fill="#15181a"/><path d="M163.71006,197.12666a8.12559,8.12559,0,0,1-1.85,5.23l-124.2,125.19-.46.46a1.52478,1.52478,0,0,1-.98.54.72732.72732,0,0,1-.43-.13,1.07264,1.07264,0,0,1-.19-.18006,2.60036,2.60036,0,0,1-.42-1.56,8.07043,8.07043,0,0,1,1.84-5.22l1.86-1.87.24-.24,122.57-123.55c.45-.45.86-.61,1.2-.5l.12.07-.00158.00165C163.41611,195.57734,163.68283,196.17189,163.71006,197.12666Z" fill="#15181a"/><ellipse cx="161.74152" cy="198.88282" rx="2.5726" ry="1.31486" transform="translate(-65.92331 316.71074) rotate(-78.24408)" fill="#dce0e3"/><ellipse cx="161.74152" cy="198.88282" rx="1.58476" ry="0.80997" transform="translate(-65.92331 316.71074) rotate(-78.24408)" fill="#a6afb7"/><ellipse cx="37.1411" cy="324.86545" rx="2.55146" ry="1.18957" transform="translate(-286.78949 280.30095) rotate(-75.64458)" fill="#dce0e3"/><ellipse cx="37.18086" cy="324.89305" rx="1.57174" ry="0.6084" transform="translate(-286.78632 280.36023) rotate(-75.64458)" fill="#a6afb7"/><polygon points="34.61 279.6 34.984 294.874 50.021 304.028 60.473 292.006 60.555 278.142 45.532 269.575 34.61 279.6" fill="#b1c854"/><polygon points="60.554 278.141 60.554 294.007 50.013 304.053 49.627 288.313 60.554 278.141" fill="#9fb44b"/><polygon points="34.613 279.602 49.641 288.361 60.549 278.145 45.532 269.578 34.613 279.602" fill="#c9d988"/><polygon points="51.531 241.392 52.558 259.957 71.192 270.529 82.88 255.498 83.036 238.646 64.442 228.789 51.531 241.392" fill="#a3779f"/><polygon points="83.035 238.646 83.035 257.93 71.183 270.559 70.125 251.428 83.035 238.646" fill="#836080"/><polygon points="51.535 241.394 70.143 251.486 83.029 238.651 64.442 228.792 51.535 241.394" fill="#c2b2c1"/><polygon points="81.547 215.39 81.913 230.299 96.591 239.234 106.804 227.499 106.873 213.966 92.209 205.604 81.547 215.39" fill="#f7963e"/><polygon points="106.872 213.966 106.872 229.452 96.583 239.258 96.206 223.895 106.872 213.966" fill="#de8738"/><polygon points="81.55 215.392 96.22 223.941 106.867 213.97 92.209 205.607 81.55 215.392" fill="#f9b678"/><polygon points="119.511 192.614 119.796 204.255 131.257 211.232 139.181 202.069 139.286 191.502 127.836 184.973 119.511 192.614" fill="#73c7c1"/><polygon points="139.285 191.502 139.285 203.594 131.251 211.251 130.957 199.254 139.285 191.502" fill="#67b3ad"/><polygon points="119.513 192.615 130.967 199.291 139.281 191.505 127.835 184.975 119.513 192.615" fill="#9dd8d4"/><polygon points="151.659 117.064 151.659 135.984 135.135 145.767 118.277 135.984 118.277 117.947 135.135 109.142 151.652 116.99 151.659 117.064" fill="#a3779f"/><polygon points="151.659 117.064 151.659 135.984 135.135 145.767 135.135 126.876 151.652 116.99 151.659 117.064" fill="#926b8f"/><polygon points="118.277 117.947 135.135 126.876 151.659 116.916 135.135 109.068 118.277 117.947" fill="#bfa0bc"/><path d="M135.46362,117.8022a.76313.76313,0,0,1-.76334-.76333V80.80353a.76334.76334,0,1,1,1.52667,0v36.23534A.76313.76313,0,0,1,135.46362,117.8022Z" fill="url(#b)"/><path d="M99.70314,89.86495a34.92552,34.92552,0,0,0,3.75871-1.87935l37.46174,21.174-4.25986,1.87935Zm56.88171,12.15314,4.25987-1.87935L123.383,78.96471a34.92529,34.92529,0,0,1-3.7587,1.87935Z" fill="#bfc4c7"/><path d="M109.15052,94.27432h0a1.3782,1.3782,0,0,1-.67706-1.18652V81.5958l2.75638,1.62877V93.0878A1.37819,1.37819,0,0,1,109.15052,94.27432Zm18.7429,8.21023V92.62133L125.137,90.99256v11.492a1.37817,1.37817,0,0,0,.67706,1.18652h0A1.3782,1.3782,0,0,0,127.89342,102.48455Z" fill="#7d858c"/><path d="M136.66373,111.039l2.16462-5.12484,3.048-1.524-.95281,4.76951Zm24.21068-11.02348.95281-4.7695-3.04805,1.524-2.16462,5.12483Z" fill="#7d858c"/><polygon points="78.863 29.016 104.549 67.097 99.863 47.526 78.863 29.016" fill="#de6561"/><path d="M117.49434,42.75587c-.33355-.11119-25.43211-16.60082-31.07961-20.31257a4.91549,4.91549,0,0,0-3.55722-.9308C65.91658,24.83938,99.45256,51.52617,99.45256,51.52617Z" fill="#f7706c"/><path d="M164.47813,79.71645c0,9.02089-2.75638,11.27611-2.75638,11.27611s-5.84278,7.47875-23.39681,7.3138a8.27944,8.27944,0,0,1-3.4797-.79359L106.24907,83.89554a8.98169,8.98169,0,0,1-2.974-2.25343,19.78878,19.78878,0,0,1-4.69959-12.95119V50.64914s7.00146-12.48465,27.3683-8.15721L151.047,57.32457l.15037.09024S164.47813,70.69556,164.47813,79.71645Z" fill="#f7706c"/><path d="M93.43864,17.07139l6.89095,19.54526-13.28075-9.522S86.673,11.80921,86.673,11.43334Z" fill="#f99b98"/><path d="M164.47813,79.64628v.07017c-6.96614,17.81126-33.07659,8.51973-33.07659,6.51509V65.41714l19.48512-8.00233.16035-.09024.15037.09024S164.408,70.62539,164.47813,79.64628Z" fill="url(#c)"/><polygon points="128.213 64.851 112.232 57.089 112.232 77.273 128.213 85.035 128.213 64.851" fill="url(#d)"/><path d="M164.47813,79.64628l-13.59147-6.84587V57.41481l.16035-.09024.15037.09024S164.408,70.62539,164.47813,79.64628Z" fill="#ebf7ff"/><path d="M116.70083,43.8c13.15547-7.89328,28.942,10.1485,28.942,10.1485L132.738,58.58418,115.32264,49.438Z" fill="#f99b98"/><path d="M73.51149,12.51634c3.7472-2.03948,10.5009,3.1351,15.08908,11.55535.144.26748.288.535.42692.80243A32.40935,32.40935,0,0,1,92.3092,34.462c.64037,4.13812-.054,7.38895-2.18866,8.55142C86.37335,45.0529,79.61708,39.8809,75.03147,31.45807c-.30348-.55551-.589-1.1136-.85645-1.66913a33.85308,33.85308,0,0,1-2.44582-6.674C70.49471,18.0227,71.03479,13.86657,73.51149,12.51634Z" fill="#fff" opacity="0.75"/><path d="M84.56277,27.90891a12.56412,12.56412,0,0,0,4.46472-3.03479A32.40935,32.40935,0,0,1,92.3092,34.462a21.62956,21.62956,0,0,1-11.58108-5.71724A12.33545,12.33545,0,0,0,84.56277,27.90891Z" fill="#fff" opacity="0.5"/><path d="M71.7292,23.115a10.1745,10.1745,0,0,1,3.62116,1.06475,10.49849,10.49849,0,0,1,4.6705,4.92769,5.42937,5.42937,0,0,0-1.88518-.51182A6.04366,6.04366,0,0,0,74.175,29.78894,33.85308,33.85308,0,0,1,71.7292,23.115Z" fill="#fff" opacity="0.5"/><ellipse cx="80.87992" cy="28.53224" rx="2.54691" ry="4.96369" transform="translate(-3.79569 42.15914) rotate(-28.57372)" fill="#f7706c"/><path d="M177.33792,53.175c-3.32771,11.27611-26.57153,14.35324-51.92021,6.88594-.8019-.24055-1.60375-.48115-2.39556-.73173A89.31289,89.31289,0,0,1,97.94406,47.04081C88.63253,40.225,83.651,32.5372,85.54536,26.11235c3.32771-11.27611,26.57154-14.36328,51.92021-6.88594q2.51079.73669,4.92143,1.58362a93.29239,93.29239,0,0,1,17.77113,8.23911C172.48666,36.56655,179.533,45.71774,177.33792,53.175Z" fill="#fff" opacity="0.75"/><path d="M125.80857,44.71542a34.62408,34.62408,0,0,0-2.78642,14.6138A89.31289,89.31289,0,0,1,97.94406,47.04081a59.60642,59.60642,0,0,1,33.70806-11.42648A33.99391,33.99391,0,0,0,125.80857,44.71542Z" fill="#fff" opacity="0.5"/><path d="M160.15813,29.04914a28.039,28.039,0,0,1-9.13113,4.98151,28.93172,28.93172,0,0,1-18.70334-.50116,14.96217,14.96217,0,0,0,4.67085-2.67618A16.655,16.655,0,0,0,142.387,20.81,93.29239,93.29239,0,0,1,160.15813,29.04914Z" fill="#fff" opacity="0.5"/><ellipse cx="131.77045" cy="36.32425" rx="3.81372" ry="7.43258" transform="translate(59.66655 152.44458) rotate(-73.57372)" fill="#f7706c"/><path d="M303.06454,270.10669,259.38639,167.68094a2.31007,2.31007,0,0,0-4.24983,1.81238l3.73169,8.75082-15.35174,9.28544-3.40274-7.97943a2.31007,2.31007,0,0,0-4.24982,1.81239l15.89191,37.26664a2.28683,2.28683,0,0,0,.248.61361c.00814.01343.02042.02231.02879.03555l27.50939,64.50958a2.30994,2.30994,0,0,0,4.24986-1.81164l-4.90819-11.50974,15.352-9.28583,4.579,10.73762a2.30994,2.30994,0,0,0,4.24986-1.81164Zm-35.03489-25.09332,15.35187-9.28578,3.55683,8.34076-15.35227,9.285Zm-5.53337-12.97585,15.35208-9.28527,3.703,8.68371-15.35187,9.28577Zm-5.57367-13.07031,15.352-9.28527,3.74356,8.77873-15.352,9.28521Zm-5.69458-13.3539L266.58,196.3281l3.86451,9.06226-15.352,9.28521Zm9.47034-23.07753,4.05153,9.50068-15.352,9.28522-4.05134-9.50046Zm16.35532,83.63912-3.63745-8.52992,15.35218-9.285,3.63722,8.52913Z" fill="#a47854"/><path d="M303.07715,270.11858,259.39879,167.68785a2.3087,2.3087,0,1,0-4.24567,1.81512l3.73372,8.749-15.295,9.24595,1.83283,4.29891,15.28693-9.25337,4.051,9.4983-15.287,9.25338,1.83216,4.28346,15.28727-9.24563L270.45793,205.4,255.171,214.65332l1.83217,4.28351,15.28726-9.24567,3.74274,8.77941-15.28693,9.25333,1.83216,4.28346,15.28726-9.24563,3.7,8.681-15.28693,9.25337,1.82446,4.28379,15.29506-9.246,3.55437,8.34044-15.28693,9.25337,1.82447,4.28379,15.295-9.24595,3.63959,8.52945-15.29463,9.2537,1.8324,4.29117,15.287-9.25333,4.58168,10.73947a2.30549,2.30549,0,0,0,2.22523,1.39991,2.30385,2.30385,0,0,0,2.02076-3.20738Z" fill="#936c4b"/><polygon points="280.143 283.768 280.549 300.295 296.82 310.2 308.585 297.191 308.218 282.19 291.962 272.92 280.143 283.768" fill="#b1c854"/><polygon points="308.217 282.19 308.637 299.357 296.811 310.227 296.393 293.196 308.217 282.19" fill="#9fb44b"/><polygon points="280.147 283.77 296.408 293.248 308.211 282.194 291.962 272.924 280.147 283.77" fill="#c9d988"/><polygon points="290.385 306.239 290.764 321.705 305.991 330.975 317.002 318.8 316.658 304.761 301.446 296.087 290.385 306.239" fill="#85a9cf"/><polygon points="316.657 304.761 317.051 320.827 305.983 330.999 305.592 315.061 316.657 304.761" fill="#7798ba"/><polygon points="290.388 306.241 305.606 315.11 316.652 304.765 301.445 296.09 290.388 306.241" fill="#aac3dd"/><polygon points="249.865 294.642 250.328 313.52 268.912 324.833 282.351 309.974 281.931 292.839 263.364 282.252 249.865 294.642" fill="#f7963e"/><polygon points="281.93 292.839 282.411 312.447 268.902 324.863 268.425 305.41 281.93 292.839" fill="#de8738"/><polygon points="249.868 294.645 268.442 305.469 281.924 292.843 263.364 282.255 249.868 294.645" fill="#f9b678"/><polygon points="255.405 281.533 255.691 293.198 267.176 300.19 275.481 291.007 275.222 280.418 263.748 273.875 255.405 281.533" fill="#73c7c1"/><polygon points="275.221 280.418 275.518 292.535 267.17 300.208 266.875 288.187 275.221 280.418" fill="#67b3ad"/><polygon points="255.408 281.534 266.886 288.223 275.217 280.421 263.747 273.878 255.408 281.534" fill="#9dd8d4"/><ellipse cx="242.08186" cy="158.11783" rx="4.5625" ry="2.9375" fill="#f4f5f6"/><polygon points="241.202 145.113 241.202 162.373 227.832 170.223 227.802 170.243 213.462 162.493 213.462 145.743 227.962 136.743 241.132 145.073 241.162 145.093 241.202 145.113" fill="#f7706c"/><polygon points="241.132 145.073 227.832 154.113 213.462 145.743 227.962 136.743 241.132 145.073" fill="#f99b98"/><polygon points="241.202 145.113 241.202 162.373 227.832 170.223 227.832 154.113 241.162 145.093 241.202 145.113" fill="#de6561"/><path d="M260.26567,212.18525c1.82089.70388,1.98825.93773,1.95006,1.08466-.232.89247-6.00987,1.10982-6.10263.078-.01736-.193.20552-.43474.58712-.82028a2.99584,2.99584,0,0,1,1.37242-.89533C258.31221,211.57462,258.62275,211.55018,260.26567,212.18525Zm7.59866-2.4849a4.59579,4.59579,0,0,0-1.35-1.04c-.24-.15-.44-.27-.61-.36-.69-.4-.88-.42-1.04-.41a1.35422,1.35422,0,0,0-.36.06,2.81361,2.81361,0,0,0-.87.43c-.36.25-.57.4-.59.56-.07.63,2.57995,1.2,3.99,1.14.43-.01.74-.08.84-.23,0-.01.01-.01.01-.02a.01386.01386,0,0,0,0-.02A.51482.51482,0,0,0,267.86433,209.70035Z" fill="#2a2f34"/><path d="M227.88136,167.00906c-.53918-.363-1.15576-.79144-1.907-1.31121-2.69-1.86005-4.81-3.55-6.25-4.75a3.54275,3.54275,0,0,1-3.204-2.70734.876.876,0,0,1,.12653-.60687c.46-.65,1.91-.34,2-.33.14-.36.11-1.18.42-1.08a21.12161,21.12161,0,0,0,9.41,4.75,6.44821,6.44821,0,0,0,.6399.11,13.45325,13.45325,0,0,0-1.21991,4.04A5.60242,5.60242,0,0,0,227.88136,167.00906Zm17.384-24.07873h-.28a6.312,6.312,0,0,0-6.03,4.51,6.13009,6.13009,0,0,0-.26,1.78v3.44a4.94855,4.94855,0,0,0,4.93,4.94h.59v1.07h3.75a2.09688,2.09688,0,0,0,2.22-1.92v-4.03c0-.02.01-.04.01-.06v-4.8A4.94639,4.94639,0,0,0,245.26537,142.93033Z" fill="#fcd5b2"/><path d="M242.16561,152.0441a1.82413,1.82413,0,0,1-.3195,3.61465" fill="#e5b096"/><path d="M267.881,209.81063a.5149.5149,0,0,0-.02-.11c-.30993-1.63-.72009-3.76-1.03991-6.85,0-.03-.01-.06-.01-.09-.46009-4.42-1.42017-10.02-1.42017-10.66,0-5.42-1.62988-10.52-9.11987-26.66-.01-1.04-2.21-8.04-5.63013-8.96a2.329,2.329,0,0,0-.22876-.04571,3.94238,3.94238,0,0,0-1.28894-.49585,4.95039,4.95039,0,0,0-4.95349,2.37774c-.694.20789-1.43542.41559-2.10864.59381-1,.29-1.82007.53-2,.6a24.20191,24.20191,0,0,1-8.49,1.71,16.46985,16.46985,0,0,1-2.48011-.1c-.0299,0-.05993-.01-.09-.01-.2-.03-.38-.07-.53-.1a21.01618,21.01618,0,0,1-9.40991-4.75c-.1001-.03-.17017.04-.2201.16.05994-.1.12-.16.2201-.13a21.11962,21.11962,0,0,0,9.40991,4.75c.15.03.31006.07.51.1.03,0,.07007.00994.1.00994h.03a13.801,13.801,0,0,0-1.20007,3.86005,1.1006,1.1006,0,0,1-.02.18c-.00989.11-.02991.22-.03992.32a5.02358,5.02358,0,0,0-.02,1.15,1.21957,1.21957,0,0,0,.04.34.17021.17021,0,0,0,.01.07,19.57615,19.57615,0,0,0,2.25989,1.36c.26.13.57007.27.92017.41a18.71236,18.71236,0,0,0,10.5299.65.20162.20162,0,0,1,.17005.02.24813.24813,0,0,1,.17993.2c.31006,1.65.63013,3.35.99,5.11005a86.84839,86.84839,0,0,0,3.21,11.86,115.46244,115.46244,0,0,0,11.01,22.71c.67017,1.06,1.31006,2.07995,1.9801,3.03.57.81,1.87.78,3.08.78-.24-1.24-.53-3.87-.74-5.19q-.09009-.52506-.1499-1.05c-.12012-.76-.2201-1.52-.31006-2.26-.07007-.5-.13-1-.18006-1.49-.04992-.41-.09-.81994-.13-1.22-.12988-1.28-.23-2.52-.31006-3.73a1.24231,1.24231,0,0,0,.04.16v.01q.16517.705.39014,1.5a28.66985,28.66985,0,0,0,2.18994,5.41c.16992.33.35.67.55,1.01.3999.7.67993,1.18.93994,1.6.17993.29.35.54.55.81a2.43952,2.43952,0,0,0,1.66992.96l.08008.01,1.06994.12h.0199A.06059.06059,0,0,0,267.881,209.81063Z" fill="#fff"/><path d="M230.711,164.16063a10.34919,10.34919,0,0,0-.07007,2.52,11.00523,11.00523,0,0,0,.42017,2.16,2.75394,2.75394,0,0,0,.07983.27,3.8607,3.8607,0,0,1-1.80993-.35,3.27966,3.27966,0,0,1-1.19007-.88c-.38989-.5-.57983-1.19-.36987-2.71a2.00036,2.00036,0,0,1,.04-.24,13.267,13.267,0,0,1,1.16992-3.79c0-.01,0-.02.02-.03.04-.1.09-.21.13989-.31.26.03.53.05.82007.06a11.6281,11.6281,0,0,0,1.81006-.06c-.07007.13-.13013.27-.2.42A10.98169,10.98169,0,0,0,230.711,164.16063Z" fill="#e5e5e5"/><path d="M266.82436,202.85031a5.2669,5.2669,0,0,1-2.54,2.23,4.47735,4.47735,0,0,1-.52.16,3.36671,3.36671,0,0,1-.75.1,28.67867,28.67867,0,0,1-2.19-5.41q-.225-.795-.39-1.5s-.01,0,0-.01a1.25217,1.25217,0,0,1-.04-.16c.08,1.21.18,2.45.31,3.73.04.4.08.81.13,1.22.05.49.11.99.18,1.49.09.74.19,1.5.31,2.26a4.06327,4.06327,0,0,1-4.17,2.43,115.44749,115.44749,0,0,1-11.01-22.71,86.84918,86.84918,0,0,1-3.21-11.86c.31-.23.63-.48.96-.77a12.424,12.424,0,0,0,2.02-2.29,3.87511,3.87511,0,0,0,.56-2.98,27.69484,27.69484,0,0,0-2.21-6.23,25.16864,25.16864,0,0,0-2.2-3.64l2.13-.6a23.28016,23.28016,0,0,1,4.45,8.81,15.25293,15.25293,0,0,0,5.75-1.5c-.6-2.13-1.42-5.87-3.75-9.14,3.17.99,5.51,9.07,6.25,10.03,7.49,16.14,8.93328,19.99839,8.93328,25.41838,0,.64.52675,6.41157.98671,10.83162C266.81435,202.79031,266.82436,202.82034,266.82436,202.85031Z" fill="#4585a5"/><path d="M267.03441,210.08034c-1.41.06-4.06-.51-3.99-1.14.02-.16.23-.31.59-.56a2.81349,2.81349,0,0,1,.87-.43c-.26-.42005-.54-.9-.94-1.6-.2-.34-.38-.68-.55-1.01a28.67877,28.67877,0,0,1-2.19-5.41q-.22494-.795-.39-1.5s-.01,0,0-.01a11.38251,11.38251,0,0,1,.19-2.85,12.62478,12.62478,0,0,1,1.35-3.74,29.16732,29.16732,0,0,0,1.7,11.73c.18994.53.38995,1.04.61,1.52a29.2262,29.2262,0,0,0,1.62,3.22c.3.51.6.99.9,1.43C266.88438,209.8503,266.9644,209.9703,267.03441,210.08034Zm-26.3769-42.3396a17.33363,17.33363,0,0,1-10.0166-1.06012,12.57511,12.57511,0,0,1-1.3999-.74,12.09154,12.09154,0,0,1-1.32965-.92962.72253.72253,0,0,0,.00958-.086c-.32-.22-.67993-.47-1.07-.74-2.69006-1.86005-4.80993-3.55-6.25-4.75a3.54136,3.54136,0,0,1-1.82995-.66,4.0469,4.0469,0,0,1-1.24-1.55,1.10881,1.10881,0,0,0-.88013.39.84387.84387,0,0,0-.12988.61,3.598,3.598,0,0,0,1.36987,2.05,3.5424,3.5424,0,0,0,1.83008.66c1.43994,1.2,3.56006,2.88995,6.25,4.75.68506.47491,1.252.86688,1.7583,1.207a2.06024,2.06024,0,0,0,.41162.98865,3.27967,3.27967,0,0,0,1.19006.88,3.86065,3.86065,0,0,0,1.80994.35,2.75282,2.75282,0,0,1-.07983-.27,18.71236,18.71236,0,0,0,10.5299.65.20162.20162,0,0,1,.17005.02q.0118-.39385.02356-.7843A.96554.96554,0,0,0,240.65751,167.74074Z" fill-rule="evenodd" opacity="0.1" style="mix-blend-mode:multiply"/><path d="M242.46539,143.52917c-4.046-1.83416-4.90528.29451-5.08409,1.43574a1.21141,1.21141,0,0,0,.33692,1.02481l1.68414,1.74221Z" fill="#e9ebed"/><path d="M250.19537,147.86032v2.65c-1.89,1.26-5.65.96-8.26-.46a9.18284,9.18284,0,0,1-2.98-2.61,6.312,6.312,0,0,1,6.03-4.51h.28A4.94639,4.94639,0,0,1,250.19537,147.86032Z" fill="#fff"/><path d="M246.15264,150.58833a1.82413,1.82413,0,0,1,3.59332-.50583,4.87295,4.87295,0,0,1-3.59332.50583Z" fill="#fcd5b2"/></g></svg>