<?xml version="1.0" encoding="utf-8"?>
<!-- Generator: Adobe Illustrator 21.1.0, SVG Export Plug-In . SVG Version: 6.00 Build 0)  -->
<svg version="1.1" id="Layer_1" xmlns="http://www.w3.org/2000/svg" xmlns:xlink="http://www.w3.org/1999/xlink" x="0px" y="0px"
	 viewBox="-6 -6 30 30" style="enable-background:new 0 0 16 16;" xml:space="preserve">
<g>
	<path d="M1.2,0.9h1.2c0.2,0,0.4-0.2,0.4-0.4S2.6,0.1,2.4,0.1H1.2C1,0.1,0.8,0.2,0.8,0.5S1,0.9,1.2,0.9z"/>
	<path d="M12.9,2.5c0-0.4-0.4-0.8-0.8-0.8H9.3L8.9,0.6C8.7,0.2,8.3,0,7.9,0.1H4.8c-0.4,0-0.8,0.2-1,0.5L3.4,1.7H0.8
		C0.4,1.7,0,2,0,2.5v6.5c0,0.4,0.4,0.8,0.8,0.8h6.7C7.3,9.5,7.2,9.2,7.2,8.9C6.9,8.9,6.7,8.9,6.5,8.9c-1.8,0-3.2-1.5-3.2-3.2
		s1.4-3.2,3.2-3.2c1.8,0,3.2,1.4,3.2,3.2c0,0.3-0.1,0.7-0.2,1c0.3,0.1,0.6,0.2,0.8,0.4l2.6-1L12.9,2.5z M10.1,3.3
		c-0.2,0-0.4-0.2-0.4-0.4c0-0.2,0.2-0.4,0.4-0.4c0.2,0,0.4,0.2,0.4,0.4C10.5,3.1,10.3,3.3,10.1,3.3z"/>
	<path d="M6.5,3.3C5.1,3.3,4,4.4,4,5.7s1.1,2.4,2.4,2.4S8.9,7,8.9,5.7S7.8,3.3,6.5,3.3"/>
	<path d="M10.3,8.8l4.3-1.5c0.1,0.1,0.3,0.2,0.5,0.2c0.5,0,0.9-0.4,0.9-1c0-0.5-0.4-0.9-1-0.9c-0.5,0-0.9,0.4-0.9,0.9L10,7.9
		C9.8,7.7,9.5,7.5,9.1,7.5C8.4,7.5,7.9,8,7.9,8.7c0,0.7,0.6,1.2,1.2,1.2c0.2,0,0.4-0.1,0.6-0.2l3,1.4c0,0.1,0,0.1,0,0.2L8.4,13
		c-0.3-0.4-0.8-0.6-1.2-0.6c-1,0.1-1.7,0.9-1.6,1.9c0.1,0.9,0.7,1.5,1.6,1.6c0.9,0,1.7-0.8,1.7-1.7c0,0,0,0,0-0.1c0-0.1,0-0.2,0-0.3
		l4.1-1.6c0.3,0.4,0.7,0.6,1.2,0.6c0.8,0,1.5-0.7,1.5-1.5c0-0.8-0.7-1.5-1.5-1.5c-0.4,0-0.7,0.1-0.9,0.4L10.3,9
		C10.3,9,10.3,8.9,10.3,8.8z"/>
</g>
</svg>
