<svg id="Calque_1" data-name="Calque 1" xmlns="http://www.w3.org/2000/svg" viewBox="0 0 28 28" width="28" height="28"><defs><style>.cls-1{fill:#677481;}.cls-2{fill:#fff;}</style></defs><title>Section - Unselected</title><circle class="cls-1" cx="14" cy="14" r="13"/><path class="cls-2" d="M14,2A12,12,0,1,1,2,14,12.01359,12.01359,0,0,1,14,2m0-2A14,14,0,1,0,28,14,14,14,0,0,0,14,0Z"/><path class="cls-2" d="M11.497,6.04338c-.23879.02434-.47635.06005-.70143.106,2.34624.13988,4.50058,3.35511,4.9236,7.50507s-1.03824,7.73374-3.308,8.34416c.22973-.00042.46961-.01337.7084-.03772A8,8,0,1,0,11.497,6.04338Z"/><path class="cls-2" d="M14.05614,13.824c-.32544-3.19259-1.95132-5.417-3.27006-5.48662-.06733.00686-.13563.0041-.20295.011a1.60162,1.60162,0,0,0-.472.13558c-1.11181.53112-2.14332,2.803-1.82474,5.92822s1.78726,5.14224,3.01322,5.44479a1.54569,1.54569,0,0,0,.45978.03088A1.7335,1.7335,0,0,0,11.969,19.847C13.238,19.52332,14.38158,17.01656,14.05614,13.824Z"/></svg>