<?xml version="1.0" encoding="utf-8"?>
<!-- Generator: Adobe Illustrator 23.0.3, SVG Export Plug-In . SVG Version: 6.00 Build 0)  -->
<svg version="1.1" id="Calque_1" xmlns="http://www.w3.org/2000/svg" xmlns:xlink="http://www.w3.org/1999/xlink" x="0px" y="0px"
	 viewBox="0 0 16 16" style="enable-background:new 0 0 16 16;" xml:space="preserve">
<path d="M5,2L0,7.5L5,13h11V2H5z M12.21,8.79c0.39,0.39,0.39,1.03,0,1.42c-0.19,0.19-0.44,0.29-0.71,0.29
	c-0.27,0-0.52-0.1-0.71-0.29L9.5,8.91l-1.29,1.3c-0.38,0.37-1.04,0.37-1.42,0c-0.39-0.39-0.39-1.03,0-1.42l1.3-1.29l-1.3-1.29
	c-0.39-0.39-0.39-1.03,0-1.42c0.39-0.39,1.03-0.39,1.42,0l1.29,1.3l1.29-1.3c0.39-0.39,1.03-0.39,1.42,0c0.39,0.39,0.39,1.03,0,1.42
	l-1.3,1.29L12.21,8.79z"/>
</svg>
