<svg xmlns="http://www.w3.org/2000/svg" viewBox="0 0 16 16"><title>clean</title><path d="M15.60456.09867A.83894.83894,0,0,0,15.20852,0a.81127.81127,0,0,0-.68979.36909l-2.24633,3.708a1.14438,1.14438,0,0,0-.29774-.04033,1.09843,1.09843,0,0,0-.93467.50049L10.34092,5.664a1.08994,1.08994,0,0,0-.84244.33888C7.62841,8.22008,5.38592,9.767,3.13967,11.72312a9.10665,9.10665,0,0,0,1.19332.97571L7.50153,9.63722l.32981.29561L4.704,12.95505c.6585.44075,1.42232.89044,2.20451,1.30793l1.05611-1.702.3962.213L7.3064,14.47379c.74894.386,1.50184.73384,2.18733,1.00658L10.36,12.38955l.4434.10747-.882,3.1471A9.16156,9.16156,0,0,0,11.09957,16c.69738-2.78814,1.016-5.36854,2.14357-7.98453a.96193.96193,0,0,0-.15437-.92665l.67451-1.08765a.93332.93332,0,0,0,.10671-.76.97755.97755,0,0,0-.2354-.40156l2.26064-3.73052a.71324.71324,0,0,0-.2367-.98057Q15.63221.11244,15.60456.09867Zm-2.23734,5.689-.46261.74557A4.31087,4.31087,0,0,0,10.9619,5.51588l.47457-.76531a.63268.63268,0,0,1,.53822-.28735.64773.64773,0,0,1,.28244.06714l.84945.45249.03368.01833a.57916.57916,0,0,1,.28772.34975.53642.53642,0,0,1-.06073.43669ZM7.08077,14.356c-.05795-.03047-.1145-.06247-.17224-.09334L6.908,14.263ZM4.50933,6.05317A1.07645,1.07645,0,0,0,5.62112,5.01865,1.07645,1.07645,0,0,0,4.50933,3.98413,1.07657,1.07657,0,0,0,3.39762,5.01865,1.07657,1.07657,0,0,0,4.50933,6.05317Zm0-1.64282a.60987.60987,0,1,1-.65362.6083A.633.633,0,0,1,4.50933,4.41035ZM2.75742,14.90221a.88446.88446,0,0,1-.60028-.25514.76458.76458,0,0,1,.04308-1.13386.90522.90522,0,0,1,.88862-.16434l.15987-.39962a1.38676,1.38676,0,0,0-1.3607.25234,1.24739,1.24739,0,0,0-.17363.184,1.44082,1.44082,0,0,1-.73495-1.23293,1.5218,1.5218,0,0,1,1.57168-1.46234,1.66847,1.66847,0,0,1,.59478.10874L3.319,10.4043a2.15581,2.15581,0,0,0-.76792-.1402,2.12935,2.12935,0,0,0-1.1175.31348A1.87869,1.87869,0,0,1,.45805,8.95371,1.99374,1.99374,0,0,1,2.51713,7.03762a2.1281,2.1281,0,0,1,1.46706.574,1.59382,1.59382,0,0,0-.13516.63983A1.63951,1.63951,0,0,0,4.20951,9.2672l.36786-.25382a1.22855,1.22855,0,0,1-.27026-.76177A1.331,1.331,0,0,1,5.68157,6.97242a1.40455,1.40455,0,0,1,1.18051.624L7.25573,7.378a1.90719,1.90719,0,0,0-3.03818-.14775A2.60982,2.60982,0,0,0,2.51713,6.6118,2.43715,2.43715,0,0,0,0,8.95411a2.28672,2.28672,0,0,0,1.06711,1.91477A1.8118,1.8118,0,0,0,.52132,12.153a1.86663,1.86663,0,0,0,.99839,1.62168,1.16481,1.16481,0,0,0,.302,1.16352,1.356,1.356,0,0,0,.91937.39042c.01608.00087.03208.00087.04815.00087a1.36283,1.36283,0,0,0,.8969-.328l.02316-.02173L3.37585,14.688A.88494.88494,0,0,1,2.75742,14.90221Z" fill="#721c24"/></svg>