<svg xmlns="http://www.w3.org/2000/svg" viewBox="0 0 144 38"><title>assets</title><path d="M115.51758,24.50391a1.44775,1.44775,0,1,1-.43262,1.03222A1.4072,1.4072,0,0,1,115.51758,24.50391Zm5.87988-9.43164h2.49609V26.80859A4.1885,4.1885,0,0,1,123.042,29.46a7.36532,7.36532,0,0,1-2.82129,1.97949l-1.00781-1.99218a5.645,5.645,0,0,0,1.75195-1.24707,2.47789,2.47789,0,0,0,.43262-1.55958Zm.26367-3.36036a1.38984,1.38984,0,1,1-.4082.9834A1.33965,1.33965,0,0,1,121.66113,11.71191ZM127.709,23.23242a5.58468,5.58468,0,0,0,1.70411,1.22363,4.50961,4.50961,0,0,0,1.94433.4795,2.7643,2.7643,0,0,0,1.65625-.46778,1.2789,1.2789,0,0,0,.64746-.99511,1.10832,1.10832,0,0,0-.39551-.88868,2.28554,2.28554,0,0,0-1.11621-.45605l-1.416-.26465a7.19682,7.19682,0,0,1-3.26367-1.21094,2.62136,2.62136,0,0,1-.91211-2.10058A3.48138,3.48138,0,0,1,127.793,15.876a4.77426,4.77426,0,0,1,3.32422-1.11621,7.03985,7.03985,0,0,1,2.32812.38476,9.14859,9.14859,0,0,1,2.28028,1.22363l-1.416,1.752a5.44649,5.44649,0,0,0-1.63184-1.00879,4.38022,4.38022,0,0,0-1.48828-.28711,2.77331,2.77331,0,0,0-1.5.39648,1.20672,1.20672,0,0,0-.63574,1.06739q0,.95946,1.51172,1.22363l2.51953.48047q3.07178.57568,3.07227,3.0957a3.46035,3.46035,0,0,1-.28809,1.35547,3.89235,3.89235,0,0,1-.88769,1.27246,4.28643,4.28643,0,0,1-1.54786.93652A6.37558,6.37558,0,0,1,131.2373,27a7.91071,7.91071,0,0,1-5.23144-2.04Z" fill="#fff"/><path d="M44.4082,11.71191A1.39043,1.39043,0,1,1,44,12.6958,1.34091,1.34091,0,0,1,44.4082,11.71191ZM44.144,15.07178h2.4961V26.688H44.144Zm5.87989-3.76758,6.69628,6.76758,6.69532-6.76758V26.688H60.63232V17.376l-3.91211,4.05615L52.80811,17.376v9.312H50.02393ZM66.31982,18.624a5.98315,5.98315,0,0,1,3.31153-3.35986,7.28764,7.28764,0,0,1,5.32812,0A5.98315,5.98315,0,0,1,78.271,18.624a6.09921,6.09921,0,0,1,0,4.51221,5.98315,5.98315,0,0,1-3.31153,3.35986,7.2941,7.2941,0,0,1-5.32812,0,5.98315,5.98315,0,0,1-3.31153-3.35986,6.09921,6.09921,0,0,1,0-4.51221Zm3.28809,4.93213a3.86922,3.86922,0,0,0,5.3877,0,3.88566,3.88566,0,0,0,0-5.352,3.868,3.868,0,0,0-5.3877,0,3.85512,3.85512,0,0,0,0,5.352ZM90.03174,25.272h-.04883a4.15775,4.15775,0,0,1-1.61914,1.26026A5.21563,5.21563,0,0,1,86.16748,27a5.93335,5.93335,0,0,1-2.49609-.51611,5.80809,5.80809,0,0,1-1.91993-1.39209,6.03526,6.03526,0,0,1-1.20019-1.98,6.38041,6.38041,0,0,1-.4082-2.23194,5.86941,5.86941,0,0,1,.43261-2.17187,6.50394,6.50394,0,0,1,1.248-1.99219,5.98078,5.98078,0,0,1,1.96777-1.42773,5.91513,5.91513,0,0,1,2.4961-.52832,4.95459,4.95459,0,0,1,2.21972.48,3.63642,3.63642,0,0,1,1.47559,1.248h.04883V11.61621h2.49512V26.688H90.03174Zm-6.96-2.93994a3.83409,3.83409,0,0,0,.80371,1.21192,3.65528,3.65528,0,0,0,1.1875.81591,3.55961,3.55961,0,0,0,1.416.28809,3.56714,3.56714,0,0,0,2.56836-1.104,3.97318,3.97318,0,0,0,.792-1.21192,3.80279,3.80279,0,0,0,0-2.90381,3.98133,3.98133,0,0,0-.792-1.2124,3.544,3.544,0,0,0-1.17578-.81592,3.50323,3.50323,0,0,0-1.39258-.28808,3.55977,3.55977,0,0,0-1.416.28808,3.66306,3.66306,0,0,0-1.1875.81592,3.8417,3.8417,0,0,0-.80371,1.2124,3.80267,3.80267,0,0,0,0,2.90381ZM106.83154,24.168a7.8198,7.8198,0,0,1-2.46,2.064A6.41956,6.41956,0,0,1,101.43213,27a6.81328,6.81328,0,0,1-2.66406-.50391,5.98885,5.98885,0,0,1-3.3125-3.35986,6.11195,6.11195,0,0,1,0-4.51221,5.98885,5.98885,0,0,1,3.3125-3.35986,6.81338,6.81338,0,0,1,2.66406-.50439,5.65319,5.65319,0,0,1,2.00391.396,6.41489,6.41489,0,0,1,1.96777,1.2124,6.00384,6.00384,0,0,1,1.48828,2.064,6.88367,6.88367,0,0,1,.56348,2.856v.45605H97.80811A3.01963,3.01963,0,0,0,98.95947,23.916a3.65661,3.65661,0,0,0,2.40039.876,4.05179,4.05179,0,0,0,3.36035-1.7998Zm-2.30371-4.48779a3.73921,3.73921,0,0,0-1.30762-2.01612,3.43746,3.43746,0,0,0-2.124-.69629,3.211,3.211,0,0,0-2.08789.72022,3.55778,3.55778,0,0,0-1.20019,1.99219ZM112.49561,27h-2.4961V11.61621h2.4961Z" fill="#fff" opacity="0.8"/><path d="M29.7143,15.1145V25.8319a2.25133,2.25133,0,0,1-1.1116,1.9143L17.1742,34.4388a2.37081,2.37081,0,0,1-2.3484,0L3.4325,27.7673a2.3155,2.3155,0,0,1-1.1468-1.9354V12.1681A2.252,2.252,0,0,1,3.397,10.2536L14.8258,3.5612a2.37119,2.37119,0,0,1,2.3486,0l1.1113.6509V1.5989a4.67451,4.67451,0,0,0-4.6286.0286L2.2286,8.3197A4.47313,4.47313,0,0,0,0,12.1681V25.8319a4.54268,4.54268,0,0,0,2.2286,3.8482l11.4285,6.6924a4.6876,4.6876,0,0,0,4.6858,0l11.4285-6.6924A4.47293,4.47293,0,0,0,32,25.8319V14.2588A6.48418,6.48418,0,0,1,29.7143,15.1145ZM16,8.3123a2.391,2.391,0,1,1-2.4286,2.3908A2.40985,2.40985,0,0,1,16,8.3123Zm6.9821,20.6143a.561.561,0,0,1-.279.4833l-6.3536,3.714a.5787.5787,0,0,1-.5829.0009L9.2988,29.3755a.56066.56066,0,0,1-.2809-.4844V25.649a.5611.5611,0,0,1,.2889-.4889.5786.5786,0,0,1,.5746.0056l4.1141,2.3971V19.5319l-2.2876-1.2587a.56045.56045,0,0,1-.2793-.4835v-3.253a.56118.56118,0,0,1,.2896-.4894.57994.57994,0,0,1,.5751.0065l5.4017,3.112a.56042.56042,0,0,1,.2782.4826v9.9144l4.1454-2.3971a.5786.5786,0,0,1,.5746-.0056.5611.5611,0,0,1,.2889.4889Z" fill="#fff" opacity="0.8"/><path d="M28.1831,4.375c2.2055,0,3.5792.9124,3.594,2.6134H29.3712c-.0222-.5898-.4827-.8067-1.2105-.8067-.646,0-1.0617.2871-1.0617.7106,0,.3249.2969.5593.9058.6878l1.6933.3476C31.3095,8.2756,32,8.9483,32,10.1955c0,1.7085-1.5223,2.8044-3.7799,2.8044-2.3614,0-3.7278-.9391-3.8391-2.6248h2.5545c.0743.6122.5568.8183,1.3292.8183.698,0,1.1287-.2569,1.1287-.6955,0-.3325-.2451-.5215-.8761-.6577l-1.5299-.3251c-1.5817-.34-2.4135-1.1866-2.4135-2.4491C24.5739,5.4181,25.9552,4.375,28.1831,4.375Zm-5.1936,8.7025c0,1.6187-.8972,2.5124-2.8839,2.5124-.2455,0-.942-.0146-1.0833-.0292V13.7148c.0745.0074.5178.0148.622.0148.6549,0,.9271-.221.9271-.7556V4.7512h2.4181ZM20.5543,2.8238a1.33607,1.33607,0,0,1,2.6667,0,1.33559,1.33559,0,0,1-2.6667,0Z" fill="#fff"/></svg>