<svg height="512pt" viewBox="-31 0 512 512.00005" width="512pt" xmlns="http://www.w3.org/2000/svg"><path d="m429.8125 316.535156c12.984375-28.960937 19.570312-59.859375 19.570312-91.84375 0-55.359375-19.898437-107.648437-56.289062-148.738281-3.035156-3.449219-6.25-6.871094-9.523438-10.144531-38.796874-38.796875-89.285156-61.644532-143.519531-65.28125-12.929687-.886719-25.945312-.648438-38.835937.6875-51.144532 5.277344-98.550782 27.738281-135.40625 64.59375-42.4375 42.441406-65.808594 98.863281-65.808594 158.882812 0 60.015625 23.371094 116.441406 65.808594 158.878906s98.863281 65.808594 158.882812 65.808594c8.34375 0 16.722656-.464844 25-1.378906 2.613282 15.847656 10.222656 30.550781 21.886719 42.011719 13.496094 13.265625 31.242187 21.042969 49.96875 21.90625 1.21875.054687 2.433594.082031 3.644531.082031 19.777344 0 38.402344-7.441406 52.773438-21.167969 15.257812-14.574219 23.664062-34.21875 23.664062-55.316406 0-18.84375-6.925781-36.835937-19.285156-50.746094 20.015625-19.691406 35.972656-42.605469 47.46875-68.234375zm-56.828125 56.503906v-192.234374c0-24.503907-18.519531-44.75-42.296875-47.507813v-10.242187c0-7.453126-2.902344-14.457032-8.171875-19.730469l-44.105469-44.101563c-5.269531-5.269531-12.277344-8.171875-19.730468-8.171875h-108.332032c-1.347656 0-2.441406-1.09375-2.441406-2.4375v-19.152343c17.425781-6.875 35.980469-11.484376 55.304688-13.457032 15.300781-1.523437 30.75-1.441406 46.023437.351563 22.386719 2.640625 43.972656 8.851562 64.023437 18.199219 3.851563 1.800781 7.640626 3.71875 11.386719 5.738281 33.398438 18.175781 61.328125 45.171875 80.667969 77.828125l-21.441406 19.621094c-3.039063 2.78125-3.246094 7.496093-.46875 10.535156 3.449218 3.066406 6.960937 3.222656 10.535156.464844l18.714844-17.125c13.953125 28.0625 21.816406 59.664062 21.816406 93.074218 0 55.578125-22.3125 109.148438-61.484375 148.347656zm-227.546875 45.871094c-5.324219-3.804687-6.117188-8.472656-1.980469-13.464844 4.277344-7.027343 3.207031-16-2.613281-21.816406l-46.101562-46.101562c-13.167969-13.171875-20.421876-30.679688-20.421876-49.304688v-70.210937c0-1.945313.570313-3.824219 1.648438-5.441407l19.492188-29.242187c1.851562-2.777344 2.855468-6.007813 2.902343-9.34375l.792969-54.871094c.191406-13.253906 11.128906-24.035156 24.382812-24.035156h80.679688c1.59375 0 2.605469 2.164063 1.457031 3.378906l-30.90625 32.738281c-6.660156 6.753907-6.632812 17.664063.085938 24.382813l13.078125 13.082031c6.746094 6.746094 17.722656 6.742188 24.46875 0 1.160156-.953125 2.300781-.933594 3.429687.054688l26.058594 27.738281c8.835937 9.40625 9.078125 23.8125.5625 33.511719l-64.234375 73.136718c-.453125.515626-1.109375.8125-1.796875.8125h-34.78125c-5.871094 0-11.292969 2.9375-14.5 7.859376l-10.496094 16.125c-4.4375 6.8125-3.484375 15.925781 2.261719 21.675781l20.414062 20.410156c3.882813 3.882813 9.234376 5.734375 14.6875 5.082031 5.449219-.652344 10.214844-3.714844 13.066407-8.40625 4.25-6.972656 13.023437-9.609375 20.417969-6.132812l49.128906 23.136718c3.726562 1.753907 8.167968.15625 9.921875-3.566406 1.753906-3.726562.15625-8.167968-3.566407-9.921875l-49.132812-23.136719c-14.300781-6.734374-31.28125-1.632812-39.503906 11.867188-.628906 1.035156-1.589844 1.292969-2.109375 1.355469-.511719.0625-1.511719.035156-2.367188-.820313l-20.414062-20.414062c-.792969-.792969-.925781-2.050782-.3125-2.992188l10.5-16.125c.441406-.679687 1.191406-1.085937 2.003906-1.085937h34.78125c4.976563 0 9.71875-2.144531 13-5.886719l64.234375-73.136719c13.613281-15.5 13.226562-38.523437-.898438-53.558593l-26.058593-27.738282c-3.234375-3.445312-7.613281-5.378906-12.339844-5.453125-4.703125-.085937-9.164063 1.722657-12.503906 5.0625-1.125.933594-2.25.933594-3.378907 0l-13.078124-13.078125c-.933594-.929687-.933594-2.445312 0-3.378906.050781-.050781.097656-.101562.148437-.152344l30.300781-32.097656c-.195312 4.605469 1.457032 9.269531 4.957032 12.769531l18.660156 18.660157c3.878906 3.878906 9.089844 5.996093 14.460937 5.996093 1.308594 0 2.625-.125 3.933594-.378906 6.699219-1.308594 12.28125-5.839844 14.9375-12.125l3.601563-8.523437c3.261718-7.714844 1.542968-16.523438-4.378907-22.445313l-16.800781-16.800781c-3.292969-3.292969-7.835938-5.121094-12.507812-4.980469-4.65625.128906-9.109376 2.191406-12.21875 5.660156l-9.390626 10.484375c.03125-.738281.027344-1.480468-.042968-2.222656-.457032-4.847656-2.984375-9.265625-6.929688-12.121094-2.902344-2.097656-6.332031-3.207031-9.914062-3.207031h-80.679688c-21.355468 0-38.980468 17.375-39.292968 38.726563l-.789063 54.871093c-.007813.460938-.144531.910157-.402344 1.292969l-19.492187 29.238281c-2.714844 4.074219-4.152344 8.816407-4.152344 13.714844v70.207031c0 22.609375 8.804688 43.867188 24.789062 59.851563l46.101563 46.101562c1.980469 1.980469-1.210937 7.003907-2.558594 8.410157-1.300781 2.136718-2.105469 4.445312-2.460937 6.792968-65.65625-35.484375-110.367188-104.960937-110.367188-184.6875 0-82.8125 48.238282-154.5625 118.085938-188.648437v12.570312c0 9.566407 7.78125 17.347657 17.347656 17.347657h108.335938c3.46875 0 6.730468 1.351562 9.183593 3.804687l44.105469 44.105469c2.453125 2.453125 3.804688 5.714844 3.804688 9.1875v10.835937c-21.90625 4.367188-38.464844 23.738281-38.464844 46.910157v192.6875c0 1.480468-.648438 2.875-1.773438 3.835937-16.632812 14.191406-26.175781 34.210937-26.832031 55.773437-7.941406.902344-15.992187 1.367188-24.015625 1.367188-28.027344 0-54.785156-5.539062-79.25-15.558594zm96.164062-321.722656c.503907-.5625 1.101563-.695312 1.515626-.703125.023437 0 .042968-.003906.0625-.003906.414062 0 .988281.117187 1.492187.621093l16.804687 16.804688c1.605469 1.605469 2.074219 4 1.1875 6.09375l-3.601562 8.523438c-1.042969 2.460937-3.183594 3.121093-4.058594 3.292968-.875.167969-3.105468.363282-4.996094-1.527344l-18.660156-18.660156c-.792968-.792968-.828125-2.070312-.078125-2.90625zm126.0625 382.863281c-12.277343 11.722657-28.425781 17.746094-45.433593 16.96875-30.882813-1.421875-56.59375-26.6875-58.527344-57.519531-1.230469-19.589844 6.609375-38.117188 21.511719-50.828125 4.453125-3.796875 7.003906-9.328125 7.003906-15.179687v-192.6875c0-18.15625 14.769531-32.925782 32.925781-32.925782s32.929688 14.769532 32.929688 32.925782v192.6875c0 5.851562 2.546875 11.382812 6.996093 15.175781 13.753907 11.730469 21.644532 28.804687 21.644532 46.847656 0 16.984375-6.765625 32.800781-19.050782 44.535156zm0 0"/><path d="m343.515625 399.078125.597656-116.566406c.023438-4.117188-3.300781-7.472657-7.417969-7.496094-.011718 0-.023437 0-.039062 0-4.097656 0-7.433594 3.3125-7.453125 7.417969l-.601563 117.34375c-.027343 5.289062 3.058594 10.179687 7.863282 12.453125 9.222656 4.367187 15.179687 13.769531 15.179687 23.957031 0 7.429688-2.996093 14.3125-8.429687 19.382812-5.433594 5.066407-12.53125 7.566407-19.988282 7.046876-12.929687-.90625-23.460937-11.324219-24.488281-24.238282-.859375-10.765625 4.777344-20.890625 14.363281-25.792968 4.625-2.367188 7.515626-7.027344 7.542969-12.164063l1.109375-216.21875c.007813-2.183594 1.792969-3.960937 3.992188-3.960937 1.0625.007812 2.0625.425781 2.808594 1.179687.75.753906 1.15625 1.753906 1.152343 2.808594l-.371093 63.261719c-.023438 4.117187 3.292968 7.476562 7.410156 7.5h.046875c4.097656 0 7.429687-3.308594 7.453125-7.410157l.371094-63.273437c.023437-5.042969-1.917969-9.796875-5.46875-13.378906-3.550782-3.585938-8.289063-5.574219-13.421876-5.59375-10.363281 0-18.839843 8.433593-18.886718 18.796874l-1.105469 215.476563c-14.617187 7.765625-23.183594 23.375-21.863281 39.957031 1.613281 20.207032 18.082031 36.511719 38.316406 37.925782 1.003906.070312 2.007812.105468 3.003906.105468 10.519532 0 20.4375-3.890625 28.191406-11.121094 8.371094-7.808593 13.171876-18.847656 13.171876-30.289062 0-15.675781-9.019532-30.15625-23.039063-37.109375zm0 0"/></svg>