<svg viewBox="0 0 16 16" xmlns="http://www.w3.org/2000/svg">
  <path d="m14 6.27312v4.76331a1.0039 1.0039 0 0 1 -.48626.85079l-5 2.97446a1.02339 1.02339 0 0 1 -1.02748 0l-4.98453-2.96506a1.03184 1.03184 0 0 1 -.50173-.86019v-6.07286a1.004 1.004 0 0 1 .48624-.85088l5-2.97438a1.02342 1.02342 0 0 1 1.0275 0l.48626.28925v-1.16131a2.01718 2.01718 0 0 0 -2.025.01261l-5 2.97436a1.994 1.994 0 0 0 -.975 1.71035v6.07286a2.025 2.025 0 0 0 .975 1.71023l5 2.97448a2.02323 2.02323 0 0 0 2.05 0l5-2.97448a1.9938 1.9938 0 0 0 .975-1.71023v-5.14365a2.80887 2.80887 0 0 1 -1 .38034zm-6-3.02319a1.06253 1.06253 0 1 1 -1.0625 1.06256 1.06252 1.06252 0 0 1 1.0625-1.06256zm3 9.18963a.25007.25007 0 0 1 -.1221.21481l-2.725 1.62294a.24974.24974 0 0 1 -.255.0004l-2.775-1.63864a.25.25 0 0 1 -.1229-.21531v-1.44084a.24991.24991 0 0 1 .3778-.2148l1.6222.89864v-3.4304l-.8778-.55936a.25.25 0 0 1 -.1222-.21486v-1.44584a.25.25 0 0 1 .3783-.2146l2.5 1.38313a.2499.2499 0 0 1 .1217.21451v4.26742l1.6222-.89864a.25.25 0 0 1 .3778.2148zm2.33008-10.93956c.96492 0 1.566.40554 1.57245 1.16146h-1.05263c-.00974-.262-.21117-.35851-.52956-.35851-.28265 0-.46459.12767-.46459.31581 0 .14446.13.24861.39636.30572l.74074.15454c.70501.15455 1.00715.45355 1.00715 1.00789 0 .75928-.666 1.24642-1.65367 1.24642-1.03314 0-1.63093-.41747-1.67966-1.16666h1.11761c.03248.27213.24366.36371.58154.36371.3054 0 .49383-.11422.49383-.30908 0-.14783-.10721-.23182-.38337-.29229l-.66928-.14446c-.692-.15119-1.05588-.52747-1.05588-1.08852.00002-.7324.60431-1.19603 1.57896-1.19603zm-2.17643 3.86784c0 .7194-.48829 1.11654-1.35743 1.11654-.10742 0-.23437-.00652-.29622-.013v-.82038a.7132.7132 0 0 0 .0944.00651c.28646 0 .4056-.09814.4056-.33577v-3.65458h1.15365zm-1.16114-4.55727a.58385.58385 0 1 1 .608.55871l-.023.00052a.56374.56374 0 0 1 -.58462-.54211z"  fill="white"/>
</svg>