<?xml version="1.0" encoding="utf-8"?>
<!-- Generator: Adobe Illustrator 23.0.1, SVG Export Plug-In . SVG Version: 6.00 Build 0)  -->
<svg version="1.1" id="Layer_1" xmlns="http://www.w3.org/2000/svg" xmlns:xlink="http://www.w3.org/1999/xlink" x="0px" y="0px"
	 viewBox="0 0 96 96" style="enable-background:new 0 0 96 96;" xml:space="preserve">
<path d="M7.2562,4.8608h7.2562c1.3358,0,2.4187-1.0829,2.4187-2.4188s-1.0829-2.4187-2.4187-2.4187H7.2562
	c-1.3358,0-2.4188,1.0829-2.4188,2.4187S5.9204,4.8608,7.2562,4.8608z M72.5402,9.7274H55.86l-2.64-6.72
	c-1.2001-1.92-3.2999-3.0601-5.58-3H29.0402c-2.3401-0.1802-4.5601,1.0199-5.7601,3l-2.64,6.72H4.86
	c-2.7001,0-4.86,2.1599-4.86,4.7999v38.7001c0,2.7001,2.1599,4.86,4.86,4.86h47.7001c0-0.0601,0-0.0601,0-0.1201
	c0-13.6798,11.1599-24.8397,24.8401-24.8397V14.5273C77.4001,11.8873,75.2399,9.7274,72.5402,9.7274z M38.7001,53.2274
	c-10.6802,0-19.3802-8.64-19.3802-19.3198c0-10.6802,8.7001-19.3802,19.3802-19.3802c10.6798,0,19.3198,8.7001,19.3198,19.3802
	C58.0199,44.5874,49.3799,53.2274,38.7001,53.2274z M60.4801,19.3873c-1.3202,0-2.4602-1.08-2.4602-2.4598
	c0-1.3202,1.14-2.4001,2.4602-2.4001c1.3198,0,2.3998,1.08,2.3998,2.4001C62.8799,18.3073,61.7999,19.3873,60.4801,19.3873z
	 M38.7,19.3733c-8.015,0-14.5125,6.4975-14.5125,14.5125S30.685,48.3983,38.7,48.3983s14.5125-6.4975,14.5125-14.5125
	S46.715,19.3733,38.7,19.3733L38.7,19.3733z M77.1534,39.112c-10.3123,0-18.8466,8.5343-18.8466,18.8466
	c0,4.2672,2.8448,11.0235,8.1787,20.9802c3.9116,7.1119,10.6679,17.0686,10.6679,17.0686s6.7563-10.3123,10.6679-17.4242
	C93.1552,68.6265,96,61.8702,96,57.603C96,47.6463,87.4657,39.112,77.1534,39.112 M77.1534,67.5597
	c-5.3339,0-9.9567-4.2672-9.9567-9.6011s4.2672-9.6011,9.6011-9.6011s9.6011,4.2672,9.6011,9.6011
	C86.7545,63.2926,82.4873,67.5597,77.1534,67.5597"/>
</svg>
