<svg xmlns="http://www.w3.org/2000/svg" viewBox="0 0 24 24"><title>assets</title><path d="M17,11.58594l1.707,1.707L17.293,14.707,15,12.41406V8h2Zm6.99994.41412A7.99122,7.99122,0,0,1,10.7204,17.99982H5.99994a1,1,0,1,1,0-2.00006H9.07867a7.93843,7.93843,0,0,1-.81652-1.99964H4.99976a1,1,0,0,1,0-2.00006H7.99988a7.98824,7.98824,0,0,1,.26227-2.00018H2.99988a1.00006,1.00006,0,0,1,0-2.00012H9.0791a8.02542,8.02542,0,0,1,1.64142-1.99964H.99988a1,1,0,0,1,0-2.00006H16.00006A8.00022,8.00022,0,0,1,23.99994,12.00006Zm-2,0a6.00673,6.00673,0,0,0-5.99988-6v.00006h-.00122a5.99991,5.99991,0,1,0,6.0011,5.99994Z" fill="#fff"/></svg>