<svg xmlns="http://www.w3.org/2000/svg" viewBox="0 0 24 24"><title>assets</title><path d="M7.31316,5.30017a1.07018,1.07018,0,0,0-1.5295.0441l-5.4869,5.9a1.1102,1.1102,0,0,0,0,1.5079l5.4864,5.9032a1.07019,1.07019,0,0,0,1.5297.0446,1.11024,1.11024,0,0,0,.0445-1.5525l-4.7856-5.1487,4.785-5.1455A1.11064,1.11064,0,0,0,7.31316,5.30017Zm16.3903,5.9473-5.4872-5.9027a1.07108,1.07108,0,0,0-1.5295-.0451,1.11038,1.11038,0,0,0-.0442,1.553l4.7857,5.1487-4.7854,5.1456a1.11035,1.11035,0,0,0,.0439,1.553,1.0696,1.0696,0,0,0,1.5292-.0446l5.487-5.8995A1.11075,1.11075,0,0,0,23.70346,11.24747Zm-9.1138-6.097a1.07718,1.07718,0,0,0-1.3978.6318l-4.4033,11.6482a1.10386,1.10386,0,0,0,.6226,1.4192,1.05872,1.05872,0,0,0,.3875.0733,1.08353,1.08353,0,0,0,1.0103-.7051l4.4033-11.6482A1.10365,1.10365,0,0,0,14.58966,5.15047Z" fill="#fff"/></svg>