<svg xmlns="http://www.w3.org/2000/svg" viewBox="0 0 24 24"><title>assets</title><path d="M23.92436,19.4846l-1.5207-3.4708a.66236.66236,0,0,0-.3382-.3388l-2.3659-1.2695h-.1697a3.7761,3.7761,0,0,1-2.2679.8702,3.10758,3.10758,0,0,1-.9239-.1571l1.4618,3.4613.0277.0648.0213.0674a2.8521,2.8521,0,0,1,.0045,1.7883h5.3952a1.04064,1.04064,0,0,0,.6758-.3388A.92325.92325,0,0,0,23.92436,19.4846Zm-6.676-5.4996c1.6901,0,3.0426-1.6731,3.0426-3.6981,0-2.8173-1.3525-3.6982-3.0426-3.6982s-3.042.8809-3.042,3.6982C14.20636,12.3119,15.55826,13.985,17.24836,13.985Zm-8.9912-1.4543c2.0674,0,3.7221-2.0426,3.7221-4.5158,0-3.4401-1.6547-4.5153-3.7221-4.5153-2.0679,0-3.7221,1.0752-3.7221,4.5153C4.53506,10.4881,6.18926,12.5307,8.25716,12.5307Zm8.1678,6.6656-1.8614-4.408a.82474.82474,0,0,0-.4133-.4301l-2.895-1.6125h-.2065a4.51152,4.51152,0,0,1-5.5832,0h-.2068l-2.8947,1.6125a.82362.82362,0,0,0-.4133.4301l-1.862,4.408a1.23174,1.23174,0,0,0,0,.8602.93034.93034,0,0,0,.8276.4301H15.598a1.26,1.26,0,0,0,.827-.4301A1.225,1.225,0,0,0,16.425,19.1963Z" fill="#fff"/></svg>