<svg xmlns="http://www.w3.org/2000/svg" viewBox="0 0 129 30"><title>assets</title><path d="M31.9955,29.9753H.0105L0,27.2106c1.817.9382,5.9144,1.4224,8.8952,1.5254,8.832.3058,17.7589-2.3702,17.6012-8.2421-.1079-4.0379-9.7005-5.6499-15.5814-5.7985l.4229-.428c9.882.2299,18.0399-1.0991,20.6576-6.9874ZM31.9955,0V2.1483C31.0214,1.1384,29.1181.3276,25.677,0ZM9.2056,25.0575c-1.6405,0-5.6909-.5028-5.6909-2.3139,0-.8824,1.1271-1.8074,1.7944-2.3967l2.8706-2.5646c2.1022,0,12.4612.6388,12.6652,2.8178C21.172,24.097,13.7692,25.0172,9.2056,25.0575ZM14.17,11.3487c4.256-4.0799,4.6146-4.6278,4.9737-5.3414-5.1275,0-7.4954,2.778-10.8283,5.4285-.5056.1237-4.2325.1455-6.2251,1.6508-.6979.5256-1.6932,1.0189-1.0956,1.9401.4292.6642,2.2631.3525,2.8883.3892C2.4622,16.953.8112,18.8214.0105,19.749V0H17.7048A37.476,37.476,0,0,0,9.1674,1.6099,36.66481,36.66481,0,0,0,3.0369,3.962C1.6677,4.7457.036,6.0476.3971,7.4552c.349,1.3593,4.4761-.3372,6.2424-.8187A110.55719,110.55719,0,0,1,20.9386,3.9881c5.9472-.3361,7.3835,1.1362,7.4351,2.0611C28.2508,7.4303,25.758,10.0452,14.17,11.3487ZM128.9926,21.9058c0,3.5282-3.2153,5.0775-5.4252,5.0775a5.91569,5.91569,0,0,1-5.0326-2.2645l2.1605-1.2876a3.78652,3.78652,0,0,0,2.7254,1.2164,2.9201,2.9201,0,0,0,3.1661-3.027v-.6201h-.0479a4.28637,4.28637,0,0,1-3.585,1.5727c-2.6511,0-4.8117-1.9301-4.8117-5.1731V10.7264h2.5531v6.7698a2.526,2.526,0,0,0,2.7996,2.7408,2.69005,2.69005,0,0,0,2.9449-2.9792V10.7264h2.5528Zm-12.9841-5.0059v.4534h-9.8681a3.54628,3.54628,0,0,0,3.6337,3.027,4.26292,4.26292,0,0,0,3.4366-1.7872l2.1597,1.1681a7.257,7.257,0,0,1-5.5232,2.812,6.19011,6.19011,0,0,1-6.5545-6.0779,6.19049,6.19049,0,0,1,6.5545-6.0784A6.29417,6.29417,0,0,1,116.0085,16.8999Zm-6.5046-4.2902a3.34994,3.34994,0,0,0-3.3635,2.6936h6.874A3.55521,3.55521,0,0,0,109.5039,12.6097Zm-9.256,5.0059c0,1.3349.2945,1.8117,1.0562,2.2407l1.3748.7624-1.1295,1.9545c-2.6268-1.2154-3.8547-2.0978-3.8547-4.5047V7.2938h2.5532Zm-6.2591,4.648H91.4362V13.0627H89.9874V10.7264h1.4488V7.6517l2.5526-.6675v3.7422h1.8173v2.3363H93.9888Zm-5.9384-6.9603v6.9603H85.4975V15.8512c0-2.0978-1.1296-2.9558-2.8233-2.9558a2.737,2.737,0,0,0-2.9214,2.9086v6.4596H77.2V10.7264h2.5528v1.4543h.049a4.23361,4.23361,0,0,1,3.6331-1.7638A4.68383,4.68383,0,0,1,88.0504,15.3033ZM74.6482,16.8999v.4534H64.7804a3.54643,3.54643,0,0,0,3.6328,3.027,4.26084,4.26084,0,0,0,3.4366-1.7872l2.1609,1.1681a7.26042,7.26042,0,0,1-5.5235,2.812,6.18993,6.18993,0,0,1-6.5545-6.0779,6.1903,6.1903,0,0,1,6.5545-6.0784A6.29394,6.29394,0,0,1,74.6482,16.8999Zm-6.5046-4.2902a3.34963,3.34963,0,0,0-3.3632,2.6936h6.8737A3.55489,3.55489,0,0,0,68.1436,12.6097Zm-7.7798,5.316c0,2.6691-2.0373,4.3379-4.7378,4.3379H46.8373V15.899h-1.841V13.2766h1.841V7.2938h8.2242c2.3563,0,4.4432,1.3348,4.4432,4.005a3.13759,3.13759,0,0,1-1.8903,2.9792A3.67514,3.67514,0,0,1,60.3638,17.9257ZM49.685,19.6412h5.6218a2.00874,2.00874,0,0,0,2.2099-1.8594,2.01107,2.01107,0,0,0-2.2099-1.8828H49.685Zm5.057-9.725H49.685v3.3604h5.057a1.6946,1.6946,0,1,0,0-3.3604Z" fill="#fff" fill-rule="evenodd"/></svg>