<svg xmlns="http://www.w3.org/2000/svg" viewBox="0 0 24 24"><title>assets</title><path d="M14.78609,12.31277,3.39876,1.298c-.81863-.7919-3.498,0-1.11641,2.3038C.49611,5.32957-1.06676,6.26557.94277,8.20917l1.935-1.8718,1.563,1.5119L2.58013,9.72107c2.00953,1.9438,3.12593.2159,4.6888-1.2958l5.8053,5.5432c-2.15841,2.0877-3.87017,4.8235-1.04191,7.487,4.16785,4.0315,7.74034-.7917,10.643-3.5275C26.54549,14.18457,21.33563,5.97747,14.78609,12.31277Zm6.32626,4.0315c-2.977,2.8076-5.061,5.9752-7.51706,3.5996-2.3073-2.2318,1.48847-4.8235,3.79568-7.1273C19.77266,10.58507,23.41955,14.11257,21.11235,16.34427Z" fill="#fff"/></svg>