<svg xmlns="http://www.w3.org/2000/svg" viewBox="0 0 144 38"><title>assets</title><path d="M120.51758,24.50391a1.44775,1.44775,0,1,1-.43262,1.03222A1.4072,1.4072,0,0,1,120.51758,24.50391Zm5.87988-9.43164h2.49609V26.80859A4.1885,4.1885,0,0,1,128.042,29.46a7.36532,7.36532,0,0,1-2.82129,1.97949l-1.00781-1.99218a5.645,5.645,0,0,0,1.75195-1.24707,2.47789,2.47789,0,0,0,.43262-1.55958Zm.26367-3.36036a1.38984,1.38984,0,1,1-.4082.9834A1.33965,1.33965,0,0,1,126.66113,11.71191ZM132.709,23.23242a5.58468,5.58468,0,0,0,1.70411,1.22363,4.50961,4.50961,0,0,0,1.94433.4795,2.7643,2.7643,0,0,0,1.65625-.46778,1.2789,1.2789,0,0,0,.64746-.99511,1.10832,1.10832,0,0,0-.39551-.88868,2.28554,2.28554,0,0,0-1.11621-.45605l-1.416-.26465a7.19682,7.19682,0,0,1-3.26367-1.21094,2.62136,2.62136,0,0,1-.91211-2.10058A3.48138,3.48138,0,0,1,132.793,15.876a4.77426,4.77426,0,0,1,3.32422-1.11621,7.03985,7.03985,0,0,1,2.32812.38476,9.14859,9.14859,0,0,1,2.28028,1.22363l-1.416,1.752a5.44649,5.44649,0,0,0-1.63184-1.00879,4.38022,4.38022,0,0,0-1.48828-.28711,2.77331,2.77331,0,0,0-1.5.39648,1.20672,1.20672,0,0,0-.63574,1.06739q0,.95946,1.51172,1.22363l2.51953.48047q3.07178.57568,3.07227,3.0957a3.46035,3.46035,0,0,1-.28809,1.35547,3.89235,3.89235,0,0,1-.88769,1.27246,4.28643,4.28643,0,0,1-1.54786.93652A6.37558,6.37558,0,0,1,136.2373,27a7.91071,7.91071,0,0,1-5.23144-2.04Z" fill="#fff"/><path d="M49.4082,11.71191A1.39043,1.39043,0,1,1,49,12.6958,1.34091,1.34091,0,0,1,49.4082,11.71191ZM49.144,15.07178h2.4961V26.688H49.144Zm5.87989-3.76758,6.69628,6.76758,6.69532-6.76758V26.688H65.63232V17.376l-3.91211,4.05615L57.80811,17.376v9.312H55.02393ZM71.31982,18.624a5.98315,5.98315,0,0,1,3.31153-3.35986,7.28764,7.28764,0,0,1,5.32812,0A5.98315,5.98315,0,0,1,83.271,18.624a6.09921,6.09921,0,0,1,0,4.51221,5.98315,5.98315,0,0,1-3.31153,3.35986,7.2941,7.2941,0,0,1-5.32812,0,5.98315,5.98315,0,0,1-3.31153-3.35986,6.09921,6.09921,0,0,1,0-4.51221Zm3.28809,4.93213a3.86922,3.86922,0,0,0,5.3877,0,3.88566,3.88566,0,0,0,0-5.352,3.868,3.868,0,0,0-5.3877,0,3.85512,3.85512,0,0,0,0,5.352ZM95.03174,25.272h-.04883a4.15775,4.15775,0,0,1-1.61914,1.26026A5.21563,5.21563,0,0,1,91.16748,27a5.93335,5.93335,0,0,1-2.49609-.51611,5.80809,5.80809,0,0,1-1.91993-1.39209,6.03526,6.03526,0,0,1-1.20019-1.98,6.38041,6.38041,0,0,1-.4082-2.23194,5.86941,5.86941,0,0,1,.43261-2.17187,6.50394,6.50394,0,0,1,1.248-1.99219,5.98078,5.98078,0,0,1,1.96777-1.42773,5.91513,5.91513,0,0,1,2.4961-.52832,4.95459,4.95459,0,0,1,2.21972.48,3.63642,3.63642,0,0,1,1.47559,1.248h.04883V11.61621h2.49512V26.688H95.03174Zm-6.96-2.93994a3.83409,3.83409,0,0,0,.80371,1.21192,3.65528,3.65528,0,0,0,1.1875.81591,3.55961,3.55961,0,0,0,1.416.28809,3.56714,3.56714,0,0,0,2.56836-1.104,3.97318,3.97318,0,0,0,.792-1.21192,3.80279,3.80279,0,0,0,0-2.90381,3.98133,3.98133,0,0,0-.792-1.2124,3.544,3.544,0,0,0-1.17578-.81592,3.50323,3.50323,0,0,0-1.39258-.28808,3.55977,3.55977,0,0,0-1.416.28808,3.66306,3.66306,0,0,0-1.1875.81592,3.8417,3.8417,0,0,0-.80371,1.2124,3.80267,3.80267,0,0,0,0,2.90381ZM111.83154,24.168a7.8198,7.8198,0,0,1-2.46,2.064A6.41956,6.41956,0,0,1,106.43213,27a6.81328,6.81328,0,0,1-2.66406-.50391,5.98885,5.98885,0,0,1-3.3125-3.35986,6.11195,6.11195,0,0,1,0-4.51221,5.98885,5.98885,0,0,1,3.3125-3.35986,6.81338,6.81338,0,0,1,2.66406-.50439,5.65319,5.65319,0,0,1,2.00391.396,6.41489,6.41489,0,0,1,1.96777,1.2124,6.00384,6.00384,0,0,1,1.48828,2.064,6.88367,6.88367,0,0,1,.56348,2.856v.45605h-9.64746a3.01963,3.01963,0,0,0,1.15136,2.17188,3.65661,3.65661,0,0,0,2.40039.876,4.05179,4.05179,0,0,0,3.36035-1.7998Zm-2.30371-4.48779a3.73921,3.73921,0,0,0-1.30762-2.01612,3.43746,3.43746,0,0,0-2.124-.69629,3.211,3.211,0,0,0-2.08789.72022,3.55778,3.55778,0,0,0-1.20019,1.99219ZM117.49561,27h-2.4961V11.61621h2.4961Z" fill="#fff" opacity="0.8"/><path d="M30.2498,13.95707V25.832a2.25862,2.25862,0,0,1-1.0941,1.91427L17.90578,34.43889a2.30307,2.30307,0,0,1-2.31177,0L4.37882,27.76745A2.32167,2.32167,0,0,1,3.25,25.832V12.168a2.25893,2.25893,0,0,1,1.0941-1.91442L15.594,3.56124a2.30221,2.30221,0,0,1,2.31177,0L23.04515,6.6184l.1343-.01881V4.08035l-4.12332-2.4529a4.55209,4.55209,0,0,0-4.61247,0L3.19373,8.31983A4.48643,4.48643,0,0,0,1,12.168V25.832A4.55626,4.55626,0,0,0,3.19374,29.68l11.24992,6.69266a4.553,4.553,0,0,0,4.61247,0L30.30605,29.68A4.486,4.486,0,0,0,32.49979,25.832V14.42825A7.33166,7.33166,0,0,1,30.2498,13.95707ZM16.74989,8.31238a2.3907,2.3907,0,1,1-2.39061,2.39069h0A2.39066,2.39066,0,0,1,16.74989,8.31238Zm6.75,20.67672a.56265.56265,0,0,1-.27473.48332L17.09392,33.124a.56188.56188,0,0,1-.57375.0009l-6.24371-3.68683a.56238.56238,0,0,1-.27652-.48456V25.71166a.56228.56228,0,0,1,.85-.48331l3.64993,2.022V19.53187l-1.975-1.25846a.56255.56255,0,0,1-.275-.48354V14.53673a.56249.56249,0,0,1,.85117-.48286l5.625,3.11206a.56225.56225,0,0,1,.27382.48264V27.2503l3.64992-2.022a.5625.5625,0,0,1,.85.48331Z" fill="#fff" opacity="0.8"/><path d="M25.42943,3.39881h2.61719V8.11449a7.64047,7.64047,0,0,1-.25582,2.26221,2.57588,2.57588,0,0,1-1.0332,1.312,3.395,3.395,0,0,1-1.98538.53777,4.4843,4.4843,0,0,1-1.98314-.35529A2.51859,2.51859,0,0,1,21.703,10.83391a3.99389,3.99389,0,0,1-.45315-1.69137l2.49636-.35033a2.99421,2.99421,0,0,0,.09787.85255.9122.9122,0,0,0,.3114.45.80931.80931,0,0,0,1.06875-.22028,2.272,2.272,0,0,0,.20519-1.12728Zm3.90305,5.81011L31.81692,9.048a1.9925,1.9925,0,0,0,.32872.94728,1.36671,1.36671,0,0,0,1.15289.52561,1.24844,1.24844,0,0,0,.86152-.26753.81322.81322,0,0,0,.30307-.62529.804.804,0,0,0-.28822-.60392A3.26777,3.26777,0,0,0,32.83729,8.522,5.59121,5.59121,0,0,1,30.3875,7.4658a2.13649,2.13649,0,0,1-.738-1.67473,2.32093,2.32093,0,0,1,.378-1.26475,2.5242,2.5242,0,0,1,1.13466-.93558,5.17337,5.17337,0,0,1,2.07876-.34111,4.16767,4.16767,0,0,1,2.47093.62057A2.69076,2.69076,0,0,1,36.723,5.83855l-2.46171.14918a1.35905,1.35905,0,0,0-.41265-.85277,1.28576,1.28576,0,0,0-.86692-.26754,1.0246,1.0246,0,0,0-.68624.19891.612.612,0,0,0-.2304.48084.48878.48878,0,0,0,.1899.37418,2.13123,2.13123,0,0,0,.87659.31974,10.84256,10.84256,0,0,1,2.45361.76749,2.5819,2.5819,0,0,1,1.07662.96168,2.48423,2.48423,0,0,1,.33795,1.28614,2.83491,2.83491,0,0,1-1.70639,2.60782,4.98546,4.98546,0,0,1-2.03511.36226,4.11424,4.11424,0,0,1-2.98641-.85278A3.396,3.396,0,0,1,29.33248,9.20892Z" fill="#fff"/></svg>