<svg viewBox="0 0 36 36" xmlns="http://www.w3.org/2000/svg"><g fill="#fff"><path d="m31.7143 14.1145v10.7174a2.25132 2.25132 0 0 1 -1.1116 1.9143l-11.4285 6.6926a2.37078 2.37078 0 0 1 -2.3484 0l-11.3933-6.6715a2.3155 2.3155 0 0 1 -1.1468-1.9354v-13.6638a2.252 2.252 0 0 1 1.1113-1.9145l11.4288-6.6924a2.3712 2.3712 0 0 1 2.3486 0l1.1113.6509v-2.6132a4.6745 4.6745 0 0 0 -4.6286.0286l-11.4285 6.6922a4.47314 4.47314 0 0 0 -2.2286 3.8484v13.6638a4.54268 4.54268 0 0 0 2.2286 3.8482l11.4285 6.6924a4.68758 4.68758 0 0 0 4.6858 0l11.4285-6.6924a4.47293 4.47293 0 0 0 2.2286-3.8482v-11.5731a6.484 6.484 0 0 1 -2.2857.8557zm-13.7143-6.8022a2.391 2.391 0 1 1 -2.4286 2.3908 2.391 2.391 0 0 1 2.4286-2.3908zm6.9821 20.6143a.561.561 0 0 1 -.279.4833l-6.3536 3.714a.5787.5787 0 0 1 -.5829.0009l-6.4678-3.7493a.56068.56068 0 0 1 -.2809-.4844v-3.2421a.56111.56111 0 0 1 .2889-.4889.57862.57862 0 0 1 .5746.0056l4.1141 2.3971v-8.0309l-2.2876-1.2587a.56043.56043 0 0 1 -.2793-.4835v-3.253a.56119.56119 0 0 1 .2896-.4894.58.58 0 0 1 .5751.0065l5.4017 3.112a.56043.56043 0 0 1 .2782.4826v9.9144l4.1454-2.3971a.57862.57862 0 0 1 .5746-.0056.56109.56109 0 0 1 .2889.4889z" opacity=".8"/><path d="m30.1831 3.375c2.2055 0 3.5792.9124 3.594 2.6134h-2.4059c-.0222-.5898-.4827-.8067-1.2105-.8067-.646 0-1.0617.2871-1.0617.7106 0 .3249.2969.5593.9058.6878l1.6933.3476c1.6114.3479 2.3019 1.0206 2.3019 2.2678 0 1.7085-1.5223 2.8044-3.7799 2.8044-2.3614 0-3.7278-.9391-3.8391-2.6248h2.5545c.0743.6122.5568.8183 1.3292.8183.698 0 1.1287-.2569 1.1287-.6955 0-.3325-.2451-.5215-.8761-.6577l-1.5299-.3251c-1.5817-.34-2.4135-1.1866-2.4135-2.4491 0-1.6479 1.3813-2.691 3.6092-2.691zm-5.1936 8.7025c0 1.6187-.8972 2.5124-2.8839 2.5124-.2455 0-.942-.0146-1.0833-.0292v-1.8459c.0745.0074.5178.0148.622.0148.6549 0 .9271-.221.9271-.7556v-8.2228h2.4181zm-2.4352-10.2537a1.33607 1.33607 0 0 1 2.6667 0 1.33559 1.33559 0 0 1 -2.6667 0z"/></g></svg>