<svg viewBox="0 0 16 16" xmlns="http://www.w3.org/2000/svg"><path d="m8.0083 3.5a.9986.9986 0 1 1 1.99719 0v4.98566l.01288-.01819a1.05074 1.05074 0 0 1 .90643-.47376 1.06325 1.06325 0 0 1 1.08429 1.03229v.01691a1.0512 1.0512 0 0 1 .90662-.47394 1.06347 1.06347 0 0 1 1.08429 1.03223v.03387l-.00922 3.08623a3.17207 3.17207 0 0 1 -1.01814 2.3115 3.48333 3.48333 0 0 1 -2.43293.9672h-2.62846a3.94133 3.94133 0 0 1 -3.01325-1.3606l-2.63451-3.03283a.95139.95139 0 0 1 -.24109-.78687.998.998 0 0 1 .44769-.6886 1.08414 1.08414 0 0 1 1.34308.11481l1.06751 1a.12088.12088 0 0 0 .12762.03546v-6.28137a.99233.99233 0 0 1 1.98248-.07294v3.57294a.5.5 0 0 0 1 0z"/><path d="m4.0083 7.22827v-2.14618c-.00116-.02783-.0083-.05395-.0083-.08209a2.00226 2.00226 0 0 1 2-2l.0033.00037.0036-.00037c.00885 0 .01684.00342.02563.00354.05078.003.10065.00952.15015.01648l.08014.01105.67157.08923.28277-.50323a1.99994 1.99994 0 0 1 .361-.50361l.01764-.019a2.0018 2.0018 0 0 1 .40143-.31561l.013-.00653a1.9841 1.9841 0 0 1 .41126-.17615c.03644-.01147.07214-.02234.10931-.03168a1.97681 1.97681 0 0 1 .4541-.06237l.0151-.00212.00336.00037.00354-.00037a2.00152 2.00152 0 0 1 1.99859 2v2.21692a2.99031 2.99031 0 1 0 -4.611-3.67713 2.962 2.962 0 0 0 -.39449-.03979 2.98952 2.98952 0 0 0 -1.9917 5.22827z" opacity=".55"/></svg>