<svg xmlns="http://www.w3.org/2000/svg" viewBox="0 0 48 52"><title>assets</title><path d="M44.6572,41.427,27.5143,51.09388a7.268,7.268,0,0,1-7.0286,0L3.3428,41.427A6.42139,6.42139,0,0,1,0,35.86877V16.13183a6.52,6.52,0,0,1,3.3428-5.55837L20.4857.90612a7.268,7.268,0,0,1,7.0286,0l17.1429,9.66734A6.42213,6.42213,0,0,1,48,16.13183V35.94892A6.29679,6.29679,0,0,1,44.6572,41.427Z" fill="#335569"/><path d="M24,2a5.16027,5.16027,0,0,1,2.53189.6482l17.16369,9.67891A4.42321,4.42321,0,0,1,46,16.13183V35.94892a4.31238,4.31238,0,0,1-2.32518,3.736l-17.1427,9.66673a5.26891,5.26891,0,0,1-5.064.00011L4.30431,39.67334A4.42272,4.42272,0,0,1,2,35.86876V16.13183a4.54075,4.54075,0,0,1,2.32521-3.81629L21.46789,2.64832A5.16048,5.16048,0,0,1,24,2m0-2a7.171,7.171,0,0,0-3.51431.90612L3.3428,10.57346A6.52,6.52,0,0,0,0,16.13183V35.86876a6.42144,6.42144,0,0,0,3.3428,5.55829l17.14289,9.66683a7.268,7.268,0,0,0,7.02862,0L44.6572,41.42705A6.29682,6.29682,0,0,0,48,35.94892V16.13183a6.42217,6.42217,0,0,0-3.3428-5.55837L27.51431.90612A7.171,7.171,0,0,0,24,0Z" fill="#002a44"/></svg>