<?xml version="1.0" encoding="utf-8"?>
<svg version="1.1" xmlns:xlink="http://www.w3.org/1999/xlink" width="22px" height="22px" xmlns="http://www.w3.org/2000/svg">
  <defs>
    <mask fill="white" id="clip30">
      <path d="M 21.8625 20.075000000000003  L 15.125 13.337499999999999  C 16.0875 11.962499999999999  16.6375 10.3125  16.6375 8.525  C 16.775 3.7125000000000004  12.924999999999997 0  8.3875 0  C 3.7124999999999995 0  0 3.7125000000000004  0 8.3875  C 0 13.0625  3.7125000000000004 16.775  8.3875 16.775  C 10.174999999999999 16.775  11.825 16.225  13.2 15.262500000000003  L 19.9375 22  L 21.8625 20.075000000000003  Z M 13.8875 8.387500000000001  C 13.8875 11.549999999999997  11.412499999999998 14.024999999999999  8.25 14.024999999999999  C 5.0875 14.024999999999999  2.6125000000000007 11.549999999999997  2.6125000000000007 8.387500000000001  C 2.6125000000000007 5.225000000000001  5.0875 2.7500000000000013  8.25 2.7500000000000013  C 11.412500000000001 2.7500000000000013  13.8875 5.225000000000001  13.8875 8.387500000000001  Z " fill-rule="evenodd" />
    </mask>
  </defs>
  <g transform="matrix(1 0 0 1 -162 -1962 )">
    <path d="M 21.8625 20.075000000000003  L 15.125 13.337499999999999  C 16.0875 11.962499999999999  16.6375 10.3125  16.6375 8.525  C 16.775 3.7125000000000004  12.924999999999997 0  8.3875 0  C 3.7124999999999995 0  0 3.7125000000000004  0 8.3875  C 0 13.0625  3.7125000000000004 16.775  8.3875 16.775  C 10.174999999999999 16.775  11.825 16.225  13.2 15.262500000000003  L 19.9375 22  L 21.8625 20.075000000000003  Z M 13.8875 8.387500000000001  C 13.8875 11.549999999999997  11.412499999999998 14.024999999999999  8.25 14.024999999999999  C 5.0875 14.024999999999999  2.6125000000000007 11.549999999999997  2.6125000000000007 8.387500000000001  C 2.6125000000000007 5.225000000000001  5.0875 2.7500000000000013  8.25 2.7500000000000013  C 11.412500000000001 2.7500000000000013  13.8875 5.225000000000001  13.8875 8.387500000000001  Z " fill-rule="nonzero" fill="#677480" stroke="none" fill-opacity="0" transform="matrix(1 0 0 1 162 1962 )" />
    <path d="M 21.8625 20.075000000000003  L 15.125 13.337499999999999  C 16.0875 11.962499999999999  16.6375 10.3125  16.6375 8.525  C 16.775 3.7125000000000004  12.924999999999997 0  8.3875 0  C 3.7124999999999995 0  0 3.7125000000000004  0 8.3875  C 0 13.0625  3.7125000000000004 16.775  8.3875 16.775  C 10.174999999999999 16.775  11.825 16.225  13.2 15.262500000000003  L 19.9375 22  L 21.8625 20.075000000000003  Z " stroke-width="2" stroke="#000000" fill="none" stroke-opacity="0.8" transform="matrix(1 0 0 1 162 1962 )" mask="url(#clip30)" />
    <path d="M 13.8875 8.387500000000001  C 13.8875 11.549999999999997  11.412499999999998 14.024999999999999  8.25 14.024999999999999  C 5.0875 14.024999999999999  2.6125000000000007 11.549999999999997  2.6125000000000007 8.387500000000001  C 2.6125000000000007 5.225000000000001  5.0875 2.7500000000000013  8.25 2.7500000000000013  C 11.412500000000001 2.7500000000000013  13.8875 5.225000000000001  13.8875 8.387500000000001  Z " stroke-width="2" stroke="#000000" fill="none" stroke-opacity="0.8" transform="matrix(1 0 0 1 162 1962 )" mask="url(#clip30)" />
  </g>
</svg>