<?xml version="1.0" encoding="utf-8"?>
<svg version="1.1" xmlns:xlink="http://www.w3.org/1999/xlink" width="20px" height="24px" xmlns="http://www.w3.org/2000/svg">
  <defs>
    <mask fill="white" id="clip29">
      <path d="M 19.413999999999998 21.07371428571428  L 12 14.718857142857143  L 12 8.571428571428571  L 16 8.571428571428571  L 10 0  L 4 8.571428571428571  L 8 8.571428571428571  L 8 14.718857142857143  L 0.5860000000000003 21.073714285714285  L 3.4139999999999997 23.497714285714284  L 10 17.852571428571423  L 16.586 23.49771428571428  L 19.413999999999998 21.07371428571428  Z " fill-rule="evenodd" />
    </mask>
  </defs>
  <g transform="matrix(1 0 0 1 -163 -1860 )">
    <path d="M 19.413999999999998 21.07371428571428  L 12 14.718857142857143  L 12 8.571428571428571  L 16 8.571428571428571  L 10 0  L 4 8.571428571428571  L 8 8.571428571428571  L 8 14.718857142857143  L 0.5860000000000003 21.073714285714285  L 3.4139999999999997 23.497714285714284  L 10 17.852571428571423  L 16.586 23.49771428571428  L 19.413999999999998 21.07371428571428  Z " fill-rule="nonzero" fill="#000000" stroke="none" fill-opacity="0" transform="matrix(1 0 0 1 163 1860 )" />
    <path d="M 19.413999999999998 21.07371428571428  L 12 14.718857142857143  L 12 8.571428571428571  L 16 8.571428571428571  L 10 0  L 4 8.571428571428571  L 8 8.571428571428571  L 8 14.718857142857143  L 0.5860000000000003 21.073714285714285  L 3.4139999999999997 23.497714285714284  L 10 17.852571428571423  L 16.586 23.49771428571428  L 19.413999999999998 21.07371428571428  Z " stroke-width="2" stroke="#000000" fill="none" stroke-opacity="0.8" transform="matrix(1 0 0 1 163 1860 )" mask="url(#clip29)" />
  </g>
</svg>