<?xml version="1.0" encoding="utf-8"?>
<svg version="1.1" xmlns:xlink="http://www.w3.org/1999/xlink" width="21px" height="19px" xmlns="http://www.w3.org/2000/svg">
  <defs>
    <mask fill="white" id="clip32">
      <path d="M 20.159999999999997 16.96428571428572  L 17.64 14.657142857142858  L 20.02 12.07857142857143  L 19.04 11.12857142857143  L 16.66 13.707142857142859  L 13.579999999999998 10.992857142857144  L 15.959999999999997 8.414285714285716  L 14.979999999999999 7.464285714285715  L 12.6 10.178571428571429  L 10.219999999999999 8.142857142857142  C 11.620000000000001 6.107142857142858  11.339999999999998 3.392857142857143  9.52 1.6285714285714288  C 9.1 1.357142857142857  8.54 0.95  7.98 0.8142857142857144  C 6.020000000000001 0.13571428571428584  3.7800000000000002 0.542857142857143  2.3800000000000003 2.1714285714285717  C 0.56 4.071428571428571  0.7 7.192857142857143  2.6599999999999997 9.092857142857143  C 3.2199999999999998 9.5  3.7800000000000002 9.77142857142857  4.34 10.042857142857143  C 6.0200000000000005 10.721428571428572  7.98 10.450000000000001  9.379999999999999 9.22857142857143  L 19.18 17.914285714285715  L 20.159999999999997 16.96428571428572  Z M 5.880000000000001 2.4428571428571426  C 6.4399999999999995 2.985714285714286  6.4399999999999995 3.9357142857142855  5.880000000000001 4.478571428571429  C 5.319999999999999 5.157142857142857  4.34 5.157142857142857  3.7800000000000002 4.614285714285715  C 3.2199999999999998 4.071428571428571  3.08 3.1214285714285714  3.64 2.4428571428571426  C 4.2 1.9  5.18 1.9  5.880000000000001 2.4428571428571426  Z " fill-rule="evenodd" />
    </mask>
  </defs>
  <g transform="matrix(1 0 0 1 -762 -1863 )">
    <path d="M 20.159999999999997 16.96428571428572  L 17.64 14.657142857142858  L 20.02 12.07857142857143  L 19.04 11.12857142857143  L 16.66 13.707142857142859  L 13.579999999999998 10.992857142857144  L 15.959999999999997 8.414285714285716  L 14.979999999999999 7.464285714285715  L 12.6 10.178571428571429  L 10.219999999999999 8.142857142857142  C 11.620000000000001 6.107142857142858  11.339999999999998 3.392857142857143  9.52 1.6285714285714288  C 9.1 1.357142857142857  8.54 0.95  7.98 0.8142857142857144  C 6.020000000000001 0.13571428571428584  3.7800000000000002 0.542857142857143  2.3800000000000003 2.1714285714285717  C 0.56 4.071428571428571  0.7 7.192857142857143  2.6599999999999997 9.092857142857143  C 3.2199999999999998 9.5  3.7800000000000002 9.77142857142857  4.34 10.042857142857143  C 6.0200000000000005 10.721428571428572  7.98 10.450000000000001  9.379999999999999 9.22857142857143  L 19.18 17.914285714285715  L 20.159999999999997 16.96428571428572  Z M 5.880000000000001 2.4428571428571426  C 6.4399999999999995 2.985714285714286  6.4399999999999995 3.9357142857142855  5.880000000000001 4.478571428571429  C 5.319999999999999 5.157142857142857  4.34 5.157142857142857  3.7800000000000002 4.614285714285715  C 3.2199999999999998 4.071428571428571  3.08 3.1214285714285714  3.64 2.4428571428571426  C 4.2 1.9  5.18 1.9  5.880000000000001 2.4428571428571426  Z " fill-rule="nonzero" fill="#677480" stroke="none" fill-opacity="0" transform="matrix(1 0 0 1 762 1863 )" />
    <path d="M 20.159999999999997 16.96428571428572  L 17.64 14.657142857142858  L 20.02 12.07857142857143  L 19.04 11.12857142857143  L 16.66 13.707142857142859  L 13.579999999999998 10.992857142857144  L 15.959999999999997 8.414285714285716  L 14.979999999999999 7.464285714285715  L 12.6 10.178571428571429  L 10.219999999999999 8.142857142857142  C 11.620000000000001 6.107142857142858  11.339999999999998 3.392857142857143  9.52 1.6285714285714288  C 9.1 1.357142857142857  8.54 0.95  7.98 0.8142857142857144  C 6.020000000000001 0.13571428571428584  3.7800000000000002 0.542857142857143  2.3800000000000003 2.1714285714285717  C 0.56 4.071428571428571  0.7 7.192857142857143  2.6599999999999997 9.092857142857143  C 3.2199999999999998 9.5  3.7800000000000002 9.77142857142857  4.34 10.042857142857143  C 6.0200000000000005 10.721428571428572  7.98 10.450000000000001  9.379999999999999 9.22857142857143  L 19.18 17.914285714285715  L 20.159999999999997 16.96428571428572  Z " stroke-width="2" stroke="#000000" fill="none" stroke-opacity="0.8" transform="matrix(1 0 0 1 762 1863 )" mask="url(#clip32)" />
    <path d="M 5.880000000000001 2.4428571428571426  C 6.4399999999999995 2.985714285714286  6.4399999999999995 3.9357142857142855  5.880000000000001 4.478571428571429  C 5.319999999999999 5.157142857142857  4.34 5.157142857142857  3.7800000000000002 4.614285714285715  C 3.2199999999999998 4.071428571428571  3.08 3.1214285714285714  3.64 2.4428571428571426  C 4.2 1.9  5.18 1.9  5.880000000000001 2.4428571428571426  Z " stroke-width="2" stroke="#000000" fill="none" stroke-opacity="0.8" transform="matrix(1 0 0 1 762 1863 )" mask="url(#clip32)" />
  </g>
</svg>