<?xml version="1.0" encoding="utf-8"?>
<svg version="1.1" xmlns:xlink="http://www.w3.org/1999/xlink" width="7px" height="22px" xmlns="http://www.w3.org/2000/svg">
  <defs>
    <mask fill="white" id="clip33">
      <path d="M 6.2152466367713 16.796875  C 6.414050822122571 16.994791666666664  6.513452914798206 17.229166666666664  6.513452914798206 17.5  L 6.513452914798206 21  C 6.513452914798206 21.270833333333332  6.414050822122571 21.505208333333332  6.2152466367713 21.703125  C 6.016442451420031 21.901041666666668  5.7810164424514205 22  5.508968609865471 22  L 1.4910313901345291 22  C 1.2189835575485803 22  0.9835575485799704 21.901041666666668  0.7847533632286996 21.703125  C 0.5859491778774291 21.505208333333332  0.4865470852017938 21.270833333333332  0.4865470852017938 21  L 0.4865470852017938 17.5  C 0.4865470852017938 17.229166666666664  0.5859491778774291 16.994791666666664  0.7847533632286996 16.796875  C 0.9835575485799704 16.598958333333332  1.2189835575485803 16.5  1.4910313901345291 16.5  L 5.508968609865471 16.5  C 5.7810164424514205 16.5  6.016442451420031 16.598958333333332  6.2152466367713 16.796875  Z M 6.709641255605382 0.2968750000000011  C 6.903213751868461 0.49479166666666363  6.99476831091181 0.7291666666666654  6.984304932735426 0.9999999999999991  L 6.544843049327355 12.999999999999998  C 6.5343796711509725 13.270833333333332  6.42713004484305 13.505208333333332  6.223094170403587 13.703124999999998  C 6.019058295964126 13.901041666666666  5.7810164424514205 14  5.508968609865471 14  L 1.4910313901345291 14  C 1.2189835575485803 14  0.9809417040358743 13.901041666666666  0.7769058295964125 13.703124999999998  C 0.5728699551569507 13.505208333333332  0.4656203288490285 13.270833333333332  0.4551569506726457 12.999999999999998  L 0.01569506726457399 0.9999999999999991  C 0.00523168908819148 0.7291666666666654  0.09678624813153969 0.49479166666666363  0.29035874439461884 0.2968750000000011  C 0.48393124065769816 0.09895833333333126  0.7167414050822125 0  0.9887892376681614 0  L 6.011210762331839 0  C 6.283258594917788 0  6.5160687593423035 0.09895833333333126  6.709641255605382 0.2968750000000011  Z " fill-rule="evenodd" />
    </mask>
  </defs>
  <g transform="matrix(1 0 0 1 -769 -2068 )">
    <path d="M 6.2152466367713 16.796875  C 6.414050822122571 16.994791666666664  6.513452914798206 17.229166666666664  6.513452914798206 17.5  L 6.513452914798206 21  C 6.513452914798206 21.270833333333332  6.414050822122571 21.505208333333332  6.2152466367713 21.703125  C 6.016442451420031 21.901041666666668  5.7810164424514205 22  5.508968609865471 22  L 1.4910313901345291 22  C 1.2189835575485803 22  0.9835575485799704 21.901041666666668  0.7847533632286996 21.703125  C 0.5859491778774291 21.505208333333332  0.4865470852017938 21.270833333333332  0.4865470852017938 21  L 0.4865470852017938 17.5  C 0.4865470852017938 17.229166666666664  0.5859491778774291 16.994791666666664  0.7847533632286996 16.796875  C 0.9835575485799704 16.598958333333332  1.2189835575485803 16.5  1.4910313901345291 16.5  L 5.508968609865471 16.5  C 5.7810164424514205 16.5  6.016442451420031 16.598958333333332  6.2152466367713 16.796875  Z M 6.709641255605382 0.2968750000000011  C 6.903213751868461 0.49479166666666363  6.99476831091181 0.7291666666666654  6.984304932735426 0.9999999999999991  L 6.544843049327355 12.999999999999998  C 6.5343796711509725 13.270833333333332  6.42713004484305 13.505208333333332  6.223094170403587 13.703124999999998  C 6.019058295964126 13.901041666666666  5.7810164424514205 14  5.508968609865471 14  L 1.4910313901345291 14  C 1.2189835575485803 14  0.9809417040358743 13.901041666666666  0.7769058295964125 13.703124999999998  C 0.5728699551569507 13.505208333333332  0.4656203288490285 13.270833333333332  0.4551569506726457 12.999999999999998  L 0.01569506726457399 0.9999999999999991  C 0.00523168908819148 0.7291666666666654  0.09678624813153969 0.49479166666666363  0.29035874439461884 0.2968750000000011  C 0.48393124065769816 0.09895833333333126  0.7167414050822125 0  0.9887892376681614 0  L 6.011210762331839 0  C 6.283258594917788 0  6.5160687593423035 0.09895833333333126  6.709641255605382 0.2968750000000011  Z " fill-rule="nonzero" fill="#000000" stroke="none" fill-opacity="0" transform="matrix(1 0 0 1 769 2068 )" />
    <path d="M 6.2152466367713 16.796875  C 6.414050822122571 16.994791666666664  6.513452914798206 17.229166666666664  6.513452914798206 17.5  L 6.513452914798206 21  C 6.513452914798206 21.270833333333332  6.414050822122571 21.505208333333332  6.2152466367713 21.703125  C 6.016442451420031 21.901041666666668  5.7810164424514205 22  5.508968609865471 22  L 1.4910313901345291 22  C 1.2189835575485803 22  0.9835575485799704 21.901041666666668  0.7847533632286996 21.703125  C 0.5859491778774291 21.505208333333332  0.4865470852017938 21.270833333333332  0.4865470852017938 21  L 0.4865470852017938 17.5  C 0.4865470852017938 17.229166666666664  0.5859491778774291 16.994791666666664  0.7847533632286996 16.796875  C 0.9835575485799704 16.598958333333332  1.2189835575485803 16.5  1.4910313901345291 16.5  L 5.508968609865471 16.5  C 5.7810164424514205 16.5  6.016442451420031 16.598958333333332  6.2152466367713 16.796875  Z " stroke-width="2" stroke="#000000" fill="none" stroke-opacity="0.8" transform="matrix(1 0 0 1 769 2068 )" mask="url(#clip33)" />
    <path d="M 6.709641255605382 0.2968750000000011  C 6.903213751868461 0.49479166666666363  6.99476831091181 0.7291666666666654  6.984304932735426 0.9999999999999991  L 6.544843049327355 12.999999999999998  C 6.5343796711509725 13.270833333333332  6.42713004484305 13.505208333333332  6.223094170403587 13.703124999999998  C 6.019058295964126 13.901041666666666  5.7810164424514205 14  5.508968609865471 14  L 1.4910313901345291 14  C 1.2189835575485803 14  0.9809417040358743 13.901041666666666  0.7769058295964125 13.703124999999998  C 0.5728699551569507 13.505208333333332  0.4656203288490285 13.270833333333332  0.4551569506726457 12.999999999999998  L 0.01569506726457399 0.9999999999999991  C 0.00523168908819148 0.7291666666666654  0.09678624813153969 0.49479166666666363  0.29035874439461884 0.2968750000000011  C 0.48393124065769816 0.09895833333333126  0.7167414050822125 0  0.9887892376681614 0  L 6.011210762331839 0  C 6.283258594917788 0  6.5160687593423035 0.09895833333333126  6.709641255605382 0.2968750000000011  Z " stroke-width="2" stroke="#000000" fill="none" stroke-opacity="0.8" transform="matrix(1 0 0 1 769 2068 )" mask="url(#clip33)" />
  </g>
</svg>