<?xml version="1.0" encoding="utf-8"?>
<svg version="1.1" xmlns:xlink="http://www.w3.org/1999/xlink" width="24px" height="20px" xmlns="http://www.w3.org/2000/svg">
  <defs>
    <mask fill="white" id="clip31">
      <path d="M 14.99623914707847 18.925019999999996  C 14.99623914707847 18.63268754108284  14.7726279010318 18.38892803412673  14.48138 18.36377  L 14.58472 18.36377  C 13.531252816454916 18.370526869518088  12.656768926233518 17.551585782457558  12.594479999999999 16.49994  L 15 16.49994  L 15 13.499939999999999  L 1 13.499939999999999  L 1 2.4999399999999987  C 1.000661354437736 1.9479488569910854  1.4480087815986056 1.5006551115214748  2 1.5000599999999986  L 19 1.5000599999999986  C 19.551991218401394 1.5006551115214761  19.99933864556226 1.947948856991085  20 2.4999399999999987  L 20 5.499879999999999  L 21 5.499879999999999  L 21 2.4999399999999987  C 20.999977909806113 1.3954303036537468  20.10458969696713 0.5000599983999181  19.00008000039998 0.5000599983999181  L 2 0.5000599999999982  C 0.8954103030328657 0.5000599983999181  2.209019388685214E-05 1.3954303036537508  0 2.4999399999999987  L 0 14.499939999999999  C 0 15.604509499661585  0.8954305003384131 16.49994  2 16.49994  L 8.4436 16.49994  C 8.4416 16.80914  8.26208 18.10352  6.45349 18.36377  L 6.521789999999999 18.36377  C 6.230630421632951 18.389040679856976  6.0071426995762 18.632765817249243  6.0071426995762 18.92502  C 6.0071426995762 19.217274182750753  6.230630421632951 19.46099932014302  6.521789999999999 19.486269999999998  L 14.481380000000001 19.48627  C 14.772627901031802 19.46111196587327  14.99623914707847 19.21735245891715  14.99623914707847 18.925019999999996  Z M 11 14.999939999999999  C 10.999961350424861 15.276066364152701  10.776126364152699 15.49990135042486  10.5 15.499939999999999  C 10.223857625084603 15.499939999999999  10 15.276082374915397  10 14.999939999999999  C 10 14.7237976250846  10.223857625084603 14.499939999999999  10.5 14.499939999999999  C 10.776142374915397 14.499939999999999  11 14.7237976250846  11 14.999939999999999  Z M 24 7.999939999999999  C 23.99998343388566 7.171510031147346  23.328429967527306 6.499929702650334  22.5 6.499879999999999  L 17.5 6.499879999999999  C 16.671570032472697 6.499929702650334  16.00001656611434 7.171510031147346  16 7.999939999999999  L 16 17.99994  C 16 18.828367124746187  16.67157287525381 19.49994  17.5 19.49994  L 22.5 19.49994  C 23.32842712474619 19.49994  24 18.828367124746187  24 17.99994  L 24 7.999939999999999  Z M 23 7.999939999999999  L 23 17.99994  C 22.999685882973694 18.27595215867877  22.77601215867877 18.499625882973692  22.5 18.49994  L 17.5 18.49994  C 17.22398784132123 18.499625882973692  17.000314117026306 18.27595215867877  17 17.99994  L 17 7.999939999999999  C 17.000286557061685 7.723906691462359  17.22396672783434 7.5001996790692065  17.5 7.499879999999999  L 18.51562 7.499879999999999  L 18.51562 7.999939999999999  C 18.51562 8.276082374915395  18.7394776250846 8.499939999999999  19.01562 8.499939999999999  L 21.01562 8.499939999999999  C 21.291762374915397 8.499939999999999  21.51562 8.276082374915395  21.51562 7.999939999999999  L 21.51562 7.499879999999999  L 22.5 7.499879999999999  C 22.77603327216565 7.5001996790692065  22.99971344293831 7.723906691462359  23 7.999939999999999  Z " fill-rule="evenodd" />
    </mask>
  </defs>
  <g transform="matrix(1 0 0 1 -161 -2069 )">
    <path d="M 14.99623914707847 18.925019999999996  C 14.99623914707847 18.63268754108284  14.7726279010318 18.38892803412673  14.48138 18.36377  L 14.58472 18.36377  C 13.531252816454916 18.370526869518088  12.656768926233518 17.551585782457558  12.594479999999999 16.49994  L 15 16.49994  L 15 13.499939999999999  L 1 13.499939999999999  L 1 2.4999399999999987  C 1.000661354437736 1.9479488569910854  1.4480087815986056 1.5006551115214748  2 1.5000599999999986  L 19 1.5000599999999986  C 19.551991218401394 1.5006551115214761  19.99933864556226 1.947948856991085  20 2.4999399999999987  L 20 5.499879999999999  L 21 5.499879999999999  L 21 2.4999399999999987  C 20.999977909806113 1.3954303036537468  20.10458969696713 0.5000599983999181  19.00008000039998 0.5000599983999181  L 2 0.5000599999999982  C 0.8954103030328657 0.5000599983999181  2.209019388685214E-05 1.3954303036537508  0 2.4999399999999987  L 0 14.499939999999999  C 0 15.604509499661585  0.8954305003384131 16.49994  2 16.49994  L 8.4436 16.49994  C 8.4416 16.80914  8.26208 18.10352  6.45349 18.36377  L 6.521789999999999 18.36377  C 6.230630421632951 18.389040679856976  6.0071426995762 18.632765817249243  6.0071426995762 18.92502  C 6.0071426995762 19.217274182750753  6.230630421632951 19.46099932014302  6.521789999999999 19.486269999999998  L 14.481380000000001 19.48627  C 14.772627901031802 19.46111196587327  14.99623914707847 19.21735245891715  14.99623914707847 18.925019999999996  Z M 11 14.999939999999999  C 10.999961350424861 15.276066364152701  10.776126364152699 15.49990135042486  10.5 15.499939999999999  C 10.223857625084603 15.499939999999999  10 15.276082374915397  10 14.999939999999999  C 10 14.7237976250846  10.223857625084603 14.499939999999999  10.5 14.499939999999999  C 10.776142374915397 14.499939999999999  11 14.7237976250846  11 14.999939999999999  Z M 24 7.999939999999999  C 23.99998343388566 7.171510031147346  23.328429967527306 6.499929702650334  22.5 6.499879999999999  L 17.5 6.499879999999999  C 16.671570032472697 6.499929702650334  16.00001656611434 7.171510031147346  16 7.999939999999999  L 16 17.99994  C 16 18.828367124746187  16.67157287525381 19.49994  17.5 19.49994  L 22.5 19.49994  C 23.32842712474619 19.49994  24 18.828367124746187  24 17.99994  L 24 7.999939999999999  Z M 23 7.999939999999999  L 23 17.99994  C 22.999685882973694 18.27595215867877  22.77601215867877 18.499625882973692  22.5 18.49994  L 17.5 18.49994  C 17.22398784132123 18.499625882973692  17.000314117026306 18.27595215867877  17 17.99994  L 17 7.999939999999999  C 17.000286557061685 7.723906691462359  17.22396672783434 7.5001996790692065  17.5 7.499879999999999  L 18.51562 7.499879999999999  L 18.51562 7.999939999999999  C 18.51562 8.276082374915395  18.7394776250846 8.499939999999999  19.01562 8.499939999999999  L 21.01562 8.499939999999999  C 21.291762374915397 8.499939999999999  21.51562 8.276082374915395  21.51562 7.999939999999999  L 21.51562 7.499879999999999  L 22.5 7.499879999999999  C 22.77603327216565 7.5001996790692065  22.99971344293831 7.723906691462359  23 7.999939999999999  Z " fill-rule="nonzero" fill="#000000" stroke="none" fill-opacity="0" transform="matrix(1 0 0 1 161 2069 )" />
    <path d="M 14.99623914707847 18.925019999999996  C 14.99623914707847 18.63268754108284  14.7726279010318 18.38892803412673  14.48138 18.36377  L 14.58472 18.36377  C 13.531252816454916 18.370526869518088  12.656768926233518 17.551585782457558  12.594479999999999 16.49994  L 15 16.49994  L 15 13.499939999999999  L 1 13.499939999999999  L 1 2.4999399999999987  C 1.000661354437736 1.9479488569910854  1.4480087815986056 1.5006551115214748  2 1.5000599999999986  L 19 1.5000599999999986  C 19.551991218401394 1.5006551115214761  19.99933864556226 1.947948856991085  20 2.4999399999999987  L 20 5.499879999999999  L 21 5.499879999999999  L 21 2.4999399999999987  C 20.999977909806113 1.3954303036537468  20.10458969696713 0.5000599983999181  19.00008000039998 0.5000599983999181  L 2 0.5000599999999982  C 0.8954103030328657 0.5000599983999181  2.209019388685214E-05 1.3954303036537508  0 2.4999399999999987  L 0 14.499939999999999  C 0 15.604509499661585  0.8954305003384131 16.49994  2 16.49994  L 8.4436 16.49994  C 8.4416 16.80914  8.26208 18.10352  6.45349 18.36377  L 6.521789999999999 18.36377  C 6.230630421632951 18.389040679856976  6.0071426995762 18.632765817249243  6.0071426995762 18.92502  C 6.0071426995762 19.217274182750753  6.230630421632951 19.46099932014302  6.521789999999999 19.486269999999998  L 14.481380000000001 19.48627  C 14.772627901031802 19.46111196587327  14.99623914707847 19.21735245891715  14.99623914707847 18.925019999999996  Z " stroke-width="2" stroke="#000000" fill="none" stroke-opacity="0.8" transform="matrix(1 0 0 1 161 2069 )" mask="url(#clip31)" />
    <path d="M 11 14.999939999999999  C 10.999961350424861 15.276066364152701  10.776126364152699 15.49990135042486  10.5 15.499939999999999  C 10.223857625084603 15.499939999999999  10 15.276082374915397  10 14.999939999999999  C 10 14.7237976250846  10.223857625084603 14.499939999999999  10.5 14.499939999999999  C 10.776142374915397 14.499939999999999  11 14.7237976250846  11 14.999939999999999  Z " stroke-width="2" stroke="#000000" fill="none" stroke-opacity="0.8" transform="matrix(1 0 0 1 161 2069 )" mask="url(#clip31)" />
    <path d="M 24 7.999939999999999  C 23.99998343388566 7.171510031147346  23.328429967527306 6.499929702650334  22.5 6.499879999999999  L 17.5 6.499879999999999  C 16.671570032472697 6.499929702650334  16.00001656611434 7.171510031147346  16 7.999939999999999  L 16 17.99994  C 16 18.828367124746187  16.67157287525381 19.49994  17.5 19.49994  L 22.5 19.49994  C 23.32842712474619 19.49994  24 18.828367124746187  24 17.99994  L 24 7.999939999999999  Z " stroke-width="2" stroke="#000000" fill="none" stroke-opacity="0.8" transform="matrix(1 0 0 1 161 2069 )" mask="url(#clip31)" />
    <path d="M 23 7.999939999999999  L 23 17.99994  C 22.999685882973694 18.27595215867877  22.77601215867877 18.499625882973692  22.5 18.49994  L 17.5 18.49994  C 17.22398784132123 18.499625882973692  17.000314117026306 18.27595215867877  17 17.99994  L 17 7.999939999999999  C 17.000286557061685 7.723906691462359  17.22396672783434 7.5001996790692065  17.5 7.499879999999999  L 18.51562 7.499879999999999  L 18.51562 7.999939999999999  C 18.51562 8.276082374915395  18.7394776250846 8.499939999999999  19.01562 8.499939999999999  L 21.01562 8.499939999999999  C 21.291762374915397 8.499939999999999  21.51562 8.276082374915395  21.51562 7.999939999999999  L 21.51562 7.499879999999999  L 22.5 7.499879999999999  C 22.77603327216565 7.5001996790692065  22.99971344293831 7.723906691462359  23 7.999939999999999  Z " stroke-width="2" stroke="#000000" fill="none" stroke-opacity="0.8" transform="matrix(1 0 0 1 161 2069 )" mask="url(#clip31)" />
  </g>
</svg>