<svg xmlns="http://www.w3.org/2000/svg" viewBox="0 0 24 24"><title>assets</title><path d="M7.5001,10.0856a1.38965,1.38965,0,0,1,1.4995,1.441c0,.8644-.5999,1.2966-1.4995,1.2966a1.39034,1.39034,0,0,1-1.5006-1.441c0-.8644.6005-1.2966,1.5006-1.2966m4.4996,0a1.3898,1.3898,0,0,1,1.5,1.441c0,.8644-.5999,1.2966-1.5,1.2966a1.39,1.39,0,0,1-1.5001-1.441c0-.8644.6002-1.2966,1.5001-1.2966m4.5007,0a1.44213,1.44213,0,1,1,0,2.882,1.44216,1.44216,0,1,1,0-2.882M11.9997,2.161c5.2501,0,9.6005,4.0348,9.7497,8.9328v.4328a9.54371,9.54371,0,0,1-9.7497,9.365,10.41592,10.41592,0,0,1-4.1996-.8644l-.9002-.4322a7.10181,7.10181,0,0,1-2.5503.8644,5.897,5.897,0,0,0,.7503-2.3054l-.7503-1.0088A8.93818,8.93818,0,0,1,5.8497,4.1786a10.42971,10.42971,0,0,1,6.15-2.0176m0-2.161A11.80472,11.80472,0,0,0,.0002,11.5266a10.80415,10.80415,0,0,0,2.6995,7.204,9.22051,9.22051,0,0,1-1.6501,3.1698.63268.63268,0,0,0,.4501,1.0083c1.4997.2883,3.6002-.4322,5.2501-1.1521a13.23327,13.23327,0,0,0,5.2499,1.1521A11.80523,11.80523,0,0,0,23.9998,11.3822C23.9998,5.043,18.5995,0,11.9997,0Z" fill="#fff"/></svg>