<?xml version="1.0" encoding="utf-8"?>
<svg version="1.1" xmlns:xlink="http://www.w3.org/1999/xlink" width="17px" height="13px" xmlns="http://www.w3.org/2000/svg">
  <g transform="matrix(1 0 0 1 -764 -1967 )">
    <path d="M 5.40655737704918 10.435953420669577  C 5.40655737704918 10.517952450266861  5.375591985428052 10.590490053372148  5.313661202185792 10.653566229985444  L 4.849180327868853 11.126637554585153  C 4.787249544626595 11.189713731198449  4.716029143897997 11.221251819505094  4.635519125683061 11.221251819505094  C 4.555009107468124 11.221251819505094  4.483788706739527 11.189713731198449  4.421857923497268 11.126637554585153  L 0.09289617486338798 6.717612809315867  C 0.030965391621129348 6.654536632702571  0 6.5819990295972834  0 6.5  C 0 6.4180009704027166  0.030965391621129348 6.345463367297428  0.09289617486338798 6.282387190684133  L 4.421857923497268 1.8733624454148472  C 4.483788706739527 1.8102862688015513  4.555009107468124 1.7787481804949057  4.635519125683061 1.7787481804949057  C 4.716029143897997 1.7787481804949057  4.787249544626595 1.8102862688015513  4.849180327868853 1.8733624454148472  L 5.313661202185792 2.3464337700145563  C 5.375591985428052 2.409509946627849  5.40655737704918 2.482047549733138  5.40655737704918 2.5640465793304226  C 5.40655737704918 2.646045608927703  5.375591985428052 2.718583212032993  5.313661202185792 2.781659388646289  L 1.6628415300546449 6.5  L 5.313661202185792 10.218340611353712  C 5.375591985428052 10.281416787967007  5.40655737704918 10.353954391072294  5.40655737704918 10.435953420669577  Z M 10.780601092896173 0.3264192139737988  C 10.820856102003644 0.39895681707908615  10.828597449908926 0.47622513343037287  10.803825136612023 0.5582241630276561  L 7.33879781420765 12.77292576419214  C 7.3140255009107475 12.854924793789424  7.266029143897997 12.916424065987385  7.194808743169399 12.957423580786026  C 7.123588342440802 12.998423095584668  7.050819672131148 13.006307617661331  6.976502732240437 12.981077147016011  L 6.400546448087432 12.82023289665211  C 6.320036429872496 12.795002426006793  6.259653916211294 12.74611838913149  6.219398907103825 12.673580786026202  C 6.179143897996358 12.601043182920911  6.1714025500910745 12.523774866569628  6.196174863387978 12.441775836972344  L 9.66120218579235 0.2270742358078608  C 9.685974499089253 0.14507520621057612  9.733970856102005 0.08357593401261443  9.805191256830602 0.04257641921397426  C 9.8764116575592 0.001576904415331204  9.949180327868854 -0.006307617661330589  10.023497267759563 0.01892285298398888  L 10.599453551912568 0.17976710334789003  C 10.679963570127505 0.20499757399320517  10.740346083788708 0.25388161086851  10.780601092896173 0.3264192139737988  Z M 17 6.5  C 17.000000000000004 6.5819990295972834  16.969034608378873 6.654536632702571  16.907103825136613 6.717612809315867  L 12.578142076502733 11.126637554585153  C 12.516211293260476 11.189713731198449  12.444990892531878 11.221251819505094  12.36448087431694 11.221251819505094  C 12.283970856102005 11.221251819505094  12.212750455373408 11.189713731198449  12.150819672131147 11.126637554585153  L 11.686338797814207 10.653566229985444  C 11.624408014571951 10.590490053372148  11.59344262295082 10.517952450266861  11.59344262295082 10.435953420669577  C 11.59344262295082 10.353954391072294  11.624408014571951 10.281416787967007  11.686338797814207 10.218340611353712  L 15.337158469945354 6.5  L 11.686338797814207 2.781659388646289  C 11.624408014571951 2.718583212032993  11.59344262295082 2.646045608927703  11.59344262295082 2.5640465793304226  C 11.59344262295082 2.482047549733138  11.624408014571951 2.409509946627849  11.686338797814207 2.3464337700145563  L 12.150819672131147 1.8733624454148472  C 12.212750455373408 1.8102862688015513  12.283970856102005 1.7787481804949057  12.36448087431694 1.7787481804949057  C 12.444990892531878 1.7787481804949057  12.516211293260476 1.8102862688015513  12.578142076502733 1.8733624454148472  L 16.907103825136613 6.282387190684133  C 16.969034608378873 6.345463367297428  17.000000000000004 6.4180009704027166  17 6.5  Z " fill-rule="nonzero" fill="#000000" stroke="none" transform="matrix(1 0 0 1 764 1967 )" />
  </g>
</svg>