<?xml version="1.0" encoding="utf-8"?>
<svg version="1.1" xmlns:xlink="http://www.w3.org/1999/xlink" width="24px" height="24px" xmlns="http://www.w3.org/2000/svg">
  <g transform="matrix(1 0 0 1 -1391 -2401 )">
    <path d="M 5.9765625 1.6490993995997334  C 7.815104166666667 0.5496997998665769  9.822916666666668 0  12 0  C 14.177083333333334 0  16.184895833333336 0.5496997998665769  18.0234375 1.6490993995997334  C 19.861979166666668 2.748498999332887  21.317708333333336 4.240160106737824  22.390625 6.124082721814542  C 23.463541666666664 8.008005336891259  24 10.065376917945294  24 12.296197464976652  C 24 14.97531687791861  23.236979166666664 17.384923282188126  21.7109375 19.52501667778519  C 20.184895833333336 21.66511007338226  18.213541666666668 23.14609739826551  15.796875 23.967978652434958  C 15.515625000000004 24.021347565043364  15.307291666666668 23.983989326217475  15.171875 23.855903935957308  C 15.036458333333332 23.727818545697133  14.96875 23.567711807871916  14.96875 23.375583722481657  C 14.96875 23.34356237491661  14.971354166666668 22.935290193462308  14.9765625 22.150767178118745  C 14.981770833333336 21.366244162775185  14.984375 20.64843228819213  14.984375 19.99733155436958  C 14.984375 18.96197464976651  14.713541666666668 18.20413609072715  14.171875 17.7238158772515  C 14.765625 17.659773182121413  15.299479166666668 17.563709139426283  15.7734375 17.435623749166112  C 16.247395833333336 17.307538358905937  16.736979166666668 17.099399599733154  17.2421875 16.811207471647766  C 17.747395833333336 16.523015343562374  18.169270833333336 16.168112074716475  18.5078125 15.746497665110072  C 18.846354166666668 15.324883255503666  19.122395833333336 14.764509673115409  19.3359375 14.065376917945295  C 19.549479166666668 13.366244162775184  19.65625 12.563042028018677  19.65625 11.655770513675785  C 19.65625 10.38559039359573  19.244791666666668 9.286190793862577  18.421875 8.357571714476318  C 18.807291666666668 7.386257505003336  18.765625 6.297531687791861  18.296875 5.091394262841894  C 18.005208333333336 4.995330220146766  17.583333333333336 5.054036024016008  17.03125 5.267511674449634  C 16.479166666666668 5.480987324883254  16 5.715810540360241  15.59375 5.9719813208805865  L 15 6.356237491661108  C 14.031250000000002 6.078719146097397  13.031250000000004 5.939959973315544  12 5.939959973315544  C 10.96875 5.939959973315544  9.96875 6.078719146097397  9 6.356237491661108  C 8.833333333333334 6.238825883922614  8.611979166666668 6.094729819879917  8.3359375 5.923949299533021  C 8.059895833333334 5.753168779186122  7.625000000000001 5.547698465643763  7.03125 5.307538358905938  C 6.4375 5.067378252168113  5.994791666666668 4.995330220146766  5.703125 5.091394262841894  C 5.234375 6.297531687791861  5.192708333333334 7.386257505003336  5.578125 8.357571714476318  C 4.755208333333334 9.286190793862577  4.34375 10.38559039359573  4.34375 11.655770513675785  C 4.34375 12.563042028018677  4.450520833333334 13.363575717144762  4.6640625 14.057371581054037  C 4.877604166666667 14.751167444963308  5.151041666666667 15.311541027351566  5.484375 15.738492328218813  C 5.817708333333334 16.165443629086056  6.236979166666668 16.523015343562374  6.7421875 16.811207471647766  C 7.247395833333334 17.099399599733154  7.736979166666668 17.307538358905937  8.2109375 17.435623749166112  C 8.684895833333334 17.563709139426283  9.21875 17.659773182121413  9.8125 17.7238158772515  C 9.40625 18.10807204803202  9.151041666666668 18.657771847898598  9.046875 19.372915276851234  C 8.828125 19.479653102068045  8.59375 19.559706470980654  8.34375 19.61307538358906  C 8.09375 19.666444296197465  7.796875 19.693128752501668  7.453125 19.693128752501668  C 7.109375000000001 19.693128752501668  6.768229166666668 19.578385590393594  6.4296875 19.34889926617745  C 6.091145833333334 19.119412941961308  5.802083333333334 18.785857238158773  5.5625 18.348232154769846  C 5.364583333333334 18.00667111407605  5.111979166666667 17.729152768512343  4.8046875 17.51567711807872  C 4.497395833333334 17.302201467645094  4.239583333333334 17.17411607738492  4.03125 17.1314209472982  L 3.71875 17.083388925950633  C 3.5 17.083388925950633  3.348958333333333 17.107404936624413  3.265625 17.155436957971983  C 3.182291666666667 17.203468979319545  3.1562500000000004 17.264843228819213  3.1875 17.33955970647098  C 3.21875 17.414276184122745  3.265625 17.488992661774518  3.328125 17.563709139426283  C 3.3906250000000004 17.63842561707805  3.458333333333334 17.702468312208136  3.53125 17.755837224816545  L 3.640625 17.835890593729154  C 3.869791666666667 17.94262841894596  4.096354166666667 18.145430286857906  4.3203125 18.444296197464976  C 4.544270833333334 18.743162108072045  4.708333333333334 19.015343562374913  4.8125 19.26084056037358  L 4.96875 19.62908605737158  C 5.104166666666667 20.03468979319546  5.333333333333334 20.362908605737157  5.65625 20.613742494996664  C 5.979166666666668 20.864576384256175  6.328125000000002 21.02468312208139  6.703125 21.094062708472315  C 7.078125000000002 21.16344229486324  7.440104166666668 21.200800533689126  7.7890625 21.20613742494997  C 8.138020833333334 21.211474316210804  8.427083333333334 21.192795196797867  8.65625 21.15010006671114  L 9.015625 21.086057371581056  C 9.015625 21.491661107404937  9.018229166666668 21.963975983989325  9.0234375 22.503002001334224  C 9.028645833333334 23.04202801867912  9.03125 23.33288859239493  9.03125 23.375583722481657  C 9.03125 23.567711807871916  8.963541666666668 23.727818545697133  8.828125 23.855903935957308  C 8.692708333333334 23.983989326217475  8.484375 24.021347565043364  8.203125 23.967978652434958  C 5.786458333333334 23.14609739826551  3.815104166666667 21.66511007338226  2.2890625 19.52501667778519  C 0.7630208333333333 17.384923282188126  0 14.97531687791861  0 12.296197464976652  C 0 10.065376917945294  0.5364583333333333 8.008005336891259  1.609375 6.124082721814542  C 2.682291666666667 4.240160106737824  4.138020833333334 2.748498999332887  5.9765625 1.6490993995997334  Z M 4.34375 17.691794529686458  C 4.4375 17.755837224816545  4.505208333333334 17.745163442294864  4.546875 17.659773182121413  C 4.578125 17.585056704469647  4.541666666666667 17.52101400933956  4.4375 17.467645096731154  C 4.333333333333334 17.435623749166112  4.265625 17.44629753168779  4.234375 17.499666444296196  C 4.203125 17.57438292194796  4.239583333333334 17.63842561707805  4.34375 17.691794529686458  Z M 4.78125 18.156104069379587  C 4.885416666666667 18.262841894596395  4.96875 18.278852568378916  5.03125 18.20413609072715  C 5.104166666666667 18.150767178118745  5.09375 18.065376917945297  5 17.947965310206804  C 4.895833333333334 17.851901267511675  4.8125 17.835890593729154  4.75 17.899933288859238  C 4.677083333333334 17.953302201467643  4.6875 18.03869246164109  4.78125 18.156104069379587  Z M 5.234375 18.812541694462976  C 5.328125 18.951300867244832  5.416666666666667 18.988659106070713  5.5 18.924616410940626  C 5.59375 18.84989993328886  5.59375 18.748498999332888  5.5 18.620413609072713  C 5.416666666666667 18.48165443629086  5.328125 18.449633088725818  5.234375 18.524349566377584  C 5.140625 18.57771847898599  5.140625 18.67378252168112  5.234375 18.812541694462976  Z M 5.84375 19.549032688458972  C 5.96875 19.677118078719147  6.072916666666668 19.693128752501668  6.15625 19.59706470980654  C 6.239583333333334 19.51167444963309  6.218750000000001 19.41027351567712  6.09375 19.292861907938626  C 5.96875 19.16477651767845  5.864583333333334 19.14876584389593  5.78125 19.24482988659106  C 5.6875 19.33022014676451  5.708333333333334 19.43162108072048  5.84375 19.549032688458972  Z M 6.75 20.09339559706471  C 6.90625 20.157438292194797  7.005208333333334 20.12541694462975  7.046875 19.99733155436958  C 7.078125 19.879919946631087  7.010416666666668 19.794529686457636  6.84375 19.74116077384923  C 6.687500000000001 19.698465643762507  6.588541666666668 19.735823882588395  6.546875 19.853235490326885  C 6.505208333333334 19.970647098065378  6.572916666666667 20.050700466977986  6.75 20.09339559706471  Z M 7.78125 20.253502334889927  C 7.947916666666668 20.253502334889927  8.03125 20.19479653102068  8.03125 20.07738492328219  C 8.03125 19.938625750500332  7.942708333333334 19.879919946631087  7.765625 19.901267511674448  C 7.598958333333334 19.901267511674448  7.515625 19.959973315543696  7.515625 20.07738492328219  C 7.515625 20.216144096064045  7.604166666666667 20.274849899933287  7.78125 20.253502334889927  Z M 8.71875 20.141427618412273  C 8.885416666666668 20.09873248832555  8.958333333333334 20.024016010673783  8.9375 19.917278185456972  C 8.916666666666668 19.79986657771848  8.822916666666668 19.751834556370916  8.65625 19.773182121414276  C 8.489583333333334 19.805203468979318  8.416666666666668 19.885256837891927  8.4375 20.0133422281521  C 8.458333333333334 20.141427618412273  8.552083333333334 20.184122748499  8.71875 20.141427618412273  Z " fill-rule="nonzero" fill="#ffffff" stroke="none" transform="matrix(1 0 0 1 1391 2401 )" />
  </g>
</svg>