<?xml version="1.0" encoding="utf-8"?>
<svg version="1.1" xmlns:xlink="http://www.w3.org/1999/xlink" width="35px" height="40px" xmlns="http://www.w3.org/2000/svg">
  <defs>
    <mask fill="white" id="clip28">
      <path d="M 32.56250000000001 31.865999999999985  C 34.07083174490335 30.96937547030594  34.996608919602856 29.34570473314062  35 27.591000000000015  L 35 12.347250000000031  C 34.995358872881134 10.608952940637078  34.067043930667275 9.00415823796887  32.56250000000001 8.13350000000001  L 20.06250000000001 0.6977499999999845  C 18.48059819565749 -0.2317384514813647  16.51940180434253 -0.2317384514813647  14.937500000000007 0.6977499999999845  L 2.4375000000000036 8.13350000000001  C 0.928975784566 9.03029773787954  0.0031771844177154417 10.654290913093451  0 12.409249999999988  L 0 27.591000000000015  C 0.018656201017364538 29.3416071401132  0.9404693817226372 30.95832564165785  2.4375000000000036 31.865999999999985  L 14.93749999999999 39.302000000000014  C 16.51940180434251 40.23148845148136  18.48059819565747 40.23148845148136  20.06249999999999 39.302000000000014  L 32.56250000000001 31.865999999999985  Z " fill-rule="evenodd" />
    </mask>
  </defs>
  <g transform="matrix(1 0 0 1 -155 -1852 )">
    <path d="M 32.56250000000001 31.865999999999985  C 34.07083174490335 30.96937547030594  34.996608919602856 29.34570473314062  35 27.591000000000015  L 35 12.347250000000031  C 34.995358872881134 10.608952940637078  34.067043930667275 9.00415823796887  32.56250000000001 8.13350000000001  L 20.06250000000001 0.6977499999999845  C 18.48059819565749 -0.2317384514813647  16.51940180434253 -0.2317384514813647  14.937500000000007 0.6977499999999845  L 2.4375000000000036 8.13350000000001  C 0.928975784566 9.03029773787954  0.0031771844177154417 10.654290913093451  0 12.409249999999988  L 0 27.591000000000015  C 0.018656201017364538 29.3416071401132  0.9404693817226372 30.95832564165785  2.4375000000000036 31.865999999999985  L 14.93749999999999 39.302000000000014  C 16.51940180434251 40.23148845148136  18.48059819565747 40.23148845148136  20.06249999999999 39.302000000000014  L 32.56250000000001 31.865999999999985  Z " fill-rule="nonzero" fill="#f7963e" stroke="none" fill-opacity="0" transform="matrix(1 0 0 1 155 1852 )" />
    <path d="M 32.56250000000001 31.865999999999985  C 34.07083174490335 30.96937547030594  34.996608919602856 29.34570473314062  35 27.591000000000015  L 35 12.347250000000031  C 34.995358872881134 10.608952940637078  34.067043930667275 9.00415823796887  32.56250000000001 8.13350000000001  L 20.06250000000001 0.6977499999999845  C 18.48059819565749 -0.2317384514813647  16.51940180434253 -0.2317384514813647  14.937500000000007 0.6977499999999845  L 2.4375000000000036 8.13350000000001  C 0.928975784566 9.03029773787954  0.0031771844177154417 10.654290913093451  0 12.409249999999988  L 0 27.591000000000015  C 0.018656201017364538 29.3416071401132  0.9404693817226372 30.95832564165785  2.4375000000000036 31.865999999999985  L 14.93749999999999 39.302000000000014  C 16.51940180434251 40.23148845148136  18.48059819565747 40.23148845148136  20.06249999999999 39.302000000000014  L 32.56250000000001 31.865999999999985  Z " stroke-width="2" stroke="#66ffcc" fill="none" transform="matrix(1 0 0 1 155 1852 )" mask="url(#clip28)" />
  </g>
</svg>