<svg xmlns="http://www.w3.org/2000/svg" viewBox="0 0 38 38"><title>assets</title><path d="M32.7143,15.1145V25.8319a2.25133,2.25133,0,0,1-1.1116,1.9143L20.1742,34.4388a2.37081,2.37081,0,0,1-2.3484,0L6.4325,27.7673a2.3155,2.3155,0,0,1-1.1468-1.9354V12.1681A2.252,2.252,0,0,1,6.397,10.2536L17.8258,3.5612a2.37119,2.37119,0,0,1,2.3486,0l1.1113.6509V1.5989a4.67451,4.67451,0,0,0-4.6286.0286L5.2286,8.3197A4.47313,4.47313,0,0,0,3,12.1681V25.8319a4.54268,4.54268,0,0,0,2.2286,3.8482l11.4285,6.6924a4.6876,4.6876,0,0,0,4.6858,0l11.4285-6.6924A4.47293,4.47293,0,0,0,35,25.8319V14.2588A6.48418,6.48418,0,0,1,32.7143,15.1145ZM19,8.3123a2.391,2.391,0,1,1-2.4286,2.3908A2.40985,2.40985,0,0,1,19,8.3123Zm6.9821,20.6143a.561.561,0,0,1-.279.4833l-6.3536,3.714a.5787.5787,0,0,1-.5829.0009l-6.4678-3.7493a.56066.56066,0,0,1-.2809-.4844V25.649a.5611.5611,0,0,1,.2889-.4889.5786.5786,0,0,1,.5746.0056l4.1141,2.3971V19.5319l-2.2876-1.2587a.56045.56045,0,0,1-.2793-.4835v-3.253a.56118.56118,0,0,1,.2896-.4894.57994.57994,0,0,1,.5751.0065l5.4017,3.112a.56042.56042,0,0,1,.2782.4826v9.9144l4.1454-2.3971a.5786.5786,0,0,1,.5746-.0056.5611.5611,0,0,1,.2889.4889Z" fill="#fff" opacity="0.8"/><path d="M31.1831,4.375c2.2055,0,3.5792.9124,3.594,2.6134H32.3712c-.0222-.5898-.4827-.8067-1.2105-.8067-.646,0-1.0617.2871-1.0617.7106,0,.3249.2969.5593.9058.6878l1.6933.3476C34.3095,8.2756,35,8.9483,35,10.1955c0,1.7085-1.5223,2.8044-3.7799,2.8044-2.3614,0-3.7278-.9391-3.8391-2.6248h2.5545c.0743.6122.5568.8183,1.3292.8183.698,0,1.1287-.2569,1.1287-.6955,0-.3325-.2451-.5215-.8761-.6577l-1.5299-.3251c-1.5817-.34-2.4135-1.1866-2.4135-2.4491C27.5739,5.4181,28.9552,4.375,31.1831,4.375Zm-5.1936,8.7025c0,1.6187-.8972,2.5124-2.8839,2.5124-.2455,0-.942-.0146-1.0833-.0292V13.7148c.0745.0074.5178.0148.622.0148.6549,0,.9271-.221.9271-.7556V4.7512h2.4181ZM23.5543,2.8238a1.33607,1.33607,0,0,1,2.6667,0,1.33559,1.33559,0,0,1-2.6667,0Z" fill="#fff"/></svg>