<svg xmlns="http://www.w3.org/2000/svg" xmlns:xlink="http://www.w3.org/1999/xlink" viewBox="0 0 16 16"><defs><linearGradient id="a" x1="8" y1="0.0002" x2="8" y2="15.9998" gradientUnits="userSpaceOnUse"><stop offset="0.00115" stop-color="#f4f4f4"/><stop offset="0.99884" stop-color="#d4d4d4"/></linearGradient></defs><title>imodeljs</title><path d="M8,.0002A2.00639,2.00639,0,0,0,6.975.27905l-5,2.9743A1.99392,1.99392,0,0,0,1,4.96365v6.0727a2.025,2.025,0,0,0,.975,1.7102l5,2.9744a2.02328,2.02328,0,0,0,2.05,0l5-2.9744A1.99375,1.99375,0,0,0,15,11.03635V4.93885a1.95339,1.95339,0,0,0-.975-1.6855l-5-2.9743A2.00639,2.00639,0,0,0,8,.0002Z" fill="url(#a)"/><path d="M15,5.89278v5.14365a1.99379,1.99379,0,0,1-.975,1.71023l-5,2.97448a2.02322,2.02322,0,0,1-2.05,0l-5-2.97448A2.025,2.025,0,0,1,1,11.03643V4.96357a1.994,1.994,0,0,1,.975-1.71035l5-2.97436A2.0172,2.0172,0,0,1,9,.26625V1.42756l-.48624-.28924a1.02341,1.02341,0,0,0-1.0275,0l-5,2.97438A1.004,1.004,0,0,0,2,4.96357v6.07286a1.03183,1.03183,0,0,0,.50173.86019l4.98453,2.96506a1.0234,1.0234,0,0,0,1.02748,0l5-2.97446A1.00391,1.00391,0,0,0,14,11.03643V6.27312A2.80879,2.80879,0,0,0,15,5.89278ZM6.9375,4.31246A1.0625,1.0625,0,1,0,8,3.24993,1.06251,1.06251,0,0,0,6.9375,4.31246ZM11,10.98292a.24991.24991,0,0,0-.3778-.2148L9,11.66676V7.39934a.24988.24988,0,0,0-.1217-.21451l-2.5-1.38313A.25.25,0,0,0,6,6.0163V7.46214a.25.25,0,0,0,.1222.2149L7,8.23636v3.4304l-1.6222-.89864A.25.25,0,0,0,5,10.98292v1.44084a.25.25,0,0,0,.1229.21531l2.775,1.63864a.24973.24973,0,0,0,.255-.0004l2.725-1.62294A.25008.25008,0,0,0,11,12.43956ZM11.75114,2.696c0,.56105.36387.93733,1.05588,1.08852l.66926.14446c.27616.06047.38337.14446.38337.29229,0,.19486-.18843.30908-.49383.30908-.33788,0-.54906-.09158-.58154-.36371H11.66667c.04873.74919.64652,1.16666,1.67966,1.16666C14.334,5.33333,15,4.84619,15,4.08691c0-.55434-.30214-.85334-1.00715-1.00789l-.74074-.15454c-.2664-.05711-.39636-.16126-.39636-.30572,0-.18814.18194-.31581.46459-.31581.31839,0,.51982.09646.52956.35851h1.05263C14.896,1.90554,14.295,1.5,13.33008,1.5,12.35543,1.5,11.75114,1.96363,11.75114,2.696Zm-.59749-1.02887H10V5.32178c0,.23763-.11914.33577-.4056.33577A.713.713,0,0,1,9.5,5.651v.82031c.06185.00651.1888.013.29622.013.86914,0,1.35743-.39714,1.35743-1.11654Zm-.5762-.29736A.55826.55826,0,1,0,9.99251.81057.561.561,0,0,0,10.57745,1.3698Z" fill="#002a44"/></svg>