<?xml version="1.0" encoding="utf-8"?>
<!-- Generator: Adobe Illustrator 25.0.0, SVG Export Plug-In . SVG Version: 6.00 Build 0)  -->
<svg version="1.1" id="Layer_1" xmlns="http://www.w3.org/2000/svg" xmlns:xlink="http://www.w3.org/1999/xlink" x="0px" y="0px"
	 viewBox="0 0 16 16" style="enable-background:new 0 0 16 16;" xml:space="preserve">
<style type="text/css">
	.st0{fill:url(#SVGID_1_);}
</style>
<linearGradient id="SVGID_1_" gradientUnits="userSpaceOnUse" x1="0.287" y1="8.054" x2="15.7128" y2="8.054">
	<stop  offset="1.123600e-02" style="stop-color:#3EB0CA"/>
	<stop  offset="0.5" style="stop-color:#0099B9"/>
	<stop  offset="0.9944" style="stop-color:#007C84"/>
</linearGradient>
<path class="st0" d="M8,1.8c3.4,0,6.1,2.6,6.3,6v0.3c0,3.5-2.8,6.3-6.2,6.3c0,0,0,0,0,0c-0.9,0-1.9-0.2-2.7-0.6l-0.6-0.3
	c-0.5,0.3-1.1,0.5-1.6,0.6c0.3-0.5,0.4-1,0.5-1.5l-0.5-0.7C1,9.2,1.4,5.4,4,3.2c0,0,0,0,0,0C5.2,2.3,6.6,1.8,8,1.8 M8,0.4
	c-4.3,0-7.7,3.5-7.7,7.7c0,1.8,0.6,3.5,1.7,4.8C1.8,13.7,1.4,14.4,1,15c-0.1,0.2-0.1,0.5,0.1,0.6c0.1,0,0.1,0.1,0.2,0.1
	c1.2,0.1,2.3-0.2,3.4-0.8c1.1,0.5,2.2,0.8,3.4,0.8c4.3,0,7.7-3.5,7.7-7.7C15.7,3.8,12.2,0.4,8,0.4C8,0.4,8,0.4,8,0.4z M9,12H7V10H9
	V12z M9,9.1H7V4.2H9V9.1z"/>
</svg>
