<svg id="b" xmlns="http://www.w3.org/2000/svg" viewBox="0 0 16 16" width="1rem" height="1rem" fill="var(--fgColor-default, currentColor)">
<path d="m13,6.27312v4.76331c-.00326.34882-.18737.67094-.48626.85079l-5,2.97446c-.31768.18439-.7098.18439-1.02748,0l-4.98453-2.96506c-.30369-.18171-.49307-.50639-.50173-.86019v-6.07286c.00325-.34884.18734-.67099.48624-.85088L6.48624,1.13831c.31768-.18439.70982-.18439,1.0275,0l.48626.28925V.26625c-.62836-.35946-1.40116-.35465-2.025.01261L.975,3.25322C.37159,3.61196.00127,4.26158,0,4.96357v6.07286c.00738.70033.37612,1.34712.975,1.71023l5,2.97448c.63276.37181,1.41724.37181,2.05,0l5-2.97448c.6034-.35869.97373-1.00827.975-1.71023v-5.14365c-.30589.18968-.64538.3188-1,.38034Z"/>
<path d="m7,3.24993c.58682-.00002,1.06254.47568,1.06256,1.0625s-.47568,1.06254-1.0625,1.06256-1.06254-.47568-1.06256-1.0625v-.00003c0-.58681.47569-1.06252,1.0625-1.06253Zm3,9.18963c-.00001.08811-.0464.16972-.1221.21481l-2.725,1.62294c-.07852.04679-.17633.04694-.255.0004l-2.775-1.63864c-.07617-.04497-.12291-.12685-.1229-.21531v-1.44084c-.00005-.13802.1118-.24995.24982-.25.04505-.00002.08927.01215.12798.0352l1.6222.89864v-3.4304l-.8778-.55936c-.07577-.04507-.1222-.1267-.1222-.21486v-1.44584c-.00002-.13807.1119-.25001.24997-.25003.04519,0,.08954.01224.12833.03543l2.5,1.38313c.07549.04511.1217.12657.1217.21451v4.26742l1.6222-.89864c.11867-.07058.27208-.0316.34267.08707.02298.03864.03512.08277.03513.12773v1.45664Z"/>
<path d="m12.33008,1.5c.96492,0,1.566.40554,1.57245,1.16146h-1.05263c-.00974-.262-.21117-.35851-.52956-.35851-.28265,0-.46459.12767-.46459.31581,0,.14446.13.24861.39636.30572l.74074.15454c.70501.15455,1.00715.45355,1.00715,1.00789,0,.75928-.666,1.24642-1.65367,1.24642-1.03314,0-1.63093-.41747-1.67966-1.16666h1.11761c.03248.27213.24366.36371.58154.36371.3054,0,.49383-.11422.49383-.30908,0-.14783-.10721-.23182-.38337-.29229l-.66928-.14446c-.692-.15119-1.05588-.52747-1.05588-1.08852.00002-.7324.60431-1.19603,1.57896-1.19603Zm-2.17643,3.86784c0,.7194-.48829,1.11654-1.35743,1.11654-.10742,0-.23437-.00652-.29622-.013v-.82038c.03129.00426.06282.00643.0944.00651.28646,0,.4056-.09814.4056-.33577V1.66716h1.15365v3.70068Zm-1.16114-4.55727c-.0136-.32216.23655-.59435.55871-.60795s.59435.23655.60795.55871c.0136.32216-.23655.59435-.55871.60795-.00767.00032-.01534.0005-.02301.00052-.31112.01172-.57283-.23099-.58456-.54211-.00021-.00571-.00034-.01141-.00038-.01712Z"/>
</svg>