<svg viewBox="0 0 16 16" xmlns="http://www.w3.org/2000/svg" width="1rem" height="1rem"><path d="M14 6.273v4.763a1.004 1.004 0 01-.486.851l-5 2.975a1.023 1.023 0 01-1.028 0l-4.984-2.965a1.032 1.032 0 01-.502-.86V4.963a1.004 1.004 0 01.486-.851l5-2.975a1.023 1.023 0 011.028 0l.486.29V.266A2.017 2.017 0 006.975.28l-5 2.974A1.994 1.994 0 001 4.963v6.073a2.025 2.025 0 00.975 1.71l5 2.975a2.023 2.023 0 002.05 0l5-2.974a1.994 1.994 0 00.975-1.71V5.892a2.809 2.809 0 01-1 .38z" fill="#002a44"/><path d="M8 3.25a1.063 1.063 0 11-1.063 1.062A1.063 1.063 0 018 3.25zm3 9.19a.25.25 0 01-.122.214l-2.725 1.623a.25.25 0 01-.255 0L5.123 12.64A.25.25 0 015 12.424v-1.441a.25.25 0 01.378-.215L7 11.667v-3.43l-.878-.56A.25.25 0 016 7.462V6.016a.25.25 0 01.378-.214l2.5 1.383A.25.25 0 019 7.399v4.268l1.622-.899a.25.25 0 01.378.215zM13.33 1.5c.965 0 1.566.406 1.573 1.161H13.85c-.01-.262-.211-.358-.53-.358-.282 0-.464.128-.464.316 0 .144.13.248.396.305l.74.155c.706.155 1.008.454 1.008 1.008 0 .76-.666 1.246-1.654 1.246-1.033 0-1.63-.417-1.68-1.166h1.118c.033.272.244.363.582.363.305 0 .494-.114.494-.309 0-.148-.108-.232-.384-.292l-.669-.144c-.692-.152-1.056-.528-1.056-1.089 0-.732.604-1.196 1.58-1.196zm-2.176 3.868c0 .72-.489 1.116-1.358 1.116-.107 0-.234-.006-.296-.013v-.82a.713.713 0 00.094.007c.287 0 .406-.099.406-.336V1.667h1.154zM9.993.81a.584.584 0 11.608.558h-.023a.564.564 0 01-.585-.541z" fill="#56aa1c"/></svg>