<?xml version="1.0" encoding="utf-8"?>
<!-- Generator: Adobe Illustrator 25.0.0, SVG Export Plug-In . SVG Version: 6.00 Build 0)  -->
<svg version="1.1" id="Layer_1" xmlns="http://www.w3.org/2000/svg" xmlns:xlink="http://www.w3.org/1999/xlink" x="0px" y="0px"
	 viewBox="0 0 16 16" style="enable-background:new 0 0 16 16;" xml:space="preserve">
<style type="text/css">
	.st0{fill:url(#SVGID_1_);}
</style>
<linearGradient id="SVGID_1_" gradientUnits="userSpaceOnUse" x1="3.219986e-02" y1="8" x2="16.0322" y2="8">
	<stop  offset="1.123600e-02" style="stop-color:#3EB0CA"/>
	<stop  offset="0.5" style="stop-color:#0099B9"/>
	<stop  offset="0.9944" style="stop-color:#007C84"/>
</linearGradient>
<path class="st0" d="M16,6.9L8,2.5L0,6.9l3.8,2v2.5c0,1.1,1.9,2,4.2,2s4.2-0.9,4.2-2V8.9l1.2-0.6v1.9c0,0.2,0.2,0.4,0.4,0.4
	s0.4-0.2,0.4-0.4V7.9L16,6.9z M11.4,10.1C11.2,10,11,9.8,10.7,9.7c-0.3-0.1-0.6-0.2-0.9-0.3c-0.1,0-0.2,0-0.3-0.1
	C9,9.3,8.5,9.3,8.1,9.3H8c-0.5,0-1,0-1.4,0.1c-0.1,0-0.2,0-0.3,0.1C5.9,9.5,5.6,9.6,5.4,9.7C5.1,9.9,4.8,10,4.6,10.1V7.9
	c0-0.3,1.2-1.2,3.4-1.2s3.4,0.9,3.4,1.2L11.4,10.1C11.4,10.1,11.4,10.1,11.4,10.1z M8,5.8c-2.3,0-4.2,0.9-4.2,2v0.1l-2-1.1L8,3.5
	l6.2,3.4l-2,1V7.9C12.2,6.7,10.4,5.8,8,5.8z M13.8,10.9c-0.2,0-0.4,0.2-0.4,0.4v0.8c0,0.2,0.2,0.4,0.4,0.4s0.4-0.2,0.4-0.4v-0.8
	C14.2,11.1,14.1,10.9,13.8,10.9z"/>
</svg>
