<?xml version="1.0" encoding="utf-8"?>
<svg version="1.1" xmlns:xlink="http://www.w3.org/1999/xlink" width="20px" height="24px" xmlns="http://www.w3.org/2000/svg">
  <g transform="matrix(1 0 0 1 -1347 -2401 )">
    <path d="M 16.88243064729194 15.428571428571427  L 16.88243064729194 21.857142857142858  L 2.1136063408190227 21.857142857142858  L 2.1136063408190227 15.428571428571427  L 0 15.428571428571427  L 0 24  L 18.996036988110966 24  L 18.996036988110966 15.428571428571427  L 16.88243064729194 15.428571428571427  Z M 14.782034346103039 17.035714285714285  L 4.438573315719947 14.839285714285714  L 4.874504623513871 12.736607142857142  L 15.217965653896961 14.946428571428573  L 14.782034346103039 17.035714285714285  Z M 15.376486129458389 14.357142857142858  L 5.799207397622192 9.830357142857142  L 6.684280052840158 7.875  L 16.261558784676353 12.415178571428573  L 15.376486129458389 14.357142857142858  Z M 16.56538969616909 11.933035714285714  L 8.45442536327609 5.0625  L 9.801849405548216 3.4151785714285703  L 17.912813738441216 10.285714285714286  L 16.56538969616909 11.933035714285714  Z M 12.00792602377807 1.2857142857142865  L 13.698811096433289 0  L 20 8.58482142857143  L 18.309114927344783 9.870535714285714  L 12.00792602377807 1.2857142857142865  Z M 14.782034346103039 19.700892857142858  L 4.214002642007927 19.700892857142858  L 4.214002642007927 17.571428571428573  L 14.782034346103039 17.571428571428573  L 14.782034346103039 19.700892857142858  Z " fill-rule="nonzero" fill="#ffffff" stroke="none" transform="matrix(1 0 0 1 1347 2401 )" />
  </g>
</svg>