<svg id="a1c995b5-11ce-4366-b844-8479622ca368" data-name="Layer 1"
  xmlns="http://www.w3.org/2000/svg" viewBox="0 0 16 16">
  <linearGradient gradientUnits="userSpaceOnUse" x1="2.435465768799138" y1="17.5438596491228" x2="51.6947250280584" y2="17.5438596491228" id="LinearGradient11">
    <stop id="Stop12" stop-color="#32b1d1" offset="0" />
    <stop id="Stop13" stop-color="#30f1cf" offset="1" />
  </linearGradient>
  <mask fill="white" id="clip14">
    <path d="M 24.004166666666666 17.548828125  C 24.179166666666667 17.373046875  24.266666666666666 17.148437499999996  24.266666666666666 16.875  L 24.266666666666666 13.125  C 24.266666666666666 12.851562499999998  24.179166666666667 12.626953125  24.004166666666666 12.451171875  C 23.829166666666666 12.275390625  23.605555555555554 12.1875  23.333333333333336 12.1875  L 17.733333333333334 12.1875  L 17.733333333333334 6.5625  C 17.733333333333334 6.289062499999999  17.645833333333336 6.064453125  17.47083333333333 5.888671875  C 17.295833333333334 5.712890625  17.072222222222223 5.625  16.8 5.625  L 13.066666666666666 5.625  C 12.794444444444446 5.625  12.570833333333333 5.712890625  12.395833333333332 5.888671875  C 12.220833333333333 6.064453125  12.133333333333333 6.289062499999999  12.133333333333333 6.5625  L 12.133333333333333 12.1875  L 6.533333333333333 12.1875  C 6.261111111111111 12.1875  6.037500000000001 12.275390625  5.8625 12.451171875  C 5.6875 12.626953125  5.6000000000000005 12.851562499999998  5.6000000000000005 13.125  L 5.6000000000000005 16.875  C 5.6000000000000005 17.148437499999996  5.6875 17.373046875  5.8625 17.548828125  C 6.037500000000001 17.724609375  6.261111111111111 17.8125  6.533333333333333 17.8125  L 12.133333333333333 17.8125  L 12.133333333333333 23.4375  C 12.133333333333333 23.710937499999996  12.220833333333333 23.935546875  12.395833333333332 24.111328125  C 12.570833333333333 24.287109375  12.794444444444446 24.375  13.066666666666666 24.375  L 16.8 24.375  C 17.072222222222223 24.375  17.295833333333334 24.287109375  17.47083333333333 24.111328125  C 17.645833333333336 23.935546875  17.733333333333334 23.710937499999996  17.733333333333334 23.4375  L 17.733333333333334 17.8125  L 23.333333333333336 17.8125  C 23.605555555555554 17.8125  23.829166666666666 17.724609375  24.004166666666666 17.548828125  Z M 39.97291666666666 21.4013671875  C 40.702083333333334 20.6689453125  41.06666666666666 19.785156249999996  41.06666666666666 18.75  C 41.06666666666666 17.714843749999996  40.702083333333334 16.8310546875  39.97291666666666 16.0986328125  C 39.24375 15.3662109375  38.363888888888894 15  37.33333333333333 15  C 36.302777777777784 15  35.422916666666666 15.3662109375  34.69375 16.0986328125  C 33.96458333333334 16.8310546875  33.6 17.714843749999996  33.6 18.75  C 33.6 19.785156249999996  33.96458333333334 20.6689453125  34.69375 21.4013671875  C 35.422916666666666 22.1337890625  36.302777777777784 22.5  37.33333333333333 22.5  C 38.363888888888894 22.5  39.24375 22.1337890625  39.97291666666666 21.4013671875  Z M 47.43958333333333 13.9013671875  C 48.168749999999996 13.1689453125  48.53333333333333 12.285156249999998  48.53333333333333 11.25  C 48.53333333333333 10.214843749999998  48.168749999999996 9.3310546875  47.43958333333333 8.5986328125  C 46.71041666666667 7.8662109375  45.830555555555556 7.5  44.800000000000004 7.5  C 43.769444444444446 7.5  42.889583333333334 7.8662109375  42.16041666666666 8.5986328125  C 41.43125 9.3310546875  41.06666666666666 10.214843749999998  41.06666666666666 11.25  C 41.06666666666666 12.285156249999998  41.43125 13.1689453125  42.16041666666666 13.9013671875  C 42.889583333333334 14.6337890625  43.769444444444446 15  44.800000000000004 15  C 45.830555555555556 15  46.71041666666667 14.6337890625  47.43958333333333 13.9013671875  Z M 51.625 4.39453125  C 54.54166666666667 7.32421875  56.000000000000014 10.859374999999998  56 15  C 56.000000000000014 19.140624999999996  54.54166666666667 22.67578125  51.625 25.60546875  C 48.708333333333336 28.53515625  45.1888888888889 30  41.06666666666666 30  C 37.33333333333333 30  34.04722222222223 28.749999999999996  31.208333333333332 26.25  L 24.791666666666664 26.25  C 21.95277777777778 28.749999999999996  18.666666666666664 30  14.933333333333334 30  C 10.811111111111112 30  7.291666666666667 28.53515625  4.375 25.60546875  C 1.4583333333333335 22.67578125  0 19.140624999999996  0 15  C 0 10.859374999999998  1.4583333333333335 7.32421875  4.375 4.39453125  C 7.291666666666667 1.46484375  10.811111111111112 0  14.933333333333334 0  L 41.06666666666666 0  C 45.1888888888889 0  48.708333333333336 1.46484375  51.625 4.39453125  Z " fill-rule="evenodd" />
  </mask>
  <linearGradient gradientUnits="userSpaceOnUse" x1="2.435465768799138" y1="17.5438596491228" x2="51.6947250280584" y2="17.5438596491228" id="LinearGradient15">
    <stop id="Stop16" stop-color="#32b1d1" offset="0" />
    <stop id="Stop17" stop-color="#30f1cf" offset="1" />
  </linearGradient>
  <linearGradient gradientUnits="userSpaceOnUse" x1="2.435465768799138" y1="17.5438596491228" x2="51.6947250280584" y2="17.5438596491228" id="LinearGradient18">
    <stop id="Stop19" stop-color="#32b1d1" offset="0" />
    <stop id="Stop20" stop-color="#30f1cf" offset="1" />
  </linearGradient>
  <linearGradient gradientUnits="userSpaceOnUse" x1="2.435465768799138" y1="17.5438596491228" x2="51.6947250280584" y2="17.5438596491228" id="LinearGradient21">
    <stop id="Stop22" stop-color="#32b1d1" offset="0" />
    <stop id="Stop23" stop-color="#30f1cf" offset="1" />
  </linearGradient>
  <path d="M5,7A2,2,0,1,1,3,5,2,2,0,0,1,5,7Zm4.93457-.56689a1.00007,1.00007,0,0,0-1.37988.311L7.12891,9H2a2,2,0,0,0-2,2v5H6V11H7.67969a1.00123,1.00123,0,0,0,.8457-.46582l1.7207-2.72168A1,1,0,0,0,9.93457,6.43311ZM15,10V2H2V4h.96V2.96H14.04V10H10v1h6V10Z"/>
</svg>