<?xml version="1.0" encoding="utf-8"?>
<svg version="1.1" xmlns:xlink="http://www.w3.org/1999/xlink" width="29px" height="24px" xmlns="http://www.w3.org/2000/svg">
  <g transform="matrix(1 0 0 1 -1294 -2401 )">
    <path d="M 25.57741116751269 3.7875000000000005  C 26.71827411167513 3.6624999999999996  27.859137055837564 3.349999999999996  29 2.8500000000000005  C 28.178087986463627 4.0749999999999975  27.1844331641286 5.1187499999999995  26.019035532994923 5.981250000000001  C 26.03130287648054 6.156249999999999  26.03743654822335 6.4187499999999975  26.03743654822335 6.768749999999999  C 26.03743654822335 8.393749999999997  25.80435702199662 10.015624999999998  25.338197969543145 11.634374999999999  C 24.87203891708968 13.253124999999997  24.163599830795263 14.80625  23.2128807106599 16.293750000000003  C 22.262161590524535 17.78125  21.130499153976313 19.096874999999997  19.81789340101523 20.240625  C 18.505287648054146 21.384375  16.922800338409477 22.296875  15.07043147208122 22.978125  C 13.218062605752962 23.659374999999997  11.23688663282572 24  9.126903553299492 24  C 5.8024534686971245 24  2.760152284263959 23.09375  0 21.28125  C 0.42935702199661613 21.331250000000004  0.9077834179357024 21.356250000000003  1.435279187817259 21.356250000000003  C 4.19543147208122 21.356250000000003  6.655033840947547 20.49375  8.814086294416244 18.768749999999997  C 7.526015228426396 18.74375  6.372884940778342 18.340624999999996  5.354695431472082 17.559375000000003  C 4.336505922165821 16.778124999999996  3.637267343485618 15.781249999999998  3.2569796954314723 14.568750000000001  C 3.661802030456853 14.63125  4.035956006768191 14.662500000000001  4.379441624365483 14.662500000000001  C 4.906937394247039 14.662500000000001  5.428299492385786 14.59375  5.943527918781726 14.456249999999999  C 4.569585448392556 14.16875  3.431789340101523 13.471874999999999  2.5301395939086295 12.365625000000001  C 1.6284898477157361 11.259374999999999  1.1776649746192898 9.975000000000001  1.1776649746192893 8.512500000000001  L 1.1776649746192893 8.4375  C 2.0118443316412864 8.9125  2.9073604060913705 9.16875  3.8642131979695433 9.206249999999999  C 3.0545685279187818 8.656249999999998  2.410532994923858 7.937499999999999  1.9321065989847717 7.049999999999999  C 1.4536802030456852 6.162499999999996  1.2144670050761421 5.1999999999999975  1.2144670050761421 4.1625000000000005  C 1.2144670050761421 3.062499999999999  1.4843485617597294 2.043750000000001  2.0241116751269037 1.106250000000001  C 3.508460236886633 2.968749999999999  5.314826565143825 4.459375  7.443210659898477 5.578125  C 9.57159475465313 6.696875  11.850253807106599 7.31875  14.279187817258883 7.4437500000000005  C 14.181049069373943 6.968749999999998  14.131979695431472 6.506249999999998  14.131979695431472 6.0562499999999995  C 14.131979695431472 4.381249999999996  14.711611675126903 2.953125  15.870875634517764 1.7718750000000005  C 17.03013959390863 0.5906250000000011  18.43168358714044 0  20.075507614213198 0  C 21.792935702199664 0  23.240482233502537 0.6375000000000011  24.418147208121827 1.9125000000000005  C 25.755287648054146 1.6499999999999995  27.012690355329948 1.1625000000000005  28.190355329949238 0.45000000000000107  C 27.73646362098139 1.8874999999999966  26.865482233502544 3  25.57741116751269 3.7875000000000005  Z " fill-rule="nonzero" fill="#ffffff" stroke="none" transform="matrix(1 0 0 1 1294 2401 )" />
  </g>
</svg>