<?xml version="1.0" encoding="utf-8"?>
<!-- Generator: Adobe Illustrator 25.0.0, SVG Export Plug-In . SVG Version: 6.00 Build 0)  -->
<svg version="1.1" id="Layer_1" xmlns="http://www.w3.org/2000/svg" xmlns:xlink="http://www.w3.org/1999/xlink" x="0px" y="0px"
	 viewBox="0 0 16 16" style="enable-background:new 0 0 16 16;" xml:space="preserve">
<style type="text/css">
	.st0{fill:url(#SVGID_1_);}
	.st1{fill:url(#SVGID_2_);}
</style>
<linearGradient id="SVGID_1_" gradientUnits="userSpaceOnUse" x1="0" y1="8" x2="16" y2="8">
	<stop  offset="1.123600e-02" style="stop-color:#3EB0CA"/>
	<stop  offset="0.5" style="stop-color:#0099B9"/>
	<stop  offset="0.9944" style="stop-color:#007C84"/>
</linearGradient>
<path class="st0" d="M8,1.7L8,1.7c0.4,0.4,0.9,0.7,1.4,0.9c0.2,0.1,0.4,0.1,0.7,0.1c0.3,0,0.7-0.1,1-0.1h0l0,0
	C11.3,3.1,11.6,3.6,12,4c0.4,0.4,0.9,0.7,1.5,0.8l0,0v0c-0.2,0.6-0.2,1.1-0.1,1.7c0.2,0.5,0.5,1,0.9,1.4l0,0l0,0
	c-0.4,0.4-0.7,0.9-0.9,1.4c-0.1,0.6-0.1,1.1,0.1,1.7v0l0,0c-0.6,0.1-1.1,0.4-1.5,0.8c-0.4,0.4-0.7,0.9-0.8,1.5l0,0h0
	c-0.3-0.1-0.7-0.1-1-0.1c-0.2,0-0.4,0-0.7,0.1c-0.5,0.2-1,0.5-1.4,0.9l0,0l0,0c-0.4-0.4-0.9-0.7-1.4-0.9c-0.2-0.1-0.4-0.1-0.7-0.1
	c-0.3,0-0.7,0.1-1,0.1h0l0,0C4.7,12.9,4.4,12.4,4,12c-0.4-0.4-0.9-0.7-1.5-0.8l0,0v0c0.2-0.6,0.2-1.1,0.1-1.7C2.4,8.9,2.1,8.4,1.7,8
	l0,0l0,0c0.4-0.4,0.7-0.9,0.9-1.4C2.7,6,2.7,5.4,2.5,4.8v0l0,0C3.1,4.7,3.6,4.4,4,4c0.4-0.4,0.7-0.9,0.8-1.5l0,0h0
	c0.3,0.1,0.7,0.1,1,0.1c0.2,0,0.4,0,0.7-0.1C7.1,2.4,7.6,2.1,8,1.7L8,1.7 M8,0C7.3,0,6.8,1,6.2,1.1c-0.1,0-0.2,0-0.3,0
	C5.4,1.2,4.9,1,4.4,1C4.3,1,4.1,1,4,1.1C3.4,1.4,3.4,2.5,3,3S1.4,3.4,1.1,4C0.7,4.6,1.3,5.5,1.1,6.2C1,6.8,0,7.3,0,8s1,1.2,1.1,1.8
	c0.2,0.6-0.4,1.6-0.1,2.2c0.3,0.6,1.4,0.6,1.9,1s0.4,1.6,1,1.9C4.1,15,4.3,15,4.4,15c0.4,0,1-0.2,1.4-0.2c0.1,0,0.2,0,0.3,0
	C6.8,15,7.3,16,8,16s1.2-1,1.8-1.1c0.1,0,0.2,0,0.3,0c0.5,0,1,0.2,1.4,0.2c0.2,0,0.3,0,0.4-0.1c0.6-0.3,0.6-1.4,1-1.9s1.6-0.4,1.9-1
	c0.3-0.6-0.2-1.5-0.1-2.2C15,9.2,16,8.7,16,8s-1-1.2-1.1-1.8c-0.2-0.6,0.4-1.6,0.1-2.2c-0.3-0.6-1.4-0.6-1.9-1s-0.4-1.6-1-1.9
	C11.9,1,11.7,1,11.6,1c-0.4,0-1,0.2-1.4,0.2c-0.1,0-0.2,0-0.3,0C9.2,1,8.7,0,8,0z"/>
<linearGradient id="SVGID_2_" gradientUnits="userSpaceOnUse" x1="4.1875" y1="8" x2="11.8126" y2="8">
	<stop  offset="1.123600e-02" style="stop-color:#3EB0CA"/>
	<stop  offset="0.5" style="stop-color:#0099B9"/>
	<stop  offset="0.9944" style="stop-color:#007C84"/>
</linearGradient>
<path class="st1" d="M9.3,6.6l-1-2.1C8.2,4.4,8,4.3,7.9,4.3c-0.1,0-0.1,0.1-0.2,0.2l-1,2.1L4.4,7C4.1,7,4.1,7.3,4.3,7.5l1.6,1.6
	l-0.4,2.3c0,0.3,0.2,0.4,0.4,0.3l2.1-1l2.1,1c0.1,0.1,0.3,0.1,0.4-0.1c0-0.1,0.1-0.1,0-0.2l-0.4-2.3l1.7-1.6c0.1-0.1,0-0.3-0.1-0.4
	c0,0-0.1,0-0.1,0L9.3,6.6z"/>
</svg>
